<svg width="1280" height="605" viewBox="0 0 1280 605" fill="none" xmlns="http://www.w3.org/2000/svg">
<path fill-rule="evenodd" clip-rule="evenodd" d="M827.5 137.663C946.696 138.803 1047.95 199.666 1146.09 267.26C1260.86 346.31 1416.69 413.697 1429.63 552.387C1442.6 691.455 1308.65 793.994 1203.84 886.433C1117.16 962.89 1011.05 994.402 898.497 1020.86C754.102 1054.8 583.266 1156.54 472.088 1058.44C360.809 960.253 456.966 778.979 456.243 630.635C455.618 502.407 391.031 363.246 468.199 260.778C547.342 155.688 695.888 136.405 827.5 137.663Z" fill="#F4ECFE" fill-opacity="0.6"/>
<path fill-rule="evenodd" clip-rule="evenodd" d="M634.329 184.289C713.738 273.19 736.908 389.035 753.003 507.107C771.826 645.191 826.918 805.782 733.08 908.723C638.988 1011.94 472.983 981.936 334.074 966.681C219.179 954.064 124.437 896.82 29.0986 831.413C-93.2145 747.5 -283.459 689.683 -285.779 541.431C-288.1 393.045 -89.3268 342.097 19.8717 241.686C114.262 154.892 173.673 13.4436 301.392 1.51321C432.38 -10.7225 546.65 86.1288 634.329 184.289Z" fill="#F4ECFE" fill-opacity="0.4"/>
</svg>
