<svg width="999" height="1657" viewBox="0 0 999 1657" fill="none" xmlns="http://www.w3.org/2000/svg">
<path d="M938.244 1C1273.49 317 92.9878 203 60.2438 462.5C50.2581 541.638 198.929 631.197 596.744 813C994.559 994.803 1131.49 1321.5 783.454 1503.22C226.286 1794.14 -78.9719 1771.26 19.1997 1874.21C97.737 1956.56 561.427 2092.72 783.454 2150.5" stroke="#9145F1" stroke-dasharray="10 10"/>
<path d="M767.701 959.343L898.851 1026.59L825.352 918.506L815.255 942.818L780.385 940.426L767.701 959.343Z" fill="#DEC7FB"/>
<path d="M898.851 1026.59L801.456 915.56L691.636 874.071L898.851 1026.59Z" fill="#FAF5FF"/>
<path d="M597.808 1522.5L530.244 1541.61L574.71 1498.02L577.146 1510.32L593.658 1512.47L597.808 1522.5Z" fill="#DEC7FB"/>
<path d="M530.244 1541.61L586.148 1498.88L641.333 1489.8L530.244 1541.61Z" fill="#FAF5FF"/>
</svg>
