<svg width="550" height="254" viewBox="0 0 550 254" fill="none" xmlns="http://www.w3.org/2000/svg">
<g clip-path="url(#clip0_1640_1774)">
<path d="M157.934 102.524C150.733 97.7462 141.212 96.7827 131.164 102.309C120.083 108.393 111.962 114.62 98.5927 112.207C77.6388 108.417 60.6774 96.5836 38.5234 97.7144C26.8424 98.3116 14.7774 102.389 7.32071 111.419C4.40565 115.048 2.28726 119.246 1.10214 123.74C-0.0829709 128.235 -0.308495 132.927 0.440113 137.514C2.02807 146.738 7.09305 155.012 14.6013 160.646C20.2578 164.906 27.2665 167.574 34.3391 167.255C40.7396 166.961 46.8042 164.293 52.8047 161.952C67.2539 156.314 83.4554 152.396 98.1046 157.509C107.049 160.606 114.546 166.937 124.043 168.291C133.526 169.648 143.19 167.744 151.437 162.892C162.014 156.577 170.047 145.031 171.151 132.672C172.255 120.075 166.799 108.433 157.934 102.524Z" fill="#9145F1"/>
<path d="M131.772 180.052C125.747 182.616 118.642 186.088 115.922 192.45C115.228 194.131 114.906 195.941 114.98 197.756C115.053 199.572 115.519 201.35 116.346 202.97C118.146 206.672 121.339 209.444 124.843 211.514C128.787 213.855 133.124 215.559 137.308 217.43L151.021 223.562C154.742 225.226 158.654 226.962 161.19 230.275C163.11 232.791 164.23 235.849 165.287 238.763C167.183 244.075 169.039 250.509 174.735 252.946C176.334 253.578 178.058 253.835 179.773 253.697C181.488 253.558 183.148 253.029 184.624 252.149C186.205 251.227 187.554 249.959 188.57 248.442C189.586 246.924 190.242 245.197 190.489 243.39C191.029 239.631 190.092 235.809 187.872 232.719C185.73 229.947 183.071 227.611 180.04 225.839C176.952 223.881 173.687 222.168 170.719 220.003C167.464 217.609 164.741 214.573 162.718 211.084C160.526 207.309 159.518 203.28 158.718 199.028C157.998 195.15 156.942 191.495 154.502 188.326C152.421 185.654 149.752 183.493 146.701 182.009C143.649 180.525 140.296 179.757 136.9 179.765C135.209 179.791 133.528 180.034 131.9 180.49C131.795 180.519 131.696 180.568 131.61 180.634C131.524 180.701 131.452 180.784 131.398 180.878C131.344 180.972 131.31 181.076 131.296 181.184C131.283 181.291 131.291 181.401 131.32 181.505C131.348 181.61 131.398 181.708 131.465 181.793C131.532 181.879 131.615 181.951 131.709 182.004C131.804 182.058 131.909 182.092 132.017 182.106C132.125 182.119 132.235 182.111 132.34 182.083C138.74 180.315 145.717 182.274 150.605 186.598C153.084 188.755 154.935 191.536 155.966 194.648C157.27 198.701 157.462 203.017 158.942 207.031C161.526 214.022 166.455 219.421 172.719 223.363C178.32 226.891 185.6 230.052 188.121 236.693C188.813 238.444 189.092 240.33 188.936 242.205C188.779 244.08 188.191 245.894 187.216 247.507C186.278 248.933 184.996 250.103 183.486 250.908C181.977 251.714 180.288 252.129 178.576 252.117C172.111 252.014 169.415 245.564 167.583 240.42C166.677 237.602 165.576 234.851 164.286 232.186C162.808 229.307 160.574 226.88 157.822 225.163C154.214 222.893 150.101 221.364 146.221 219.628L133.3 213.839C126.435 210.765 117.202 206.569 116.642 197.913C116.186 190.953 122.555 186.43 128.075 183.58C129.571 182.783 131.1 182.114 132.644 181.454C133.62 181.039 132.78 179.63 131.844 180.044L131.772 180.052Z" fill="#9145F1"/>
<path d="M336.293 36.5185C334.469 31.4938 330.693 27.0823 325.444 25.7923C315.772 24.996 310.731 27.4565 305.731 32.2582C300.73 37.06 297.858 43.5817 295.074 49.9202C292.29 56.2588 289.321 62.7567 284.209 67.4389C275.472 75.4019 261.999 76.6681 253.494 84.8939C244.989 93.1197 243.709 107.19 249.118 117.662C254.526 128.133 265.599 135.093 277.256 137.275C281.042 138.038 284.926 138.191 288.761 137.729C299.962 136.224 309.563 127.974 314.699 117.917C319.836 107.859 321.052 96.2173 320.452 84.9496C320.156 79.4631 319.5 73.6899 321.772 68.6811C326.284 58.7433 337.773 55.3271 337.501 42.8093C337.442 40.6613 337.034 38.537 336.293 36.5185V36.5185Z" fill="#DEC7FB"/>
<path d="M128.915 66.3878C128.371 64.944 128.194 63.3884 128.401 61.8599C128.607 60.3315 129.191 58.8778 130.099 57.6285C132.004 54.8573 135.212 53.2886 138.444 52.6516C145.725 51.2182 153.173 55.2794 160.278 52.349C166.519 49.7769 170.135 43.6852 173.079 38.0156C176.183 32.0433 179.416 25.3703 186.152 22.8221C188.937 21.763 192.065 21.6913 194.633 23.3476C195.805 24.191 196.78 25.2766 197.491 26.5301C198.203 27.7836 198.633 29.1754 198.753 30.6099C199.553 37.3865 194.569 43.0243 189.729 47.1014C186.904 49.4903 183.88 51.6244 181.12 54.077C178.574 56.406 176.257 58.9711 174.199 61.7374C169.991 67.2 166.199 73.2042 160.318 77.122C154.822 80.8009 147.781 82.7757 141.244 80.992C135.5 79.3994 130.491 74.741 129.011 68.944C128.651 67.527 128.524 66.0614 128.635 64.6041C128.707 63.4734 126.955 63.4813 126.875 64.6041C126.443 70.9745 130.211 76.9309 135.5 80.3231C141.356 84.0817 148.781 84.1454 155.174 81.7326C162.118 79.1127 167.111 73.9845 171.511 68.1954C173.815 65.1695 175.999 62.04 178.52 59.1733C181.161 56.2964 184.07 53.6754 187.208 51.3457C192.809 46.9899 199.081 41.8856 200.378 34.5039C201.394 28.6829 198.537 21.763 192.217 20.4889C185.504 19.1511 179.344 24.1678 175.879 29.3836C171.711 35.6665 169.479 43.3587 163.518 48.3436C160.62 50.7638 156.891 51.9687 153.117 51.704C149.045 51.5049 145.045 50.3821 140.948 50.6051C134.14 50.9794 127.283 55.0246 126.547 62.3187C126.393 63.876 126.621 65.4472 127.211 66.8974C127.635 67.9247 129.331 67.4787 128.907 66.4356L128.915 66.3878Z" fill="#DEC7FB"/>
<path d="M446.263 82.9509C441.463 74.9879 429.941 70.0906 420.853 72.2486C407.156 75.4975 406.716 90.6353 405.043 102.054C403.755 110.814 400.875 119.852 394.25 125.768C390.426 129.176 385.65 131.287 381.009 133.476C369.24 139.05 357.663 145.508 348.654 154.865C339.646 164.222 333.413 176.859 334.165 189.799C334.303 193.063 335.023 196.278 336.293 199.291C339.166 205.828 345.094 210.59 351.447 213.871C360.448 218.473 370.534 220.562 380.633 219.915C389.986 219.318 399.467 216.141 406.059 209.563C415.516 200.063 417.388 185.674 418.541 172.328C419.693 158.982 421.037 144.664 429.853 134.583C432.582 131.47 435.91 128.921 438.654 125.824C446.919 116.579 451.015 102.62 448.919 90.3964C448.5 87.7734 447.6 85.2495 446.263 82.9509Z" fill="#9145F1"/>
<path d="M421.773 0.207035C417.414 -0.300252 412.997 0.072986 408.786 1.30441C404.575 2.53584 400.657 4.60014 397.267 7.37376C393.978 10.1666 391.37 13.6662 389.639 17.6086C387.908 21.551 387.099 25.8332 387.274 30.1321C387.506 34.1811 388.719 38.1142 390.808 41.5959C392.898 45.0776 395.803 48.0046 399.275 50.1273C402.777 52.2808 406.792 53.4681 410.908 53.5673C416.284 53.6867 421.501 52.1658 426.797 51.5606C435.824 50.5514 444.911 52.8563 452.351 58.0425C454.189 59.3253 455.899 60.7813 457.456 62.3903C459.144 64.1263 460.656 66.0294 462.432 67.6619C465.553 70.5365 470.169 72.7582 474.345 70.7595C476.162 69.7652 477.689 68.3194 478.778 66.5629C480.167 64.654 481.36 62.6104 482.338 60.4633C483.197 58.5565 483.582 56.4716 483.46 54.3853C483.337 52.2991 482.711 50.273 481.634 48.4789C477.17 40.8663 468.497 38.1986 461.16 34.249C457.472 32.2582 453.96 29.7817 451.799 26.1108C450.495 23.8811 449.687 21.4205 448.599 19.0874C447.726 17.1682 446.653 15.3453 445.399 13.6486C440.468 7.04944 433.303 2.45009 425.229 0.700745C423.232 0.277703 421.198 0.0483562 419.156 0.0159237C418.939 0.0366732 418.736 0.137503 418.589 0.298729C418.442 0.459956 418.36 0.670007 418.36 0.887876C418.36 1.10575 418.442 1.3158 418.589 1.47702C418.736 1.63825 418.939 1.73908 419.156 1.75983C427.16 1.99292 434.785 5.20354 440.526 10.758C443.406 13.5215 445.718 16.8156 447.335 20.457C448.206 22.6874 449.197 24.8698 450.303 26.9947C451.306 28.6831 452.567 30.2063 454.04 31.5097C460.056 36.9007 468.305 38.6286 474.681 43.4542C477.794 45.8431 480.714 49.0284 481.57 52.9223C482.57 57.4453 480.066 61.5462 477.626 65.1615C476.49 66.8496 475.113 68.6493 473.129 69.3819C472.087 69.7032 470.989 69.8054 469.905 69.682C468.821 69.5586 467.775 69.2124 466.833 68.6652C462.832 66.6028 460.376 62.5496 457.136 59.6033C450.899 53.9753 443.002 50.5035 434.622 49.7052C430.037 49.2673 425.557 49.8963 421.021 50.6847C416.34 51.481 411.492 52.3808 406.763 51.3058C403.031 50.3941 399.582 48.5799 396.722 46.0241C393.863 43.4683 391.681 40.2497 390.37 36.6538C387.57 28.8341 389.354 19.9315 394.17 13.2664C399.091 6.47394 407.291 2.46058 415.58 1.81557C417.657 1.65623 419.744 1.69623 421.813 1.93502C422.933 2.05446 422.925 0.302592 421.813 0.183147L421.773 0.207035Z" fill="#DEC7FB"/>
<path d="M533.166 124.9C522.765 118.784 509.964 120.074 499.756 125.983C494.742 128.872 490.426 132.822 487.114 137.553C484.026 142.021 481.898 147.069 479.834 152.07C477.77 157.071 475.721 162.286 472.857 166.985C469.993 171.683 465.881 176.349 460.424 178.133C457.16 179.224 453.704 179.526 450.399 180.45C448.034 181.137 445.747 182.065 443.575 183.221C438.783 185.686 434.521 189.059 431.03 193.151C427.829 196.981 425.333 201.632 425.157 206.688C425.121 209.25 425.648 211.788 426.699 214.126C427.751 216.464 429.302 218.546 431.246 220.226C438.71 226.676 449.975 225.401 458.544 222.105C463.031 220.444 467.187 218.004 470.817 214.898C475.481 210.789 478.354 205.151 481.97 200.198C485.761 195.155 490.769 191.145 496.531 188.541C502.06 185.921 507.964 184.241 513.757 182.329C525.094 178.595 536.671 173.18 543.215 162.717C546.478 157.65 547.867 151.611 547.144 145.636C546.327 139.892 543.764 134.535 539.799 130.283C537.865 128.185 535.64 126.372 533.19 124.9C532.989 124.783 532.749 124.75 532.523 124.809C532.297 124.868 532.104 125.014 531.986 125.215C531.869 125.415 531.836 125.654 531.895 125.879C531.954 126.104 532.101 126.296 532.302 126.413C542.103 132.33 548.104 144.402 544.575 155.637C540.975 167.104 530.006 174.422 519.269 178.539C508.532 182.656 496.595 184.814 487.33 192.124C482.266 196.105 479.058 201.536 475.473 206.768C473.902 209.167 472.063 211.381 469.993 213.369C468.373 214.832 466.61 216.129 464.728 217.239C457.008 221.898 446.495 225.035 437.638 221.961C435.41 221.174 433.382 219.911 431.697 218.26C430.012 216.609 428.711 214.611 427.885 212.406C426.125 207.763 427.013 202.85 429.405 198.574C432.041 194.109 435.66 190.297 439.99 187.426C444.259 184.437 449.106 182.365 454.224 181.342C457.424 180.697 460.68 180.171 463.632 178.682C466.012 177.408 468.153 175.735 469.961 173.737C473.473 169.995 475.937 165.432 478.042 160.789C482.386 151.194 485.386 140.635 493.187 133.102C501.228 125.322 513.189 120.688 524.342 123.204C527.147 123.844 529.833 124.919 532.302 126.389C532.495 126.455 532.706 126.453 532.897 126.381C533.088 126.31 533.249 126.175 533.351 125.999C533.453 125.823 533.49 125.617 533.457 125.417C533.423 125.216 533.32 125.033 533.166 124.9V124.9Z" fill="#9145F1"/>
<path d="M14.7294 47.6826C10.265 49.7928 6.50464 53.9495 6.67266 59.1255C6.83267 64.0227 10.833 67.5663 15.4254 68.6174C19.1937 69.4854 23.7141 68.8085 26.4664 65.9179C29.6667 62.5416 29.3386 57.1586 26.8904 53.4558C25.5663 51.4136 23.6862 49.788 21.4693 48.7686C19.2524 47.7493 16.7901 47.3782 14.3693 47.6985C13.2492 47.8737 13.7213 49.5539 14.8334 49.3867C16.6226 49.185 18.4342 49.4246 20.1085 50.0842C21.7828 50.7438 23.2684 51.8033 24.4342 53.1691C26.9544 56.0119 28.0745 60.6225 25.7783 63.9431C21.666 69.9074 9.97695 67.3752 8.53682 60.4155C7.49673 55.3749 11.3211 51.2023 15.5774 49.1876C16.6015 48.7098 15.7134 47.1969 14.6894 47.6826H14.7294Z" fill="#9145F1"/>
<path d="M102.161 217.454C102.617 216.005 103.185 214.596 103.513 213.107C104.313 209.563 104.313 206.099 102.673 202.755C103.113 202.548 103.553 202.333 104.009 202.142C104.907 201.724 105.917 201.606 106.888 201.804C107.859 202.002 108.74 202.505 109.402 203.24C110.13 203.943 110.685 204.804 111.022 205.756C111.36 206.708 111.47 207.725 111.346 208.727C111.194 210.32 111.058 211.976 110.858 213.592C110.471 216.997 110.356 220.426 110.514 223.849C110.52 224.719 110.475 225.588 110.378 226.453C110.354 226.889 110.231 227.313 110.018 227.695C109.913 227.977 109.739 228.23 109.513 228.43C109.287 228.63 109.014 228.771 108.72 228.841C108.425 228.911 108.118 228.908 107.825 228.832C107.533 228.755 107.263 228.608 107.041 228.404C105.6 227.29 104.625 225.684 104.305 223.897C103.957 222.189 103.5 220.505 102.937 218.856C102.768 218.345 102.505 217.869 102.161 217.454V217.454Z" fill="#6395CE"/>
<path d="M141.22 57.6603C139.969 56.4845 138.46 55.6148 136.812 55.12C133.394 53.9684 129.676 54.0644 126.323 55.3908C121.099 57.5408 117.522 62.4381 112.49 65.0499C107.457 67.6618 101.601 67.845 97.1205 71.062C94.4643 72.9732 92.4481 75.8399 89.3839 77.0184C87.2769 77.6843 85.0314 77.7886 82.8713 77.321C76.8868 76.3256 70.8223 73.0767 68.5341 67.4866C66.9339 63.6723 67.3179 59.1573 65.1097 55.6695C63.7256 53.4717 61.4214 51.8472 60.5173 49.4185C59.2372 45.9626 61.1654 42.2518 61.8775 38.6525C62.2855 36.5659 62.2596 34.4182 61.8013 32.3419C61.3431 30.2657 60.4623 28.3049 59.2132 26.5805C57.9369 24.8755 56.2891 23.4803 54.3935 22.4997C52.4979 21.5192 50.4038 20.9787 48.2683 20.9188C48.2683 20.9188 45.196 20.5924 40.4916 23.1724C34.6511 27.1539 32.6749 35.1806 33.907 42.1323C35.1391 49.0841 39.0035 55.2713 42.8678 61.1958C46.7321 67.1203 50.7725 73.1404 52.4686 80.0125C52.8162 81.1005 52.8162 82.269 52.4686 83.3569C51.9886 84.5355 50.8685 85.2681 49.8204 86.0485C40.8916 92.9285 40.4916 106.306 33.883 115.4C31.7308 118.354 28.9466 120.799 26.7864 123.737C24.1542 127.321 22.666 131.923 24.6902 136.144C25.5393 137.887 26.8582 139.361 28.4998 140.401C30.1414 141.442 32.0411 142.008 33.987 142.037H34.4511C36.0512 141.941 37.5953 141.463 39.1955 141.431C40.7939 141.47 42.3784 141.738 43.8999 142.228C50.1981 143.832 56.4027 145.781 62.4855 148.065C68.7901 150.557 74.8386 153.79 81.3912 155.558C87.9437 157.326 95.3204 157.485 101.161 154.037C106.193 151.067 109.53 145.644 110.562 139.91C111.465 134.112 110.584 128.176 108.034 122.885C106.273 119.039 103.833 115.496 102.537 111.466C101.241 107.437 101.337 102.604 104.201 99.5219C105.841 97.7461 108.154 96.7667 110.274 95.5802C113.399 93.8168 116.186 91.5173 118.506 88.7877C119.675 87.247 120.953 85.7913 122.331 84.432C125.035 82.043 128.627 81.0317 131.796 79.3277C135.554 77.2948 138.722 74.333 140.996 70.7276C143.205 67.2159 144.957 62.9318 142.421 59.1095C142.075 58.5839 141.673 58.0979 141.22 57.6603V57.6603Z" fill="#6395CE"/>
<path d="M102.161 217.454C101.897 217.861 101.617 218.251 101.361 218.681C100.042 220.959 97.9908 222.729 95.538 223.706C93.0851 224.682 90.3733 224.808 87.8396 224.064C86.7163 223.823 85.637 223.412 84.6393 222.845C82.8071 221.659 81.031 221.946 79.1988 222.686C77.4067 223.148 75.6305 223.626 73.8304 224.064C73.7079 224.077 73.5894 224.115 73.4822 224.176C73.3749 224.236 73.2811 224.318 73.2063 224.415C73.1315 224.513 73.0774 224.624 73.0471 224.743C73.0169 224.862 73.0112 224.986 73.0303 225.107C73.0041 227.719 72.2418 230.271 70.8301 232.473C70.7821 232.473 70.7181 232.52 70.6941 232.568C66.8938 238.31 58.8931 237.473 54.5487 233.452C53.2286 232.226 52.0205 230.888 50.7483 229.614C49.8283 228.682 48.9082 227.751 47.9321 226.875C45.7012 224.785 43.1656 223.042 40.4114 221.707C35.3252 219.42 30.4317 216.731 25.7782 213.664C22.3603 211.384 19.3977 208.493 17.0414 205.136C13.5771 200.214 12.897 194.823 14.3452 189.09C15.2929 185.499 16.875 182.104 19.0176 179.065C20.9297 176.286 22.8019 173.491 24.8741 170.791C29.0127 165.37 32.576 159.536 35.507 153.384C37.3552 149.609 39.2753 145.891 41.4115 142.275C41.6035 141.949 41.7476 141.591 41.9156 141.256C43.2612 139.335 44.3933 137.273 45.2919 135.109C46.2119 133.022 47.06 130.888 48.6042 129.136C49.0682 129.511 49.5402 129.877 50.0043 130.259C53.4671 133.193 57.4812 135.412 61.8133 136.789C67.9818 138.636 74.2144 140.253 80.663 140.818C81.3756 140.743 82.0908 140.933 82.6711 141.352C82.6511 141.566 82.6511 141.782 82.6711 141.997C83.5272 146.663 84.4153 151.321 84.8153 156.059C85.0713 162.573 83.3432 168.673 80.895 174.613C79.9589 176.875 78.8148 179.049 77.8307 181.294C76.7139 183.741 76.3385 186.458 76.7506 189.114C77.4285 192.931 77.4501 196.836 76.8146 200.66C76.6466 201.608 76.7426 201.608 77.7587 201.576C82.0888 201.43 86.3709 200.624 90.4558 199.187C91.7092 198.788 93.0127 198.566 94.3281 198.526C95.8382 198.394 97.3567 198.659 98.7315 199.295C100.106 199.931 101.289 200.915 102.161 202.149C102.321 202.357 102.521 202.548 102.705 202.747C104.385 206.075 104.305 209.539 103.545 213.099C103.185 214.596 102.617 216.005 102.161 217.454ZM48.4921 184.081C47.356 185.172 46.548 185.969 45.7159 186.741C44.8838 187.513 44.1158 188.182 43.3157 188.939C43.01 189.184 42.7635 189.495 42.5941 189.848C42.4247 190.2 42.3368 190.586 42.3368 190.977C42.3368 191.368 42.4247 191.754 42.5941 192.107C42.7635 192.46 43.01 192.77 43.3157 193.016L46.796 196.472C47.8761 197.523 48.0841 197.483 48.6602 196.113C48.7735 195.864 48.8282 195.591 48.8202 195.317C48.3984 191.587 48.2887 187.829 48.4921 184.081V184.081Z" fill="#E17C37"/>
<path d="M91.0559 70.1224C91.0098 69.8566 90.8881 69.6095 90.7052 69.4104C90.5222 69.2114 90.2857 69.0688 90.0238 68.9996C89.9141 68.9677 89.7975 68.9677 89.6878 68.9996C89.5228 69.0725 89.3875 69.1988 89.3037 69.3579C89.0033 69.9712 88.6033 70.5308 88.1196 71.0142C87.9955 71.1295 87.8484 71.2175 87.6878 71.2724C87.5273 71.3273 87.3569 71.3479 87.1878 71.3329C87.0187 71.3179 86.8547 71.2676 86.7065 71.1852C86.5582 71.1029 86.4291 70.9903 86.3275 70.855C86.2555 70.7196 86.1995 70.5365 86.0474 70.5126C85.8954 70.4887 85.8234 70.5763 85.7274 70.6559C83.7203 72.4418 81.5073 73.9841 79.1348 75.2506C79.0468 75.2506 78.9508 75.3541 78.9428 75.4497C78.9348 75.5452 79.0148 75.601 79.0708 75.6726C79.3669 76.031 79.2069 76.5645 79.0228 76.9945C78.4868 78.2447 77.6707 79.5825 76.3266 79.8532C76.1159 79.8716 75.9114 79.934 75.7265 80.0364C75.5608 80.1798 75.4458 80.3724 75.3985 80.5858C75.0758 81.7306 75.0729 82.9414 75.3901 84.0877C75.7073 85.2341 76.3326 86.2726 77.1987 87.0916C77.6473 87.5483 78.1922 87.9002 78.7941 88.1219C79.3959 88.3436 80.0397 88.4296 80.679 88.3736C81.4889 88.2445 82.2488 87.9006 82.8792 87.3783C84.5353 86.0883 86.9195 83.6277 85.4394 82.258C82.9832 79.9965 84.6393 74.5896 87.5436 73.1245C87.9077 72.9755 88.2895 72.8738 88.6797 72.8219C89.1506 72.7535 89.5997 72.5797 89.9933 72.3135C90.3869 72.0473 90.7147 71.6956 90.9519 71.285C91.1136 70.9193 91.1501 70.5108 91.0559 70.1224V70.1224Z" fill="#D77062"/>
<path d="M70.8943 232.473C72.306 230.271 73.0683 227.719 73.0945 225.107C73.0753 224.986 73.0811 224.862 73.1113 224.743C73.1416 224.624 73.1957 224.513 73.2705 224.415C73.3453 224.318 73.4391 224.236 73.5464 224.176C73.6536 224.115 73.7721 224.077 73.8945 224.064C75.6947 223.626 77.4709 223.148 79.263 222.686C80.9032 223.952 81.3032 225.744 81.2152 227.647C81.0945 229.488 80.8782 231.322 80.5671 233.141C80.3508 235.138 80.2706 237.146 80.3271 239.154C80.3271 240.46 80.4311 241.757 80.4471 243.063C80.5087 243.941 80.272 244.813 79.7751 245.54C79.6481 245.752 79.4766 245.935 79.2723 246.075C79.0681 246.216 78.8358 246.311 78.5913 246.354C78.3469 246.397 78.096 246.387 77.8557 246.325C77.6154 246.263 77.3913 246.15 77.1988 245.994C76.5246 245.52 75.9528 244.917 75.5172 244.219C75.0815 243.522 74.7909 242.744 74.6626 241.933C74.1867 238.747 72.9553 235.72 71.0703 233.102C70.9712 232.905 70.9115 232.692 70.8943 232.473V232.473Z" fill="#6395CE"/>
<path d="M92.136 99.8961C92.4904 99.3458 92.6754 98.7044 92.6683 98.0507C92.6612 97.3971 92.4623 96.7598 92.096 96.2172C90.92 94.2455 90.2317 92.0238 90.0878 89.7353C90.0315 88.1073 90.0716 86.4773 90.2078 84.854C90.2718 83.2614 89.6717 82.5686 88.0476 82.3934C87.1835 82.3058 86.3034 82.2979 85.4394 82.258C85.4204 83.3234 85.1454 84.3688 84.6374 85.3067C84.1293 86.2446 83.403 87.0477 82.5191 87.649C81.8767 88.1279 81.0995 88.3939 80.2971 88.4097C79.4947 88.4254 78.7075 88.1899 78.0467 87.7366C75.3265 85.9847 74.4144 82.2103 75.6465 79.9965C73.7664 79.2002 72.7423 79.4391 71.4622 81.2388C69.0634 84.5306 66.2631 87.513 63.1254 90.1175H63.0854C62.9263 90.2363 62.774 90.3639 62.6294 90.4998L62.1093 90.9218V91.0014C61.4821 91.6771 61.0943 92.5385 61.0052 93.4541C60.6372 99.0919 61.9173 105.215 59.0291 110.081C57.6369 112.43 55.4288 114.158 53.3566 115.934C51.2844 117.709 49.2122 119.676 48.2761 122.232C47.8867 123.262 47.756 124.37 47.8955 125.461C48.0349 126.552 48.4403 127.592 49.0762 128.491C49.1023 128.857 49.1477 129.221 49.2122 129.582C49.4762 129.789 49.7323 129.988 50.0123 130.195C53.4752 133.129 57.4892 135.349 61.8213 136.725C67.9899 138.573 74.2224 140.189 80.671 140.754C81.3836 140.68 82.0988 140.87 82.6791 141.288C83.8016 140.706 84.6597 139.721 85.0793 138.533C86.1641 135.965 86.6325 133.182 86.4475 130.403C86.054 126.014 86.0808 121.599 86.5275 117.216C86.7778 114.182 87.3765 111.187 88.3116 108.289C89.3379 105.386 90.6176 102.577 92.136 99.8961V99.8961ZM53.8046 122.272C53.4606 122.527 53.0845 122.79 52.7085 123.069C53.5051 122.351 54.3498 121.689 55.2367 121.086C54.7807 121.492 54.3087 121.89 53.8046 122.272V122.272Z" fill="#F8EBE5"/>
<path d="M88.6237 68.8005C87.4796 73.9845 83.9193 77.6395 80.6871 76.9069C76.0706 75.8637 75.7586 71.4204 76.9027 66.2444C78.0468 61.0684 81.5991 57.4293 84.8314 58.138C88.0637 58.8467 89.7678 63.6246 88.6237 68.8005Z" fill="#D77062"/>
<path d="M80.751 60.5508C79.5589 60.1686 78.3508 59.7545 77.1667 59.3962C71.3822 57.4452 67.4459 53.7504 66.4858 47.5711C65.7897 43.1118 66.9258 39.1143 70.5902 36.1362C71.5202 35.3232 72.6272 34.736 73.8239 34.421C75.0206 34.106 76.2744 34.0716 77.4868 34.3206C82.7512 35.3956 84.1193 39.7036 83.5913 43.2949C83.2916 45.0138 82.7838 46.6903 82.0792 48.2877C81.868 48.6661 81.776 49.0989 81.8151 49.53C82.3832 52.9461 83.6473 55.9004 86.9196 57.6523C87.8005 58.0948 88.6096 58.6665 89.3198 59.3484C89.733 59.7119 90.0396 60.1799 90.2072 60.7029C90.3748 61.2258 90.3972 61.7841 90.2719 62.3186C90.1063 63.0551 90.1255 63.8209 90.3279 64.5482C90.7039 66.1408 90.0638 67.5423 89.5278 68.9757C89.1723 69.7059 88.7024 70.3752 88.1357 70.9585C87.3356 71.6114 86.8236 71.5477 86.2235 70.7275C85.9282 70.3377 85.7132 69.8936 85.591 69.4207C85.4688 68.9479 85.4418 68.4556 85.5115 67.9723C85.7049 66.5097 86.3064 65.1304 87.2476 63.9908C88.0477 62.9636 88.0477 62.8601 86.8236 62.2708C84.8743 61.4621 82.8361 60.8848 80.751 60.5508Z" fill="#212443"/>
<path d="M91.6961 71.2293C90.728 73.1483 89.0879 74.2632 88.0238 73.7296C86.9597 73.1961 86.8877 71.2213 87.8558 69.3022C88.8238 67.3831 90.464 66.2763 91.5281 66.8018C92.5922 67.3274 92.6322 69.3181 91.6961 71.2293Z" fill="#D77062"/>
<path d="M78.4869 66.8337C78.7429 68.7369 78.0869 70.4011 77.0148 70.5445C75.9427 70.6878 74.8786 69.2545 74.6146 67.3593C74.3505 65.4641 75.0146 63.7998 76.0867 63.6565C77.1588 63.5131 78.2309 64.9305 78.4869 66.8337Z" fill="#D77062"/>
<path d="M82.9513 70.847C82.7286 71.3723 82.3148 71.7944 81.7927 72.029C81.2707 72.2636 80.6789 72.2932 80.1358 72.112C79.5927 71.9308 79.1383 71.5522 78.8638 71.0518C78.5892 70.5515 78.5146 69.9664 78.655 69.4137L82.9513 70.847Z" fill="white"/>
<path d="M146.493 53.8858C145.957 53.1851 143.021 55.7173 143.021 55.7173C143.021 55.7173 146.637 52.1738 146.333 51.5686C145.845 50.613 141.788 54.714 141.788 54.714C141.788 54.714 146.085 50.1352 145.133 49.4504C144.181 48.7656 140.436 53.7744 140.436 53.7744C140.436 53.7744 143.637 48.8452 142.74 48.3993C141.844 47.9534 137.94 54.4751 137.94 54.4751C137.94 54.4751 137.364 50.6767 136.58 50.7404C135.26 50.8599 136.14 58.9663 136.14 58.9663L139.604 61.817C139.604 61.817 147.029 54.5945 146.493 53.8858Z" fill="#D77062"/>
<path d="M36.9871 16.8578C37.6432 16.2606 40.0594 19.2945 40.0594 19.2945C40.0594 19.2945 37.1552 15.1457 37.5712 14.6042C38.2272 13.7522 41.4515 18.5221 41.4515 18.5221C41.4515 18.5221 38.0752 13.2426 39.1393 12.7409C40.2034 12.2392 42.9557 17.8532 42.9557 17.8532C42.9557 17.8532 40.6995 12.4144 41.6836 12.1516C42.6676 11.8889 45.2919 19.0078 45.2919 19.0078C45.2919 19.0078 46.556 15.3846 47.316 15.5917C48.5962 15.942 46.2279 23.7617 46.2279 23.7617L42.2996 25.9197C42.2996 25.9197 36.3311 17.463 36.9871 16.8578Z" fill="#D77062"/>
<path d="M134.604 59.6033C136.3 61.3711 138.036 62.6611 140.54 62.9478C141.812 63.0991 141.804 61.1083 140.54 60.965C138.604 60.742 137.3 59.5396 136.012 58.1938C135.124 57.2701 133.716 58.6796 134.604 59.6033Z" fill="#4F7CA6"/>
<path d="M48.2923 23.2759C46.7762 23.2013 45.2653 23.5028 43.8953 24.1533C42.5253 24.8037 41.3392 25.7829 40.4436 27.0026C39.6435 28.0219 41.3957 29.0172 42.1638 28.0059C42.879 27.0812 43.8127 26.3466 44.8818 25.8673C45.951 25.3881 47.1225 25.179 48.2923 25.2587C49.5724 25.3224 49.5724 23.3396 48.2923 23.2759Z" fill="#4F7CA6"/>
<path d="M73.5824 76.6442C70.0991 83.5124 64.3473 88.9785 57.2929 92.1243C51.4524 94.7441 43.8758 97.1967 42.9637 104.547C42.8917 105.176 43.8838 105.176 43.9638 104.547C44.9879 96.273 55.3168 94.7043 61.2533 91.2165C66.8951 87.8694 71.4586 82.9876 74.4064 77.1458C74.6945 76.5725 73.8384 76.0708 73.5504 76.6442H73.5824Z" fill="#4F7CA6"/>
<path d="M42.9478 107.636C42.471 109.306 41.7884 110.911 40.9156 112.414C40.8673 112.526 40.8619 112.653 40.9005 112.769C40.9391 112.885 41.0189 112.983 41.1251 113.045C41.2312 113.106 41.3563 113.127 41.4769 113.103C41.5974 113.08 41.7051 113.013 41.7797 112.916C42.6979 111.331 43.4129 109.637 43.9078 107.875C43.9429 107.748 43.9259 107.613 43.8606 107.499C43.7953 107.385 43.6871 107.301 43.5598 107.266C43.4325 107.231 43.2965 107.248 43.1817 107.313C43.0669 107.378 42.9828 107.486 42.9478 107.612V107.636Z" fill="#4F7CA6"/>
<path d="M89.9679 80.355C90.904 83.3093 89.7839 86.1839 89.8159 89.178C89.9072 91.3798 90.4261 93.5431 91.344 95.5484C93.1602 99.8803 96.0164 104.077 95.4324 108.974C95.3603 109.603 96.3604 109.603 96.4324 108.974C96.9845 104.34 94.5523 100.294 92.7201 96.2333C91.616 93.7727 90.7039 91.2086 90.824 88.4693C90.96 85.6106 91.824 82.8952 90.928 80.0842C90.7359 79.479 89.7679 79.7418 89.9679 80.347V80.355Z" fill="#4F7CA6"/>
<path d="M96.4964 114.676C96.3852 115.949 96.5516 117.231 96.9844 118.434C97.2005 119.031 98.1686 118.776 97.9525 118.171C97.5465 117.053 97.3909 115.86 97.4965 114.676C97.5445 114.038 96.5524 114.038 96.4964 114.676V114.676Z" fill="#4F7CA6"/>
<path d="M87.7756 153.527C92.8321 153.44 98.4726 150.573 100.289 145.684C102.345 140.109 100.025 134.392 97.8485 129.264C97.6005 128.675 96.7444 129.184 96.9924 129.765C98.9206 134.312 100.993 139.321 99.6727 144.306C98.3526 149.291 92.8721 152.444 87.7756 152.532C87.6539 152.547 87.542 152.606 87.4609 152.698C87.3797 152.789 87.335 152.907 87.335 153.029C87.335 153.152 87.3797 153.27 87.4609 153.361C87.542 153.453 87.6539 153.512 87.7756 153.527V153.527Z" fill="#4F7CA6"/>
<path d="M39.0514 119.199C35.2671 121.898 32.2188 126.15 31.7388 130.856C31.5308 132.855 32.0428 135.077 33.843 136.239C36.0592 137.673 38.8914 135.913 41.0436 137.402C41.5717 137.768 42.0677 136.908 41.5477 136.542C40.3476 135.698 39.0994 135.746 37.6833 135.857C36.2672 135.969 34.8511 136.009 33.811 134.91C33.334 134.307 32.9976 133.607 32.826 132.859C32.6545 132.111 32.652 131.335 32.8189 130.586C33.1848 128.47 33.9721 126.449 35.1345 124.641C36.2969 122.834 37.811 121.275 39.5875 120.059C40.0995 119.692 39.5875 118.824 39.0834 119.199H39.0514Z" fill="#4F7CA6"/>
<path d="M52.9886 84.0577C56.8467 81.4615 60.1439 78.1231 62.6858 74.2392C65.2278 70.3553 66.9632 66.0044 67.7899 61.4427C67.9019 60.8216 66.9418 60.5509 66.8298 61.1799C66.0367 65.6163 64.3596 69.8499 61.8973 73.6313C59.435 77.4126 56.2373 80.6653 52.4925 83.1977C51.9645 83.556 52.4925 84.416 52.9966 84.0577H52.9886Z" fill="#4F7CA6"/>
<path d="M97.7846 69.9791C96.7794 75.7438 97.1022 81.6603 98.7287 87.2828C99.9208 91.5032 101.345 96.3049 105.457 98.5903C106.017 98.9008 106.521 98.0408 105.961 97.7302C101.905 95.4767 100.601 90.4441 99.4888 86.2794C98.0676 81.0517 97.8137 75.5777 98.7447 70.2419C98.8567 69.6128 97.8966 69.35 97.7846 69.9791V69.9791Z" fill="#4F7CA6"/>
<path d="M72.2304 82.1545C71.9454 84.0312 72.3085 85.9486 73.2604 87.5933C74.2124 89.2379 75.6967 90.5124 77.4708 91.2085C81.6632 92.8011 84.5674 90.5157 86.5276 86.9961C86.5759 86.8836 86.5813 86.7575 86.5427 86.6413C86.5041 86.5252 86.4243 86.4271 86.3181 86.3655C86.212 86.3039 86.0869 86.283 85.9663 86.3067C85.8458 86.3305 85.7381 86.3972 85.6635 86.4944C84.9355 87.8083 84.1674 89.2576 82.8313 90.0618C81.9791 90.5089 81.0303 90.7425 80.0671 90.7425C79.1038 90.7425 78.155 90.5089 77.3028 90.0618C75.8596 89.3548 74.6835 88.204 73.9486 86.7799C73.2138 85.3557 72.9591 83.7339 73.2225 82.1545C73.3105 81.5255 72.3104 81.5255 72.2304 82.1545Z" fill="#EAC2B0"/>
<path d="M49.3803 129.136C48.2842 125.872 52.7086 124.104 54.8208 122.567C60.3098 118.569 64.7974 113.364 67.9339 107.358C68.2299 106.792 67.3739 106.29 67.0778 106.856C64.4956 111.781 60.9926 116.17 56.7569 119.788C54.7888 121.46 52.5806 122.71 50.5404 124.263C48.8682 125.529 47.7001 127.273 48.4122 129.399C48.6202 130.004 49.5803 129.742 49.3803 129.136V129.136Z" fill="#EAC2B0"/>
<path d="M68.8861 100.963C68.9117 101.912 68.6313 102.844 68.086 103.623C67.726 104.156 68.5901 104.658 68.9501 104.125C69.5861 103.185 69.9106 102.071 69.8782 100.939C69.8627 100.818 69.8034 100.707 69.7114 100.626C69.6193 100.545 69.5008 100.501 69.3781 100.501C69.2554 100.501 69.1369 100.545 69.0449 100.626C68.9528 100.707 68.8935 100.818 68.8781 100.939L68.8861 100.963Z" fill="#EAC2B0"/>
<path d="M76.8706 138.835C81.879 149.697 78.9268 161.928 73.0223 171.794C71.9902 173.53 70.03 175.465 69.934 177.576C69.838 179.909 71.0221 182.513 71.3821 184.822C72.2702 190.547 71.6781 196.766 67.3018 201.027C67.2473 201.088 67.2089 201.162 67.1901 201.241C67.1714 201.321 67.1727 201.404 67.1941 201.483C67.2156 201.562 67.2563 201.634 67.3128 201.694C67.3693 201.753 67.4397 201.797 67.5178 201.823C68.7697 202.198 69.8502 202.998 70.572 204.083C71.2939 205.168 71.6116 206.47 71.4701 207.763C71.4713 207.851 71.4952 207.936 71.5396 208.011C71.5839 208.086 71.6472 208.148 71.723 208.192C71.7989 208.235 71.8849 208.258 71.9724 208.258C72.0599 208.259 72.146 208.236 72.2222 208.193C74.741 206.744 77.618 206.027 80.526 206.124C83.4339 206.221 86.2562 207.128 88.6716 208.743C88.7676 208.796 88.8781 208.818 88.9874 208.806C89.0966 208.793 89.199 208.746 89.2797 208.671C91.186 207.05 93.5519 206.06 96.0492 205.837C98.5465 205.615 101.051 206.171 103.217 207.429C103.33 207.477 103.457 207.482 103.573 207.444C103.69 207.406 103.789 207.326 103.85 207.22C103.912 207.115 103.933 206.99 103.91 206.87C103.886 206.75 103.819 206.643 103.721 206.569C101.309 205.156 98.5035 204.553 95.7202 204.849C94.4811 204.989 93.2671 205.297 92.1119 205.765C90.9838 206.235 89.5437 207.716 88.4476 207.405C87.1195 207.023 85.8954 206.091 84.5113 205.709C83.125 205.323 81.6943 205.117 80.2549 205.096C77.2465 205.059 74.2857 205.844 71.6941 207.365L72.4382 207.795C72.5842 206.284 72.1968 204.769 71.3428 203.51C70.4887 202.252 69.2212 201.329 67.7578 200.899C67.8298 201.178 67.9098 201.449 67.9818 201.696C71.6941 198.104 72.9743 192.936 72.6942 187.928C72.4145 184.973 71.9063 182.045 71.1741 179.168C70.7581 177.161 71.5261 175.983 72.5742 174.39C73.401 173.122 74.177 171.829 74.9024 170.512C80.3029 160.686 82.5431 148.869 77.7107 138.366C77.4467 137.784 76.5826 138.286 76.8466 138.867L76.8706 138.835Z" fill="#F8EBE5"/>
<path d="M48.9324 183.596C46.3962 180.673 43.8439 177.536 44.284 173.427C44.356 172.79 43.3559 172.79 43.2919 173.427C42.8199 177.775 45.5321 181.191 48.2283 184.296C48.6444 184.782 49.3484 184.073 48.9324 183.596Z" fill="#CC5B1C"/>
<path d="M48.4922 183.755C47.3961 192.841 46.764 202.181 52.4925 209.937C52.8686 210.447 53.7326 209.937 53.3566 209.436C47.7081 201.815 48.3882 192.665 49.4443 183.755C49.5163 183.126 48.5242 183.126 48.4442 183.755H48.4922Z" fill="#CC5B1C"/>
<path d="M58.3972 216.164C59.7237 217.879 61.3302 219.359 63.1496 220.544C65.2321 221.6 67.4349 222.402 69.7102 222.933C71.7263 223.514 73.8785 224.287 76.0067 223.928C78.1349 223.57 81.9352 221.324 83.9514 222.893C84.4555 223.283 85.1675 222.583 84.6555 222.192C83.2954 221.133 81.7832 221.396 80.1831 221.762C77.3908 222.352 75.2547 223.355 72.3424 222.63C69.9527 222.074 67.6032 221.358 65.3098 220.488C62.7016 219.461 60.8934 217.558 59.1013 215.488C58.6772 215.002 57.9731 215.71 58.3972 216.188V216.164Z" fill="#CC5B1C"/>
<path d="M44.3718 178.826C41.2934 182.757 37.7472 186.303 33.8109 189.385C33.7348 189.464 33.6861 189.566 33.6717 189.674C33.6573 189.783 33.678 189.894 33.7309 189.99C35.9396 194.186 36.4822 199.055 35.251 203.631C35.2298 203.753 35.2553 203.88 35.3226 203.985C35.3899 204.09 35.4942 204.167 35.6151 204.2C35.736 204.232 35.8649 204.219 35.9765 204.163C36.0882 204.106 36.1747 204.01 36.2191 203.893C36.8348 201.625 37.0434 199.266 36.8351 196.926C36.6271 194.68 35.715 192.801 35.179 190.667C34.963 189.783 34.8429 189.998 35.587 189.241C35.979 188.843 36.4671 188.517 36.8911 188.15C37.8352 187.338 38.7553 186.494 39.6514 185.618C41.5958 183.712 43.4106 181.68 45.0838 179.534C45.4679 179.033 44.7718 178.324 44.3718 178.826V178.826Z" fill="#CC5B1C"/>
<path d="M36.2431 205.024C51.4445 207.222 54.7088 231.549 71.6782 228.985C72.3103 228.881 72.0463 227.926 71.4142 228.021C62.5254 229.367 56.5409 221.348 51.7725 215.217C47.8521 210.176 43.1957 205.032 36.5152 204.069C35.8831 203.973 35.6111 204.929 36.2431 205.024Z" fill="#CC5B1C"/>
<path d="M57.405 135.045C55.2128 130.602 50.4924 125.585 45.1639 125.354C42.7637 125.25 40.8596 126.58 39.0194 127.99C37.9687 128.944 36.7166 129.651 35.3551 130.06C33.2349 130.498 31.1307 129.399 29.2986 128.467C28.1545 127.894 27.1464 129.606 28.2905 130.18C30.6267 131.342 33.2109 132.568 35.8831 131.955C38.1073 131.454 39.6995 129.797 41.4836 128.563C47.0841 124.789 53.3167 131.286 55.6529 136.024C56.2129 137.171 57.9411 136.16 57.373 135.021L57.405 135.045Z" fill="#CC5B1C"/>
<path d="M65.8778 136.638C65.4927 136.209 65.02 135.868 64.4914 135.636C63.9629 135.405 63.3906 135.289 62.8132 135.295C62.2358 135.302 61.6665 135.432 61.1435 135.676C60.6206 135.92 60.1561 136.272 59.7813 136.709C57.3811 139.297 56.861 143.016 55.1089 145.954C54.1728 147.507 52.7807 149.084 50.9565 149.562C49.1324 150.039 47.1482 148.948 45.252 148.686C43.9672 148.52 42.6625 148.754 41.5166 149.356C40.3707 149.958 39.4398 150.897 38.8515 152.046C38.2514 153.177 39.9716 154.18 40.5796 153.049C40.901 152.384 41.3911 151.814 42.0014 151.395C42.6117 150.976 43.3212 150.723 44.0599 150.66C45.7161 150.525 47.2602 151.409 48.8603 151.64C49.855 151.767 50.8656 151.678 51.8226 151.38C52.7797 151.082 53.6605 150.581 54.4048 149.912C56.1066 148.317 57.4012 146.34 58.1811 144.147C58.9812 142.259 61.3814 134.806 64.4537 138.079C65.3418 139.011 66.7499 137.601 65.8698 136.669L65.8778 136.638Z" fill="#CC5B1C"/>
<path d="M73.0143 137.832C75.1682 142.821 75.942 148.292 75.2555 153.678C74.569 159.065 72.4471 164.171 69.11 168.466C67.6059 170.433 66.2857 172.392 66.2297 174.948C66.1657 177.99 66.9738 181.087 67.1338 184.129C67.4538 190.245 66.4778 196.655 62.1014 201.266C61.9795 201.389 61.8919 201.541 61.8473 201.708C61.8026 201.876 61.8025 202.051 61.8469 202.219C61.8914 202.386 61.9788 202.538 62.1005 202.662C62.2223 202.785 62.3743 202.875 62.5414 202.922C64.2495 203.453 65.7295 204.538 66.7447 206.005C67.76 207.472 68.2519 209.235 68.1419 211.012C68.0619 212.294 70.0621 212.286 70.1341 211.012C70.2505 208.796 69.6148 206.604 68.3292 204.79C67.0436 202.976 65.1827 201.645 63.0455 201.011L63.4855 202.667C67.5659 198.367 69.086 192.562 69.166 186.741C69.166 183.229 68.5819 179.821 68.2779 176.341C67.9579 172.702 69.9901 170.719 71.9262 167.948C75.0028 163.418 76.8724 158.185 77.3594 152.738C77.8465 147.292 76.9349 141.812 74.7105 136.813C74.1904 135.65 72.4703 136.654 72.9903 137.816L73.0143 137.832Z" fill="#F8EBE5"/>
<path d="M70.3101 212.119C73.6003 210.868 77.1641 210.503 80.6412 211.063C84.1182 211.622 87.3853 213.085 90.1119 215.304C91.088 216.101 92.5121 214.723 91.52 213.903C88.5472 211.432 84.9715 209.786 81.1544 209.131C77.3373 208.477 73.4143 208.837 69.7821 210.176C68.59 210.63 69.102 212.565 70.3101 212.095V212.119Z" fill="#F8EBE5"/>
<path d="M92.2721 214.731C92.8642 212.963 95.0324 212.541 96.6645 212.278C99.114 211.815 101.633 211.858 104.065 212.406C104.318 212.466 104.584 212.426 104.808 212.295C105.031 212.163 105.195 211.95 105.263 211.701C105.332 211.451 105.3 211.185 105.175 210.959C105.05 210.732 104.841 210.563 104.593 210.487C101.482 209.771 98.2455 209.793 95.1444 210.55C93.0162 211.028 91.08 212.039 90.3439 214.205C89.9359 215.416 91.8641 215.941 92.2641 214.731H92.2721Z" fill="#F8EBE5"/>
<path d="M107.129 202.922C108.473 204.626 108.449 206.792 108.393 208.854C108.337 211.092 108.249 213.322 108.169 215.559L107.961 221.866C107.905 223.737 108.377 226.907 106.857 228.284C106.377 228.714 107.081 229.415 107.561 228.985C108.833 227.838 108.809 226.222 108.873 224.621C108.977 221.603 109.073 218.577 109.17 215.559C109.258 212.82 109.466 210.065 109.41 207.325C109.469 205.493 108.905 203.695 107.809 202.221C107.409 201.719 106.713 202.42 107.105 202.922H107.129Z" fill="#F8EBE5"/>
<path d="M77.9188 223.427C79.647 227.114 78.5989 231.047 78.2149 234.901C77.8628 238.564 79.1509 242.864 76.7827 246.05C76.3987 246.567 77.2628 247.061 77.6468 246.551C80.159 243.191 78.8309 238.795 79.2469 234.933C79.655 230.856 80.6311 226.843 78.8069 222.989C78.5429 222.407 77.6788 222.917 77.9508 223.49L77.9188 223.427Z" fill="#F8EBE5"/>
<path d="M250.014 51.035C249.464 44.5576 248.052 38.1817 245.813 32.075C244.213 32.0352 242.613 31.9476 241.053 31.8521C241.229 33.0465 241.301 34.241 241.357 35.4752C241.453 37.6491 241.549 39.831 241.773 41.997C242.301 47.0296 242.893 52.0542 243.477 57.0789C243.579 57.9013 243.426 58.735 243.037 59.4678C241.181 63.2264 239.621 67.1283 237.501 70.7594C237.151 71.437 236.847 72.1366 236.589 72.8537C236.589 73.0136 236.616 73.1724 236.669 73.3235C238.362 76.0629 239.911 78.8883 241.309 81.7882C241.349 81.8758 241.469 81.9315 241.549 81.9952C242.862 80.7556 243.902 79.259 244.605 77.5996C245.949 74.8604 247.078 72.0255 248.158 69.1668C249.402 66.0808 250.197 62.8335 250.518 59.5236C250.604 56.6848 250.435 53.844 250.014 51.035V51.035Z" fill="#D77062"/>
<path d="M273.904 177.982C273.368 173.26 270.976 168.378 265.751 167.67C262.831 167.398 259.903 168.11 257.438 169.692C251.694 173.108 242.389 184.026 236.733 174.39C234.804 171.11 233.852 167.096 233.052 163.425C231.244 155.16 229.62 146.854 227.588 138.636C227.3 137.84 227.028 137.044 226.788 136.247C220.064 137.384 213.268 138.041 206.45 138.214C200.091 138.455 193.741 137.566 187.696 135.586C186.6 135.236 185.496 134.941 184.392 134.615C175.063 146.05 168.711 158.99 161.934 171.97C155.782 183.747 146.405 193.382 139.068 204.387C132.579 214.134 124.531 228.969 133.028 239.902C134.158 241.287 135.388 242.589 136.708 243.796C138.111 244.995 139.696 245.965 141.404 246.671C142.204 246.798 143.004 246.973 143.804 247.029C151.949 247.586 158.27 244.075 163.174 237.959C166.259 233.989 168.801 229.63 170.735 224.995C174.487 216.459 177.591 207.668 180.992 198.996C183.225 193.132 186.335 187.636 190.217 182.696C191.529 181.017 193.18 179.63 195.065 178.627C200.089 175.959 204.162 179.423 205.986 184.042C209.762 193.533 212.786 203.543 220.203 211.004C224.388 215.217 230.004 218.29 235.957 218.45C248.478 218.768 261.503 207.429 268.951 198.375C272.152 194.505 274.744 185.316 273.904 177.982Z" fill="#1F2241"/>
<path d="M233.58 71.9301C233.393 72.0825 233.214 72.2447 233.044 72.4158C232.286 73.2022 231.485 73.9465 230.644 74.6454C228.781 76.1519 227.062 77.8259 225.508 79.6462C225.312 79.8726 225.064 80.0492 224.786 80.1614C224.508 80.2736 224.206 80.3181 223.907 80.2912C221.947 80.339 219.979 80.3629 218.027 80.5301C216.939 80.6177 215.187 79.5905 214.555 80.7531C214.483 80.8885 214.827 81.8201 214.627 81.8918C214.609 82.4869 214.473 83.0726 214.225 83.6144C213.977 84.1562 213.622 84.6432 213.183 85.0468C212.743 85.4503 212.226 85.7624 211.664 85.9645C211.101 86.1666 210.504 86.2547 209.906 86.2237C207.458 86.2237 205.81 84.3842 205.714 81.6211C205.37 80.9044 204.762 80.8248 204.058 80.9362C201.017 81.3583 197.953 81.0636 194.913 81.2548C192.985 81.3742 191.041 79.4073 189.68 78.2607C186.88 75.8718 184.256 75.2825 181.304 73.1404C181.008 72.9254 180.744 72.583 180.184 72.798C179.72 74.6216 179.232 76.5088 178.751 78.3721L176.783 88.4374C176.343 89.9185 177.063 90.9298 178.175 91.766C178.663 92.1243 179.144 92.4747 179.64 92.8091C182.24 94.534 185.108 95.82 188.128 96.6154C188.313 96.6358 188.491 96.6945 188.652 96.7878C188.812 96.881 188.951 97.0068 189.06 97.1569C189.169 97.307 189.244 97.4781 189.282 97.6592C189.32 97.8403 189.32 98.0272 189.28 98.208C189.144 100.764 188.992 103.32 188.632 105.853C187.992 110.328 187.288 114.787 185.656 119.047C184.176 122.901 182.96 126.859 181.104 130.578C180.4 131.987 180.72 132.752 182.128 133.516C182.84 133.906 183.584 134.249 184.312 134.607C185.416 134.934 186.52 135.228 187.616 135.579C193.661 137.558 200.011 138.448 206.37 138.206C213.702 138.039 221.01 137.283 228.22 135.945C231.972 134.137 232.308 133.365 231.276 129.288C230.019 124.603 229.273 119.798 229.052 114.954C228.892 109.667 229.348 104.403 229.356 99.1238C229.306 98.5647 229.446 98.0052 229.751 97.5337C230.057 97.0621 230.512 96.7054 231.044 96.5199C232.586 95.8254 234.055 94.9798 235.428 93.9956C238.269 91.8615 240.021 88.9391 241.629 85.8813C241.894 85.4553 242.07 84.9802 242.145 84.4848C242.221 83.9894 242.195 83.4838 242.069 82.9987C239.442 79.1598 236.608 75.4648 233.58 71.9301V71.9301Z" fill="#E8A628"/>
<path d="M177.024 76.5008C175.541 74.5456 173.938 72.6839 172.223 70.9267C170.783 69.4297 169.511 67.7893 168.167 66.2126C167.605 65.6106 167.269 64.8345 167.215 64.0148C167.063 60.1448 166.255 56.3544 165.919 52.5003C165.543 48.2241 164.862 43.9639 164.278 39.7117C164.121 37.3665 164.291 35.011 164.782 32.7122C163.326 33.2616 161.414 36.4309 159.982 36.1283C160.008 36.5814 159.978 37.0359 159.894 37.482C159.038 42.1961 158.126 46.9023 157.638 51.6801C157.11 56.8401 157.366 61.9046 159.494 66.7302C160.59 69.2226 161.734 71.6991 162.878 74.1756C163.14 74.7135 163.447 75.2278 163.798 75.7125C167.295 80.8248 171.799 84.8859 176.84 88.4534L178.808 78.3881C178.089 77.8873 177.482 77.2449 177.024 76.5008V76.5008Z" fill="#D77062"/>
<path d="M214.683 81.8917C214.665 82.4869 214.529 83.0725 214.281 83.6143C214.033 84.1561 213.679 84.6431 213.239 85.0467C212.799 85.4503 212.283 85.7623 211.72 85.9644C211.157 86.1665 210.56 86.2546 209.962 86.2236C207.514 86.2236 205.866 84.3842 205.77 81.621C206.541 81.2229 207.166 80.591 207.553 79.8166C207.939 79.0422 208.069 78.1654 207.922 77.313C207.886 77.1293 207.808 76.9563 207.694 76.8072C207.581 76.6582 207.434 76.537 207.266 76.453C206.428 75.9356 205.722 75.2325 205.202 74.3985C204.594 73.443 204.322 72.2804 202.802 72.1131C202.002 72.0255 201.69 70.9824 201.714 70.1303C201.714 69.0314 202.09 68.0918 203.314 67.7972C204.114 68.3148 204.674 68.1237 204.914 67.2238C204.936 67.0628 204.991 66.9078 205.074 66.7679C205.157 66.628 205.268 66.506 205.399 66.4089C205.53 66.3119 205.679 66.2417 205.837 66.2025C205.996 66.1633 206.161 66.1559 206.322 66.1807C206.802 66.1807 207.282 65.9497 207.77 65.9259C208.765 65.9519 209.74 65.6394 210.532 65.0401C211.325 64.4408 211.889 63.5903 212.131 62.6292C212.131 62.5575 212.307 62.5256 212.443 62.454C212.85 62.6665 213.197 62.9779 213.452 63.3592C213.706 63.7406 213.86 64.1797 213.899 64.6359C214.147 65.8064 214.299 67.0248 214.555 68.1635C214.883 69.6446 215.355 69.8676 216.883 69.4455C218.115 70.1224 218.219 71.2133 217.883 72.3839C217.777 72.8974 217.486 73.3544 217.064 73.6685C216.642 73.9825 216.12 74.1318 215.595 74.088C215.326 74.0541 215.054 74.1069 214.817 74.2388C214.581 74.3707 214.394 74.5747 214.283 74.8206C214.111 75.096 213.924 75.3619 213.723 75.6169C213.339 76.1743 212.475 76.4132 212.587 77.2891C212.609 78.5432 212.998 79.7637 213.707 80.8008C214.027 81.1671 214.355 81.5254 214.683 81.8917Z" fill="#D77062"/>
<path d="M133.004 239.926C134.134 241.311 135.364 242.613 136.684 243.82C138.087 245.019 139.672 245.989 141.38 246.695C141.189 246.723 141.016 246.82 140.891 246.966C140.766 247.113 140.698 247.299 140.7 247.491C140.639 248.306 140.53 249.117 140.372 249.92C139.676 253.208 137.54 254.546 134.356 253.049C132.579 252.213 131.339 250.708 129.931 249.442C128.451 248.067 126.774 246.918 124.955 246.034C123.352 245.333 121.821 244.477 120.386 243.478C119.745 243.067 119.199 242.523 118.786 241.885C118.549 241.515 118.412 241.089 118.388 240.651C118.365 240.212 118.456 239.774 118.652 239.381C118.849 238.988 119.144 238.651 119.51 238.405C119.875 238.159 120.298 238.011 120.738 237.975C121.503 237.893 122.277 237.939 123.027 238.111C125.643 238.676 128.267 239.194 130.883 239.759C131.584 239.878 132.293 239.934 133.004 239.926V239.926Z" fill="#6297D4"/>
<path d="M273.464 178.029C273.216 176.867 273.032 175.696 272.72 174.55C271.552 170.146 269.008 167.582 264.191 167.566C263.976 167.549 263.762 167.517 263.551 167.47C264.217 166.538 265.115 165.795 266.158 165.313C267.2 164.831 268.35 164.628 269.496 164.723C271.033 164.829 272.515 165.337 273.792 166.196C274.976 166.993 276.096 167.789 277.232 168.689C279.24 170.21 281.593 171.157 283.777 172.392C284.659 172.818 285.484 173.353 286.233 173.984C288.009 175.664 288.001 177.456 286.121 179.001C285.515 179.513 284.802 179.882 284.033 180.082C283.264 180.282 282.46 180.307 281.681 180.156C278.865 179.78 276.106 179.066 273.464 178.029V178.029Z" fill="#6297D4"/>
<path d="M216.219 68.9678C216.023 68.974 215.83 69.0173 215.651 69.0952C215.571 64.3811 212.915 60.5986 209.642 60.5986C206.698 60.5986 204.258 63.6485 203.73 67.6778C203.629 67.67 203.527 67.67 203.426 67.6778C202.338 67.6778 201.458 68.92 201.458 70.4569C201.458 71.9937 202.338 73.2439 203.426 73.2439C203.709 73.2499 203.987 73.1723 204.226 73.021C205.026 76.4928 207.266 78.0695 209.682 78.0695C211.818 78.0695 213.683 76.4769 214.763 74.0163C214.918 74.2776 215.136 74.4964 215.397 74.6534C215.658 74.8104 215.954 74.9007 216.259 74.9162C217.411 74.9162 218.347 73.5943 218.347 71.9619C218.347 70.3295 217.371 68.9678 216.219 68.9678Z" fill="#D77062"/>
<path d="M216.851 69.143C216.502 69.053 216.133 69.0826 215.804 69.2271C215.474 69.3716 215.203 69.6225 215.035 69.9393C214.593 68.2773 214.261 66.5882 214.043 64.8828C213.715 65.3812 213.266 65.7888 212.737 66.0674C212.208 66.3459 211.617 66.4863 211.018 66.4754C209.823 66.4452 208.642 66.2053 207.53 65.7667C207.611 66.1796 207.606 66.6048 207.515 67.0157C207.424 67.4266 207.25 67.8146 207.002 68.1556C206.771 68.5039 206.446 68.781 206.065 68.9553C205.684 69.1297 205.261 69.1944 204.845 69.1422C204.429 69.09 204.036 68.923 203.71 68.66C203.384 68.397 203.139 68.0485 203.002 67.6539C202.703 66.9018 202.703 66.0649 203.002 65.3128C202.412 65.2459 201.848 65.0311 201.364 64.6885C200.88 64.346 200.491 63.8868 200.234 63.3539C199.733 62.2699 199.645 61.0418 199.985 59.8979C200.08 59.4913 200.27 59.1123 200.538 58.7911C201.146 58.2685 201.926 57.9853 202.73 57.9948C202.156 57.5828 201.715 57.0128 201.462 56.355C201.209 55.6972 201.155 54.9801 201.306 54.292C201.483 53.6004 201.858 52.9746 202.384 52.4901C202.911 52.0055 203.567 51.6827 204.274 51.5607C204.813 51.4575 205.37 51.5186 205.874 51.7358C206.121 51.844 206.342 52.0038 206.521 52.2044C206.701 52.405 206.835 52.6417 206.914 52.8984C206.632 51.9686 206.487 51.003 206.482 50.0318C206.483 49.093 206.818 48.1849 207.426 47.4677C208.005 46.8735 208.759 46.4776 209.578 46.3369C210.6 46.1636 211.65 46.2985 212.594 46.7242C213.538 47.15 214.332 47.8471 214.875 48.7258C215.987 50.6131 215.763 52.9701 215.387 55.0962C215.163 56.4101 214.891 57.7161 214.587 59.014C214.676 58.874 214.794 58.7543 214.933 58.6625C215.072 58.5707 215.229 58.5089 215.393 58.4812C215.557 58.4534 215.726 58.4603 215.887 58.5013C216.049 58.5423 216.2 58.6166 216.331 58.7194C216.864 59.164 217.228 59.7765 217.363 60.4554C218.181 63.3259 218.001 66.3874 216.851 69.143V69.143Z" fill="#E8A628"/>
<path d="M251.398 26.8434C250.862 26.1347 247.926 28.6749 247.926 28.6749C247.926 28.6749 251.542 25.1234 251.238 24.5182C250.75 23.5626 246.693 27.6636 246.693 27.6636C246.693 27.6636 250.99 23.0848 250.038 22.4C249.086 21.7152 245.341 26.7239 245.341 26.7239C245.341 26.7239 248.542 21.7948 247.646 21.3569C246.749 20.9189 242.845 27.4247 242.845 27.4247C242.845 27.4247 242.269 23.6263 241.485 23.698C240.165 23.8095 241.045 31.9238 241.045 31.9238L244.509 34.7666C244.509 34.7666 251.934 27.5441 251.398 26.8434Z" fill="#D77062"/>
<path d="M154.357 30.1002C154.966 29.4472 157.63 32.2741 157.63 32.2741C157.63 32.2741 154.429 28.3722 154.758 27.8068C155.342 26.907 158.958 31.3902 158.958 31.3902C158.958 31.3902 155.15 26.4053 156.166 25.8161C157.182 25.2268 160.398 30.5939 160.398 30.5939C160.398 30.5939 157.694 25.3702 158.654 25.0198C159.614 24.6694 162.838 31.5495 162.838 31.5495C162.838 31.5495 163.798 27.8307 164.574 27.9741C165.878 28.2209 164.174 36.1999 164.174 36.1999L160.438 38.6843C160.438 38.6843 153.757 30.7452 154.357 30.1002Z" fill="#D77062"/>
<path d="M178.543 71.309C177.501 77.6056 175.938 83.8059 173.871 89.8469C173.071 92.2756 176.895 93.3108 177.719 90.906C179.782 84.8612 181.345 78.6585 182.392 72.3601C182.517 71.8538 182.442 71.319 182.183 70.8658C181.924 70.4126 181.501 70.0753 181 69.9234C180.49 69.7883 179.947 69.8578 179.487 70.1169C179.028 70.3759 178.689 70.804 178.543 71.309V71.309Z" fill="#D88F25"/>
<path d="M232.428 71.1497C235.415 75.8956 238.402 80.639 241.389 85.3796L244.517 82.9907L244.133 82.6244C242.301 80.8327 239.477 83.6437 241.317 85.4274L241.701 85.8017C243.301 87.3385 246.061 85.3478 244.829 83.4128C241.848 78.6668 238.861 73.9208 235.868 69.1749C235.594 68.7284 235.157 68.4051 234.648 68.273C234.139 68.1408 233.599 68.21 233.14 68.4661C232.689 68.7363 232.361 69.1718 232.228 69.6793C232.095 70.1869 232.167 70.7261 232.428 71.1815V71.1497Z" fill="#D88F25"/>
<path d="M211.139 72.9016C211.06 73.4606 210.773 73.97 210.336 74.3297C209.899 74.6894 209.343 74.8734 208.776 74.8454C208.21 74.8175 207.674 74.5797 207.275 74.1787C206.875 73.7778 206.641 73.2427 206.618 72.6786L211.139 72.9016Z" fill="white"/>
<path d="M208.082 110.256C204.828 114.083 201.039 117.427 196.833 120.186C195.769 120.887 196.761 122.575 197.841 121.898C202.198 119.058 206.121 115.61 209.49 111.658C209.67 111.468 209.771 111.218 209.771 110.957C209.771 110.696 209.67 110.445 209.49 110.256C209.302 110.073 209.049 109.971 208.786 109.971C208.523 109.971 208.27 110.073 208.082 110.256V110.256Z" fill="#D88F25"/>
<path d="M216.811 101.019L216.355 101.64L216.139 101.919C215.971 102.134 216.211 101.831 216.139 101.959C216.067 102.086 216.067 102.046 216.027 102.094C215.707 102.5 215.379 102.89 215.035 103.288C214.371 104.085 213.667 104.817 212.939 105.534C212.752 105.72 212.647 105.972 212.647 106.235C212.647 106.498 212.752 106.75 212.939 106.935C213.125 107.121 213.379 107.226 213.643 107.226C213.907 107.226 214.16 107.121 214.347 106.935C215.888 105.415 217.298 103.769 218.563 102.014C218.629 101.902 218.672 101.778 218.69 101.649C218.707 101.52 218.699 101.389 218.666 101.263C218.632 101.137 218.574 101.019 218.495 100.916C218.415 100.812 218.316 100.726 218.203 100.661C217.972 100.534 217.702 100.5 217.447 100.567C217.192 100.634 216.973 100.796 216.835 101.019H216.811Z" fill="#D88F25"/>
<path d="M194.105 137.482C191.473 142.57 190.729 148.144 190.265 153.782C189.775 159.892 189.754 166.031 190.201 172.145C190.249 172.774 191.249 172.782 191.201 172.145C190.773 166.292 190.773 160.415 191.201 154.562C191.625 148.853 192.297 143.143 194.969 137.983C195.265 137.418 194.401 136.916 194.105 137.482V137.482Z" fill="#6395CE"/>
<path d="M199.705 138.437C196.985 150.183 197.121 162.605 199.169 174.438C199.281 175.067 200.241 174.804 200.129 174.175C198.121 162.525 197.993 150.286 200.665 138.7C200.809 138.079 199.865 137.816 199.705 138.437Z" fill="#6395CE"/>
<path d="M187.704 173.132C190.833 172.75 194.297 172.63 197.305 173.713C199.421 174.545 201.252 175.966 202.578 177.806C205.346 181.398 206.818 185.881 207.874 190.229C208.026 190.85 208.986 190.587 208.842 189.966C207.722 185.355 206.114 180.601 203.09 176.859C201.694 175.042 199.827 173.638 197.689 172.798C194.577 171.643 190.945 171.747 187.704 172.137C187.072 172.216 187.072 173.212 187.704 173.132V173.132Z" fill="#6395CE"/>
<path d="M212.851 139.003C214.715 143.151 216.667 147.396 219.787 150.78C222.699 153.965 227.284 156.792 231.708 155.176C232.308 154.961 232.052 153.997 231.444 154.22C227.052 155.813 222.643 152.627 219.931 149.442C217.219 146.257 215.427 142.315 213.707 138.501C213.451 137.92 212.587 138.429 212.851 139.003V139.003Z" fill="#6395CE"/>
<path d="M189.304 136.59C187.416 140.197 185.488 143.908 182.544 146.783C181.21 148.104 179.653 149.183 177.943 149.968C177.074 150.363 176.161 150.654 175.223 150.836C174.394 150.882 173.598 151.179 172.943 151.688C172.479 152.126 173.183 152.834 173.647 152.388C174.335 151.743 175.623 151.799 176.503 151.552C177.377 151.299 178.224 150.96 179.031 150.541C180.664 149.69 182.149 148.585 183.432 147.268C186.336 144.354 188.232 140.667 190.168 137.06C190.464 136.494 189.6 135.993 189.304 136.558V136.59Z" fill="#6395CE"/>
<path d="M193.585 173.419C184.24 180.809 178.016 191.192 172.887 201.743C167.423 212.987 163.078 225.362 153.773 234.169C151.414 236.429 148.738 238.336 145.829 239.83C142.492 241.503 138.628 242.705 134.916 241.654C134.788 241.619 134.652 241.636 134.538 241.701C134.423 241.766 134.339 241.874 134.304 242C134.269 242.127 134.286 242.262 134.351 242.377C134.416 242.491 134.524 242.575 134.652 242.61C140.492 244.258 146.789 241.017 151.325 237.545C155.985 233.849 159.911 229.32 162.902 224.191C166.463 218.338 169.151 212.024 172.039 205.828C174.564 200.254 177.456 194.851 180.696 189.655C184.333 183.774 188.93 178.537 194.297 174.159C194.801 173.761 194.089 173.06 193.593 173.459L193.585 173.419Z" fill="#6395CE"/>
<path d="M226.452 155.136C227.753 161.809 229.055 168.484 230.356 175.163C230.58 176.317 230.66 177.552 231.7 178.268C232.74 178.985 233.932 179.439 234.989 180.1C237.299 181.509 239.33 183.328 240.981 185.467C242.805 187.793 243.847 190.632 243.957 193.581C243.973 193.702 244.032 193.814 244.124 193.894C244.216 193.975 244.335 194.02 244.457 194.02C244.58 194.02 244.699 193.975 244.791 193.894C244.883 193.814 244.942 193.702 244.957 193.581C244.845 188.525 241.893 184.153 238.045 181.055C237.075 180.275 236.051 179.564 234.981 178.929C233.82 178.236 232.004 177.775 231.612 176.373C231.164 174.78 230.964 173.06 230.644 171.436L229.668 166.427L227.412 154.873C227.292 154.244 226.332 154.507 226.452 155.136V155.136Z" fill="#6395CE"/>
<path d="M244.069 188.174C248.455 183.166 253.597 178.868 259.311 175.433C264.223 172.495 272.744 167.415 277.76 172.774C278.2 173.244 278.904 172.543 278.472 172.073C274.656 168.004 268.727 169.557 264.319 171.627C256.322 175.418 249.191 180.8 243.365 187.442C242.941 187.92 243.645 188.628 244.069 188.15V188.174Z" fill="#6395CE"/>
<path d="M118.402 240.555C122.486 242.149 126.373 244.204 129.987 246.679C131.699 247.849 133.276 249.179 134.916 250.429C136.412 251.568 138.028 252.444 139.956 252.173C140.588 252.086 140.324 251.13 139.692 251.218C137.492 251.528 135.692 249.76 134.092 248.502C132.554 247.267 130.951 246.113 129.291 245.046C125.935 242.873 122.364 241.048 118.634 239.6C118.034 239.369 117.77 240.324 118.362 240.555H118.402Z" fill="#F8EBE5"/>
<path d="M125.771 236.733C126.343 238.31 126.712 239.953 126.867 241.622C126.871 241.752 126.925 241.875 127.017 241.967C127.109 242.059 127.233 242.112 127.363 242.116C127.495 242.116 127.623 242.064 127.717 241.972C127.811 241.879 127.865 241.754 127.867 241.622C127.71 239.864 127.328 238.133 126.731 236.47C126.692 236.345 126.607 236.239 126.492 236.174C126.378 236.109 126.243 236.09 126.115 236.12C126.052 236.137 125.993 236.167 125.941 236.207C125.889 236.248 125.846 236.298 125.814 236.355C125.782 236.412 125.762 236.475 125.755 236.54C125.747 236.604 125.753 236.67 125.771 236.733V236.733Z" fill="#F8EBE5"/>
<path d="M127.891 236.733C128.272 238.784 128.917 240.778 129.811 242.665C129.844 242.722 129.887 242.771 129.939 242.811C129.991 242.851 130.05 242.88 130.113 242.897C130.176 242.914 130.242 242.919 130.307 242.91C130.372 242.902 130.435 242.881 130.491 242.848C130.548 242.816 130.598 242.773 130.638 242.721C130.678 242.67 130.707 242.611 130.724 242.548C130.741 242.485 130.746 242.42 130.737 242.355C130.729 242.29 130.708 242.228 130.675 242.172C129.823 240.357 129.21 238.441 128.851 236.47C128.814 236.344 128.729 236.237 128.614 236.172C128.499 236.106 128.363 236.088 128.235 236.12C128.111 236.16 128.006 236.246 127.943 236.359C127.879 236.473 127.861 236.606 127.891 236.733V236.733Z" fill="#F8EBE5"/>
<path d="M266.399 165.416C268.503 165.464 270.136 166.857 271.648 168.163C273.038 169.431 274.58 170.522 276.24 171.412C279.752 173.204 283.777 174.175 286.641 176.986C287.105 177.432 287.809 176.731 287.345 176.286C284.305 173.331 280.144 172.344 276.448 170.417C274.643 169.352 272.953 168.103 271.408 166.69C269.935 165.48 268.335 164.468 266.367 164.421C266.245 164.436 266.134 164.495 266.052 164.587C265.971 164.678 265.927 164.796 265.927 164.918C265.927 165.04 265.971 165.158 266.052 165.25C266.134 165.342 266.245 165.401 266.367 165.416H266.399Z" fill="#F8EBE5"/>
<path d="M181.424 76.1345C185.429 78.3664 189.184 81.0171 192.625 84.0418C193.105 84.4638 193.817 83.7631 193.329 83.3411C189.834 80.2575 186.017 77.5558 181.944 75.2825C181.83 75.2159 181.695 75.197 181.567 75.2299C181.44 75.2627 181.331 75.3447 181.264 75.4577C181.197 75.5706 181.178 75.7054 181.211 75.8324C181.244 75.9593 181.326 76.068 181.44 76.1345H181.424Z" fill="#F8EBE5"/>
<path d="M192.873 84.2727C197.592 83.994 202.325 84.0658 207.034 84.4877C207.674 84.5435 207.666 83.5481 207.034 83.4923C202.325 83.0731 197.592 83.0039 192.873 83.2853C192.233 83.2853 192.225 84.3125 192.873 84.2727V84.2727Z" fill="#F8EBE5"/>
<path d="M181.896 74.0084C185.842 75.9274 189.477 78.4236 192.681 81.414C193.145 81.844 193.849 81.1433 193.385 80.7053C190.12 77.6565 186.415 75.1119 182.392 73.1564C181.824 72.8697 181.312 73.7297 181.896 74.0084V74.0084Z" fill="#F8EBE5"/>
<path d="M193.305 81.5175H205.466C205.588 81.5021 205.7 81.4431 205.781 81.3515C205.862 81.2598 205.907 81.1419 205.907 81.0198C205.907 80.8977 205.862 80.7797 205.781 80.6881C205.7 80.5965 205.588 80.5375 205.466 80.5221H193.305C193.183 80.5375 193.071 80.5965 192.99 80.6881C192.909 80.7797 192.864 80.8977 192.864 81.0198C192.864 81.1419 192.909 81.2598 192.99 81.3515C193.071 81.4431 193.183 81.5021 193.305 81.5175V81.5175Z" fill="#F8EBE5"/>
<path d="M214.611 81.2468C218.083 81.0929 221.55 81.0557 225.012 81.1353L224.756 80.2116L224.516 80.3948C224.019 80.777 224.516 81.637 225.02 81.2468L225.26 81.0637C225.35 81.0063 225.419 80.9219 225.458 80.8226C225.497 80.7233 225.503 80.6144 225.475 80.5115C225.447 80.4087 225.388 80.3172 225.304 80.2504C225.221 80.1836 225.118 80.1449 225.012 80.1399C221.539 80.0656 218.072 80.1028 214.611 80.2514C213.971 80.2514 213.971 81.2787 214.611 81.2468Z" fill="#F8EBE5"/>
<path d="M225.26 80.9043C227.691 77.6272 230.716 74.8319 234.18 72.6626C234.724 72.3202 234.22 71.4602 233.676 71.8026C230.073 74.0713 226.926 76.9876 224.395 80.4026C224.019 80.9123 224.884 81.4139 225.26 80.9043V80.9043Z" fill="#F8EBE5"/>
<path d="M214.219 83.7471L226.388 82.9508C227.02 82.9508 227.028 81.9236 226.388 81.9634L214.219 82.7119C213.579 82.7119 213.571 83.7471 214.219 83.7073V83.7471Z" fill="#F8EBE5"/>
<path d="M226.188 82.9986C228.831 79.7143 232.092 76.9744 235.789 74.932C236.349 74.6215 235.845 73.7615 235.285 74.072C231.5 76.1542 228.158 78.9478 225.444 82.2978C225.044 82.7915 225.748 83.4923 226.148 82.9986H226.188Z" fill="#F8EBE5"/>
<path d="M204.714 80.777C204.852 81.5171 204.951 82.264 205.01 83.0146C205.118 83.7586 205.46 84.4496 205.986 84.9894C207.042 86.0405 208.642 86.2396 210.066 86.2874C211.73 86.3431 213.355 85.9609 214.403 84.5833C215.451 83.2057 215.571 81.3981 215.603 79.7418C215.58 79.4942 215.466 79.2638 215.281 79.0961C215.097 78.9283 214.856 78.8353 214.607 78.8353C214.357 78.8353 214.116 78.9283 213.932 79.0961C213.747 79.2638 213.633 79.4942 213.611 79.7418C213.611 80.9601 213.611 82.3457 212.81 83.3729C212.01 84.4001 210.946 84.3444 209.89 84.2966C209.01 84.2568 207.858 84.1851 207.274 83.5003C207.019 83.1115 206.88 82.6586 206.874 82.1944C206.839 81.5401 206.748 80.8901 206.602 80.2514C206.514 80.0195 206.342 79.8288 206.12 79.7164C205.898 79.6041 205.642 79.5782 205.401 79.644C205.161 79.7097 204.954 79.8623 204.821 80.0718C204.688 80.2814 204.638 80.5328 204.682 80.777H204.714Z" fill="#F8EBE5"/>
<path d="M277.88 174.924V180.219C277.88 180.35 277.933 180.476 278.026 180.568C278.119 180.661 278.245 180.713 278.376 180.713C278.508 180.713 278.634 180.661 278.727 180.568C278.82 180.476 278.872 180.35 278.872 180.219V174.924C278.872 174.793 278.82 174.667 278.727 174.575C278.634 174.482 278.508 174.43 278.376 174.43C278.245 174.43 278.119 174.482 278.026 174.575C277.933 174.667 277.88 174.793 277.88 174.924Z" fill="#F8EBE5"/>
<path d="M281.513 177.942C281.281 178.897 281.105 179.869 280.969 180.848C280.969 180.981 281.022 181.109 281.116 181.203C281.211 181.297 281.339 181.35 281.473 181.35C281.604 181.344 281.727 181.289 281.819 181.196C281.911 181.103 281.965 180.979 281.969 180.848C281.969 180.92 281.969 180.761 281.969 180.737V180.578C281.969 180.466 281.969 180.347 282.025 180.227C282.081 180.108 282.097 179.781 282.145 179.558C282.225 179.104 282.329 178.651 282.433 178.205C282.467 178.078 282.451 177.943 282.386 177.828C282.322 177.713 282.215 177.629 282.089 177.591C281.96 177.561 281.826 177.581 281.711 177.646C281.597 177.711 281.512 177.817 281.473 177.942H281.513Z" fill="#F8EBE5"/>
<path d="M341.55 64.421C339.361 63.4195 337.441 61.9159 335.949 60.0333C333.788 57.3776 332.716 54.0067 332.949 50.5971C333.02 49.0806 333.638 47.6403 334.688 46.5393C335.738 45.4384 337.151 44.7504 338.669 44.601C340.472 44.3589 342.307 44.6352 343.958 45.3973C344.958 45.8432 345.966 46.2653 346.942 46.759C347.554 47.0762 348.248 47.2026 348.933 47.1216C349.618 47.0406 350.262 46.7561 350.782 46.3051C352.49 45.0916 353.78 43.3846 354.479 41.4158C355.279 39.3215 355.991 37.2113 356.799 35.125C357.749 32.544 359.413 30.283 361.599 28.6033C365.264 25.8242 369.776 25.6808 373.168 28.2449C374.642 29.317 375.706 30.8558 376.185 32.6087C376.369 33.2855 376.537 33.9783 376.777 34.6472C376.943 35.2103 377.222 35.7341 377.596 36.1875C377.971 36.6409 378.433 37.0144 378.956 37.2858C379.479 37.5571 380.051 37.7207 380.639 37.7667C381.227 37.8128 381.818 37.7403 382.377 37.5537C383.953 37.0633 385.409 36.2495 386.65 35.1648C387.708 34.3025 388.693 33.3543 389.594 32.3299C391.373 30.3255 393.464 28.6182 395.786 27.2734C402.987 23.2441 411.404 24.5421 417.172 32.0513C421.813 38.1032 419.188 46.1777 415.244 49.7531C413.718 51.1663 411.948 52.2939 410.02 53.0816C406.211 54.6185 402.395 56.1235 398.595 57.6524C397.987 57.8913 397.387 58.17 396.795 58.4487C393.754 59.9139 392.25 62.4302 391.93 65.695C391.738 67.646 391.586 69.6049 391.354 71.5479C391.141 73.4267 390.545 75.2427 389.605 76.8854C388.664 78.5282 387.397 79.9633 385.882 81.1035C384.588 82.2273 382.946 82.8765 381.23 82.9431C379.514 83.0098 377.827 82.4898 376.449 81.4698C374.913 80.4266 373.48 79.2322 372.008 78.1014C370.985 77.2798 369.887 76.5547 368.728 75.9355C367.168 75.1392 366.488 75.2746 365.232 76.5487C364.656 77.13 364.12 77.7511 363.512 78.2925C361.007 80.5142 358.135 80.4426 355.727 78.1572C354.484 76.8527 353.382 75.4222 352.439 73.889C353.191 72.9095 353.919 72.0336 355.335 71.8186C355.903 71.7099 356.418 71.4159 356.799 70.9833C357.18 70.5507 357.405 70.004 357.439 69.4297C357.52 69.0794 357.486 68.7125 357.342 68.3828C357.198 68.0532 356.952 67.7781 356.639 67.5982C356.385 67.4505 356.089 67.3929 355.798 67.4349C355.508 67.4768 355.24 67.6159 355.039 67.8291C354.998 67.8819 354.946 67.9257 354.887 67.9577C354.828 67.9898 354.764 68.0094 354.697 68.0154C354.63 68.0214 354.563 68.0136 354.499 67.9925C354.435 67.9714 354.377 67.9375 354.327 67.8928C353.639 66.77 353.927 65.5039 354.327 64.2697C354.423 63.9671 354.551 63.5928 354.287 63.3539C354.023 63.115 353.679 63.3539 353.439 63.5609C351.231 65.3128 347.214 64.2776 345.718 62.3904C345.623 62.2027 345.491 62.0357 345.33 61.899C345.169 61.7623 344.983 61.6587 344.782 61.5941C344.217 62.1545 343.763 62.8165 343.446 63.545C343.046 64.4926 342.486 64.7873 341.55 64.421Z" fill="#1F2241"/>
<path d="M345.518 75.7125C345.49 75.814 345.453 75.9126 345.406 76.0071C344.71 77.4826 343.851 78.8767 342.846 80.1638C342.658 80.3952 342.408 80.5693 342.125 80.6664C341.842 80.7635 341.537 80.7798 341.246 80.7133C337.349 80.4903 327.133 82.075 323.364 82.927C326.525 86.9085 340.118 92.9604 345.094 93.6054C355.015 94.8954 363.632 91.6624 368.92 89.4646C363.461 86.6958 357.852 84.2288 352.119 82.075C351.746 82.0063 351.405 81.8223 351.143 81.5492C350.882 81.2761 350.714 80.9278 350.663 80.554C350.471 79.479 350.175 78.4359 349.991 77.3688C349.856 76.8275 349.81 76.2683 349.855 75.7125C351.371 75.0498 352.661 73.9625 353.567 72.583L353.719 72.4715H353.759C355.031 73.451 357.031 72.9891 358.231 71.4443C359.431 69.8995 359.367 67.853 358.095 66.8815C357.745 66.6264 357.338 66.4599 356.909 66.396C356.479 66.3322 356.041 66.3731 355.631 66.5152C355.951 62.0559 353.815 58.1779 350.407 57.4772C346.574 56.6809 342.614 60.2005 341.55 65.3208C340.606 69.9871 342.35 74.3349 345.518 75.7125Z" fill="#D77062"/>
<path d="M341.198 62.7009C341.353 63.2084 341.599 63.6834 341.926 64.1024C342.26 64.4134 342.652 64.6552 343.081 64.8138C343.509 64.9724 343.965 65.0446 344.422 65.0261C346.43 65.0978 348.646 64.2298 349.422 62.3983C349.358 62.8852 349.417 63.3805 349.595 63.8386C349.773 64.2967 350.063 64.703 350.44 65.0202C350.817 65.3373 351.268 65.5551 351.751 65.6535C352.235 65.752 352.735 65.7279 353.207 65.5835C353.014 65.9564 352.904 66.3661 352.883 66.7851C352.863 67.204 352.934 67.6224 353.09 68.0119C353.246 68.4014 353.484 68.7531 353.789 69.043C354.094 69.3329 354.457 69.5544 354.855 69.6925C354.933 68.4019 355.438 67.1735 356.292 66.1995C357.147 65.2255 358.301 64.5608 359.575 64.3094C359.276 61.1317 358.377 58.0385 356.927 55.1918C356.401 54.0659 355.669 53.0477 354.767 52.1897C351.847 49.6336 348.054 50.6608 344.566 50.7086C343.542 50.7086 342.454 50.7086 341.614 51.3695C340.406 52.3649 340.014 54.3238 339.95 55.7811C339.901 58.1472 340.325 60.4995 341.198 62.7009V62.7009Z" fill="#1F2241"/>
<path d="M303.538 226.564C305.539 226.214 307.539 225.768 309.571 226.349C309.585 226.565 309.626 226.779 309.691 226.986C310.603 229.017 309.955 230.665 308.523 232.178C307.669 233.093 306.732 233.928 305.723 234.67C303.251 236.365 300.928 238.264 298.778 240.348C298.063 241.105 297.169 241.672 296.178 241.996C295.874 242.131 295.537 242.171 295.21 242.112C294.883 242.052 294.582 241.895 294.346 241.662C294.099 241.405 293.929 241.085 293.855 240.738C293.782 240.39 293.808 240.029 293.93 239.695C294.152 239.082 294.526 238.534 295.018 238.103C296.162 236.94 297.29 235.753 298.49 234.647C300.93 232.409 302.258 229.471 303.538 226.564Z" fill="#E7A729"/>
<path d="M303.538 226.564C301.882 226.166 301.738 226.031 301.546 224.637C300.618 217.9 293.858 180.538 297.49 167.2C298.28 164.298 299.61 161.57 301.41 159.157C303.178 156.728 314.787 144.497 318.06 141.352C320.923 138.578 323.574 135.594 325.988 132.425C326.532 132.425 327.077 132.369 327.589 132.425C330.325 132.521 333.053 132.76 335.789 132.728C342.462 132.664 349.118 133.198 355.791 133.421C356.115 133.464 356.434 133.538 356.743 133.644C358.759 138.127 360.479 142.69 360.687 147.682C360.662 149.695 360.459 151.701 360.079 153.678C359.693 156.866 359.081 160.021 358.247 163.123C357.927 164.269 358.103 164.484 359.343 164.293C361.186 164.059 363.015 163.732 364.824 163.314C370.6 161.785 376.521 160.853 382.121 158.807C382.642 158.65 383.142 158.431 383.609 158.154C383.998 158.456 384.263 158.889 384.354 159.372C384.922 161.283 385.482 163.202 386.05 165.121C385.988 165.296 385.892 165.456 385.767 165.593C385.642 165.73 385.49 165.84 385.322 165.918C379.953 169.19 374.673 172.607 369.2 175.696C363.728 178.786 358.519 182.138 352.615 184.264C349.783 185.284 346.43 186.598 343.422 185.594C336.973 183.452 338.005 171.723 337.541 166.435C337.325 164.046 336.661 157.588 336.133 156.768C335.528 157.068 334.986 157.479 334.533 157.979C328.123 163.676 321.397 169.012 314.387 173.96C311.259 176.198 311.251 176.158 311.187 179.996C310.939 190.348 311.027 200.7 311.187 211.052C311.267 215.615 311.331 220.194 311.091 224.772C311.019 226.094 310.979 226.094 309.547 226.365C307.539 225.76 305.539 226.214 303.538 226.564Z" fill="#DD6A3E"/>
<path d="M384.874 91.0651C384.649 90.9393 384.41 90.8404 384.161 90.7705C383.737 90.6612 383.307 90.5761 382.873 90.5157C380.737 90.0857 378.593 89.6796 376.473 89.2257C373.643 88.5607 370.887 87.6136 368.248 86.3988L368.152 86.4705C360.281 91.5762 350.756 93.5172 341.502 91.9013C334.445 90.6829 326.876 87.1235 324.364 80.1797H324.268C323.668 80.1797 323.068 80.0523 322.468 80.0363C320.222 79.9184 318.057 79.1641 316.228 77.8624C314.027 76.4371 311.987 74.8046 309.907 73.212C308.147 71.8583 307.355 72.0972 306.547 74.1835L304.146 84.2568C304.186 85.0531 302.842 92.6896 302.69 95.7394C302.61 97.3878 302.794 97.7222 304.458 98.1284C308.306 99.179 312.215 99.9928 316.164 100.565C317.452 100.732 317.484 100.748 317.588 102.07C317.588 102.604 316.9 124.367 316.404 129.797C316.268 131.278 316.356 131.39 317.836 131.493C326.764 133.142 365.04 134.416 366.864 133.635C368.464 133.548 369.136 132.839 369.264 131.342C369.488 129.073 370.744 112.733 370.752 111.865C370.752 111.156 371.104 110.734 371.864 110.79C374.929 111.028 383.169 110.439 384.345 108.695C384.03 102.814 384.206 96.9171 384.874 91.0651V91.0651Z" fill="#F9EFE6"/>
<path d="M298.114 68.8643C295.322 66.7541 292.722 64.413 290.065 62.1515C285.265 58.0744 270.528 45.2858 270.688 44.6328C268.432 45.5167 269.136 46.0104 266.919 46.966C267.776 48.1206 268.52 49.3549 269.4 50.5016C276.544 59.9935 284.353 68.8643 293.458 76.5566C295.058 77.8944 296.746 79.0968 298.258 80.5381C299.97 82.1514 301.984 83.4124 304.187 84.2489L306.587 74.1756C303.619 72.6436 300.785 70.8669 298.114 68.8643V68.8643Z" fill="#D77062"/>
<path d="M430.078 91.543C429.945 91.9428 429.709 92.3006 429.393 92.5803C429.077 92.86 428.692 93.0515 428.277 93.1356C424.996 94.0022 421.661 94.6486 418.293 95.0706C413.572 95.7236 408.804 95.7873 404.051 96.0421C399.96 96.3738 395.849 96.3951 391.754 96.1058C389.522 95.8908 387.298 95.5643 385.074 95.3095C384.642 98.6679 384.537 102.06 384.762 105.438C384.866 106.442 399.699 105.988 411.396 103.535C417.774 102.074 423.985 99.9687 429.934 97.2525C430.515 96.4186 430.838 95.4337 430.864 94.4192C430.889 93.4046 430.616 92.4048 430.078 91.543V91.543Z" fill="#D77062"/>
<path d="M386.05 165.121C385.482 163.202 384.921 161.283 384.353 159.372C384.263 158.889 383.998 158.456 383.609 158.154C383.894 157.452 384.222 156.768 384.593 156.107C385.882 154.108 387.874 153.957 389.506 155.677C390.375 156.52 390.985 157.592 391.266 158.767C391.866 161.769 393.834 163.855 395.914 165.87C396.927 166.791 397.829 167.825 398.603 168.952C399.141 169.718 399.357 170.664 399.203 171.587C399.188 171.848 399.113 172.101 398.984 172.328C398.855 172.554 398.675 172.748 398.458 172.895C398.242 173.041 397.994 173.136 397.735 173.171C397.475 173.207 397.211 173.183 396.963 173.1C396.258 172.957 395.628 172.567 395.186 172.001C394.733 171.458 394.316 170.887 393.938 170.289C393.297 169.207 392.392 168.303 391.306 167.662C389.626 166.642 388.098 165.344 386.05 165.121Z" fill="#E7A729"/>
<path d="M384.034 90.2052C383.114 96.5322 382.742 102.926 382.921 109.316C382.993 111.506 386.41 111.514 386.346 109.316C386.153 103.242 386.482 97.1631 387.33 91.1448C387.438 90.7103 387.374 90.2511 387.152 89.8617C386.931 89.4722 386.568 89.182 386.138 89.0506C385.701 88.933 385.235 88.9915 384.841 89.2137C384.447 89.4358 384.157 89.8035 384.034 90.2371V90.2052Z" fill="#F4D9C6"/>
<path d="M306.331 70.3295C303.596 79.2952 301.984 88.5626 301.53 97.9214C301.418 100.111 304.843 100.111 304.947 97.9214C305.394 88.871 306.956 79.9095 309.595 71.2373C310.235 69.135 306.931 68.2352 306.299 70.3295H306.331Z" fill="#F4D9C6"/>
<path d="M261.207 39.4488C261.783 38.7879 264.511 41.5033 264.511 41.5033C264.511 41.5033 261.183 37.7368 261.527 37.1634C262.079 36.2477 265.799 40.5955 265.799 40.5955C265.799 40.5955 261.871 35.7619 262.911 35.1727C263.951 34.5834 267.247 39.7832 267.247 39.7832C267.247 39.7832 264.407 34.679 265.351 34.3047C266.295 33.9304 269.695 40.6751 269.695 40.6751C269.695 40.6751 270.536 36.9564 271.296 37.0758C272.6 37.2829 271.152 45.2459 271.152 45.2459L267.519 47.8179C267.519 47.8179 260.623 40.1097 261.207 39.4488Z" fill="#D77062"/>
<path d="M440.623 90.0619C440.142 89.3213 437.054 91.6545 437.054 91.6545C437.054 91.6545 440.887 88.3976 440.623 87.7765C440.214 86.797 435.91 90.5636 435.91 90.5636C435.91 90.5636 440.487 86.3432 439.59 85.5946C438.694 84.8461 434.638 89.5761 434.638 89.5761C434.638 89.5761 438.174 84.9257 437.294 84.4241C436.414 83.9224 432.086 90.0858 432.086 90.0858C432.086 90.0858 431.79 86.2954 431.006 86.3033C429.686 86.3033 429.982 94.4097 429.982 94.4097L429.934 97.2844C429.934 97.2844 441.103 90.8024 440.623 90.0619Z" fill="#D77062"/>
<path d="M352.759 78.5871C351.898 78.154 350.991 77.8175 350.055 77.5837C350.135 78.0217 350.279 78.6428 350.279 78.6428L350.615 78.7384C351.46 78.9132 352.248 79.2944 352.909 79.8477C353.57 80.4011 354.082 81.1092 354.399 81.9084C354.716 82.7076 354.829 83.5728 354.727 84.4261C354.625 85.2794 354.312 86.0941 353.815 86.797C352.215 89.0186 348.918 89.6238 346.686 91.0572C341.998 94.0513 338.99 101.067 333.085 101.863C326.213 102.787 321.18 94.1946 321.484 88.2542C321.554 86.7706 321.959 85.3218 322.668 84.015C323.377 82.7082 324.372 81.577 325.58 80.7052C328.245 78.818 331.077 79.1843 334.085 79.7895C336.341 80.2434 338.734 80.6654 340.798 79.3754C341.466 78.8514 342.172 78.3776 342.91 77.958C343.453 77.7239 344.039 77.6046 344.63 77.6076C344.798 77.2732 344.966 76.9387 345.126 76.6043C344.115 76.49 343.092 76.6698 342.182 77.1219C340.422 78.0854 339.438 79.3356 337.213 79.2639C335.365 79.2002 333.589 78.595 331.773 78.3482C325.508 77.5041 320.484 82.7279 320.468 88.8275C320.468 94.76 325.084 102.532 331.621 102.922C334.893 103.113 337.742 101.146 339.942 98.9406C342.806 96.05 345.102 92.8727 348.831 90.9775C351.863 89.4407 355.231 88.4134 355.735 84.5275C355.878 83.3561 355.672 82.1688 355.143 81.1128C354.613 80.0568 353.785 79.1786 352.759 78.5871V78.5871Z" fill="#D88F25"/>
<path d="M356.919 72.8059C356.892 73.0911 356.781 73.3618 356.6 73.5844C356.418 73.807 356.175 73.9716 355.901 74.0575C355.626 74.1434 355.332 74.1469 355.056 74.0675C354.779 73.9881 354.532 73.8293 354.346 73.6111C354.16 73.3929 354.042 73.1248 354.008 72.8404C353.974 72.556 354.025 72.2678 354.154 72.012C354.283 71.7562 354.486 71.544 354.736 71.4019C354.986 71.2599 355.272 71.1943 355.559 71.2133C355.754 71.2273 355.944 71.2799 356.119 71.3679C356.293 71.4558 356.448 71.5775 356.575 71.7258C356.701 71.874 356.797 72.0459 356.856 72.2313C356.915 72.4168 356.937 72.6121 356.919 72.8059V72.8059Z" fill="#D88F25"/>
<path d="M348.95 71.3726C348.827 71.92 348.503 72.4022 348.042 72.7253C347.581 73.0484 347.016 73.1894 346.456 73.1209C345.897 73.0524 345.383 72.7793 345.014 72.3546C344.646 71.93 344.449 71.3841 344.462 70.8231L348.95 71.3726Z" fill="white"/>
<path d="M353.319 134.089C355.103 136.781 355.719 139.934 355.895 143.104C356.071 146.273 356.031 149.562 356.007 152.771C355.935 159.81 355.503 166.881 353.663 173.706C353.627 173.832 353.643 173.968 353.707 174.083C353.772 174.198 353.88 174.283 354.007 174.319C354.134 174.355 354.271 174.339 354.386 174.274C354.502 174.21 354.587 174.103 354.623 173.976C356.519 166.937 356.951 159.643 357.023 152.396C357.023 148.98 357.143 145.516 356.839 142.116C356.688 139.099 355.781 136.167 354.199 133.588C353.847 133.054 352.983 133.588 353.335 134.089H353.319Z" fill="#C34622"/>
<path d="M354.871 171.444C365.24 168.938 375.523 166.098 385.722 162.924C386.33 162.732 386.074 161.777 385.458 161.968C375.265 165.153 364.981 167.993 354.607 170.488C353.983 170.64 354.247 171.595 354.871 171.444V171.444Z" fill="#C34622"/>
<path d="M336.765 158.106C336.256 154.871 335.275 151.726 333.853 148.773C333.581 148.192 332.717 148.702 332.997 149.275C334.371 152.154 335.314 155.218 335.797 158.369C335.901 158.998 336.861 158.727 336.765 158.106Z" fill="#C34622"/>
<path d="M335.053 154.005C331.941 156.139 328.709 158.106 325.564 160.192C321.044 163.194 316.628 166.356 312.395 169.748C309.283 172.224 307.291 175.386 307.323 179.463C307.323 180.514 307.323 181.565 307.363 182.648L307.803 215.87L307.931 226.158C307.946 226.279 308.006 226.391 308.098 226.471C308.19 226.552 308.308 226.597 308.431 226.597C308.554 226.597 308.672 226.552 308.764 226.471C308.856 226.391 308.916 226.279 308.931 226.158L308.595 200.676L308.387 184.551C308.331 180.705 307.835 176.7 310.179 173.347C311.087 172.157 312.165 171.105 313.379 170.226C314.74 169.151 316.108 168.092 317.5 167.04C319.884 165.273 322.306 163.563 324.764 161.912C328.325 159.523 331.965 157.294 335.525 154.865C336.053 154.507 335.525 153.647 335.029 154.013L335.053 154.005Z" fill="#C34622"/>
<path d="M294.346 241.67L310.139 228.571" stroke="#D88F25" stroke-width="1.5" stroke-miterlimit="10"/>
<path d="M386.074 155.239C387.514 156.219 388.13 157.883 388.69 159.452C389.204 161.052 389.934 162.576 390.858 163.983C391.894 165.407 393.085 166.713 394.41 167.876C395.611 168.967 398.035 170.441 397.611 172.344C397.475 172.965 398.411 173.228 398.571 172.607C398.939 170.815 397.675 169.421 396.411 168.33C394.726 166.966 393.2 165.42 391.858 163.72C390.787 162.09 389.944 160.322 389.354 158.464C388.878 156.84 387.894 155.409 386.546 154.379C386.018 154.021 385.522 154.881 386.042 155.239H386.074Z" fill="#D88F25"/>
<path d="M446.447 12.9718C447.247 12.6135 448.583 16.2128 448.583 16.2128C448.583 16.2128 447.143 11.4349 447.703 11.0288C448.583 10.4316 450.103 15.9261 450.103 15.9261C450.103 15.9261 448.567 9.89808 449.727 9.76271C450.887 9.62734 451.735 15.7509 451.735 15.7509C451.735 15.7509 451.303 9.9379 452.311 9.98568C453.32 10.0335 453.592 17.5665 453.592 17.5665C453.592 17.5665 455.92 14.5405 456.568 14.9705C457.664 15.6952 453 22.3284 453 22.3284L448.615 23.1247C448.615 23.1247 445.639 13.3302 446.447 12.9718Z" fill="#D77062"/>
<path d="M549.96 58.5363C549.344 57.9072 546.76 60.7739 546.76 60.7739C546.76 60.7739 549.88 56.7924 549.504 56.2748C548.904 55.3909 545.424 59.9298 545.424 59.9298C545.424 59.9298 549.088 54.8972 548.056 54.3557C547.024 53.8142 543.975 59.1892 543.975 59.1892C543.975 59.1892 546.536 53.9416 545.576 53.6151C544.616 53.2886 541.575 60.1846 541.575 60.1846C541.575 60.1846 540.535 56.5216 539.775 56.6809C538.487 56.9596 540.359 64.835 540.359 64.835L544.127 67.2239C544.127 67.2239 550.576 59.1653 549.96 58.5363Z" fill="#D77062"/>
<path d="M544.247 66.0851C542.319 64.7712 540.455 63.3618 538.591 61.9523C538.511 62.0797 538.423 62.2151 538.335 62.3744C535.35 67.5148 532.053 72.4691 528.462 77.2095C527.494 78.4517 526.686 79.8214 525.638 81.0158C524.79 81.9873 524.782 81.9873 523.966 81.0158C522.098 78.6651 520.392 76.1908 518.861 73.6102C517.139 70.6895 515.033 68.0114 512.597 65.6472C509.193 62.2708 504.739 60.143 499.964 59.6112C497.235 59.3763 494.491 59.3763 491.763 59.6112C491.283 61.6099 490.867 63.6325 489.443 65.249C488.696 66.1636 487.636 66.7711 486.466 66.9548C485.296 67.1386 484.1 66.8855 483.106 66.2444C482.248 65.7114 481.517 64.9985 480.964 64.1555C480.412 63.3124 480.05 62.3594 479.906 61.3631C479.786 60.8375 479.706 60.304 479.61 59.7705C476.938 59.643 474.273 59.2767 471.609 59.3564C471.061 59.3383 470.53 59.1611 470.081 58.8467C467.473 57.3564 464.73 56.114 461.888 55.136C458.048 53.7982 454.688 51.4411 451.039 49.7768C450.479 49.522 450.423 49.1557 450.527 48.5904C451.399 43.9957 452.215 39.3931 453.088 34.7984C453.96 30.2037 455.208 25.6887 455.968 21.0622C455.968 20.9587 455.968 20.8631 456.008 20.7675C452.807 20.5366 449.607 20.3375 446.407 19.9235C446.335 20.0509 446.271 20.1862 446.207 20.3296C444.367 24.6455 442.647 28.9934 441.214 33.4606C439.934 37.4421 438.598 41.4236 437.126 45.3574C436.186 47.7358 435.45 50.1892 434.926 52.6913C434.598 54.297 434.771 55.964 435.422 57.4691C436.54 59.84 438.013 62.0282 439.79 63.959C444.447 69.3659 449.559 73.5146 455.232 77.8147C456.089 78.403 456.861 79.1049 457.528 79.901C460.168 83.3729 460.048 91.5429 460.424 95.8748C460.816 100.462 456.424 104.443 455.736 108.863C455.36 111.657 455.955 114.495 457.424 116.905C459.064 119.703 461.308 122.105 463.992 123.937C468.017 126.401 472.56 127.908 477.266 128.34C479.923 128.661 482.609 128.661 485.266 128.34C489.755 127.703 493.451 125.434 496.883 122.639C497.219 122.368 497.547 122.081 497.875 121.794C498.467 120.998 499.1 120.258 499.636 119.406C501.694 116.269 502.502 112.481 501.9 108.783C501.1 103.209 501.644 97.6346 502.244 92.0605C502.244 91.6497 502.376 91.2496 502.621 90.9187C502.865 90.5877 503.21 90.3433 503.604 90.2211C504.452 89.9344 504.78 90.6431 505.204 91.0652C508.452 94.2504 511.813 97.2869 515.285 100.175C517.043 101.647 518.981 102.891 521.053 103.878C522.036 104.368 523.138 104.574 524.232 104.472C525.327 104.371 526.371 103.966 527.246 103.304C528.505 102.426 529.541 101.267 530.27 99.92C532.446 96.2093 534.695 92.5383 536.559 88.6603C538.519 84.5832 540.623 80.5858 542.591 76.5247C544.1 73.5499 545.201 70.3868 545.864 67.1203C545.336 66.7699 544.776 66.4435 544.247 66.0851Z" fill="#1F2241"/>
<path d="M464 123.953C468.024 126.411 472.564 127.912 477.266 128.34C479.923 128.661 482.609 128.661 485.266 128.34C489.755 127.703 493.451 125.434 496.883 122.639C497.219 122.368 497.547 122.081 497.875 121.795C499.371 124.685 501.148 127.424 501.964 130.649C503.916 138.334 502.532 145.293 497.539 151.505C493.651 156.429 489.208 160.893 484.298 164.811C483.85 165.205 483.43 165.631 483.042 166.085C482.664 166.149 482.315 166.327 482.042 166.595C480.77 167.622 479.522 168.673 478.194 169.628C474.129 172.567 470.129 175.601 465.721 178.037C464.12 178.929 464.12 179.017 465.208 180.641C467.145 183.604 469.209 186.478 471.017 189.528C472.612 191.394 474.075 193.368 475.393 195.437C477.242 198.2 478.954 201.059 480.81 203.814C481.458 204.777 481.722 205.621 480.994 206.601C479.303 208.547 477.778 210.63 476.433 212.828C475.764 213.465 475.183 214.188 474.705 214.978C474.313 215.495 473.969 215.535 473.505 215.121C472.041 213.807 470.577 212.509 469.105 211.211C468.125 210.264 467.074 209.394 465.961 208.607L456.816 201.226C453.848 198.837 450.903 196.448 447.895 194.059C445.879 192.466 444.119 190.595 441.918 189.281C439.902 187.282 437.918 185.3 435.878 183.285C434.477 181.906 433.205 180.402 432.078 178.794C429.677 175.378 429.677 172.726 432.15 169.382C434.888 165.821 437.906 162.482 441.174 159.396C443.103 157.533 445.023 155.669 446.823 153.686C451.191 148.909 455.784 144.282 460.288 139.592C460.581 139.32 460.812 138.989 460.965 138.621C461.118 138.253 461.19 137.856 461.176 137.458C461.246 132.818 462.204 128.234 464 123.953V123.953Z" fill="#E8A628"/>
<path d="M441.942 189.241C444.143 190.579 445.943 192.474 447.919 194.019C450.927 196.36 453.872 198.797 456.84 201.186L465.985 208.568C466.187 210.458 466.573 212.325 467.137 214.142C468.649 220.249 470.113 226.373 471.361 232.536C471.601 233.739 471.553 233.755 470.441 234.129C469.825 234.344 469.193 234.535 468.577 234.734L460.832 237.123C460.12 237.394 459.416 237.673 458.696 237.919C457.344 238.405 457.336 238.405 456.824 237.123C455.832 234.655 454.88 232.162 453.863 229.694C451.759 224.565 449.655 219.429 447.463 214.325C445.034 208.331 442.914 202.219 441.11 196.01C440.768 194.886 440.666 193.704 440.809 192.538C440.952 191.373 441.338 190.25 441.942 189.241V189.241Z" fill="#E28A21"/>
<path d="M471.041 189.496C469.233 186.446 467.169 183.572 465.232 180.609C464.168 179.017 464.128 178.897 465.745 178.005C470.153 175.569 474.153 172.535 478.218 169.597C479.546 168.641 480.794 167.59 482.066 166.563C482.339 166.295 482.688 166.117 483.066 166.053C481.898 168.378 480.754 170.719 479.554 173.021C476.954 177.974 474.329 182.911 471.721 187.856C471.365 188.34 471.132 188.903 471.041 189.496Z" fill="#E28A21"/>
<path d="M460.832 237.131L468.577 234.742C468.649 235.443 468.713 236.144 468.793 236.844C468.936 237.628 468.88 238.435 468.63 239.191C468.38 239.948 467.943 240.63 467.361 241.176C463.808 244.361 460.48 247.873 456.648 250.788C456.201 251.191 455.679 251.502 455.112 251.703C454.04 251.998 453.384 251.488 453.456 250.373C453.619 249.016 454.175 247.736 455.056 246.687C455.643 245.901 456.305 245.173 457.032 244.513C459.08 242.633 459.888 240.045 461.032 237.672C461.2 237.434 461 237.274 460.832 237.131Z" fill="#DD6A3E"/>
<path d="M476.458 212.796C477.802 210.598 479.327 208.515 481.018 206.569C482.036 207.115 482.852 207.972 483.343 209.015C483.834 210.057 483.976 211.229 483.746 212.358C483.498 214.189 483.322 216.021 483.05 217.844C482.791 219.619 482.686 221.412 482.738 223.204C482.758 223.911 482.647 224.615 482.41 225.282C482.358 225.525 482.238 225.748 482.063 225.926C481.889 226.104 481.667 226.229 481.424 226.287C481.182 226.344 480.927 226.332 480.691 226.251C480.455 226.171 480.246 226.025 480.09 225.831C479.489 225.267 479.064 224.543 478.866 223.745C478.57 222.7 478.346 221.635 478.194 220.56C477.869 217.922 477.287 215.322 476.458 212.796V212.796Z" fill="#DD6A3E"/>
<path d="M492.251 42.7853C491.011 42.5544 489.779 43.494 489.283 44.9353C489.18 44.8697 489.081 44.7979 488.987 44.7204C488.353 44.2512 487.865 43.6136 487.578 42.8809C487.426 42.4968 487.337 42.0908 487.314 41.6785C487.314 41.2246 487.266 40.7627 487.25 40.1735C486.715 40.3902 486.236 40.7251 485.85 41.1529C485.73 41.2724 485.538 40.8424 485.426 40.9618C483.73 42.6579 482.114 42.865 479.506 43.0402C479.18 43.0097 478.862 42.9291 478.562 42.8013C478.346 42.6181 478.138 42.4509 477.946 42.2757C477.765 43.0593 477.674 43.8607 477.674 44.6646C477.651 46.6056 478.208 48.5096 479.274 50.1352L479.322 50.2069C480.155 51.4914 481.438 52.4221 482.922 52.8188C483.071 53.0217 483.174 53.2535 483.227 53.4991C483.279 53.7448 483.279 53.9986 483.226 54.2441C483.186 54.5706 483.226 54.9051 483.178 55.2156C482.834 57.1108 482.21 58.7831 480.018 59.2529C479.778 59.3007 479.746 59.5634 479.642 59.7466C479.738 60.2801 479.818 60.8136 479.938 61.3392C480.082 62.3355 480.444 63.2885 480.996 64.1316C481.549 64.9747 482.28 65.6876 483.138 66.2205C484.132 66.8617 485.328 67.1147 486.498 66.931C487.668 66.7472 488.728 66.1397 489.475 65.2252C490.899 63.6325 491.315 61.586 491.795 59.5873C490.525 58.8283 489.467 57.7642 488.718 56.4926C487.969 55.221 487.552 53.7826 487.506 52.3091C487.506 52.0941 487.45 51.8791 487.45 51.6721C488.511 50.7696 489.314 49.6051 489.779 48.2957C490.1 48.7123 490.564 48.996 491.083 49.0921C492.475 49.3548 493.875 48.1365 494.203 46.3846C494.531 44.6328 493.643 43.0481 492.251 42.7853Z" fill="#D77062"/>
<path d="M493.563 26.3019C492.843 25.6521 491.936 25.2435 490.97 25.1335C490.004 25.0235 489.028 25.2177 488.179 25.6887C487.296 26.0768 486.552 26.7204 486.042 27.5357C485.533 28.351 485.282 29.3002 485.322 30.2595C485.335 31.1219 485.434 31.9809 485.619 32.8236C484.477 32.1827 483.227 31.7562 481.93 31.5655C480.891 31.4021 479.829 31.455 478.811 31.7209C477.794 31.9868 476.842 32.4599 476.018 33.1103C475.205 33.7759 474.596 34.6541 474.258 35.646C473.92 36.638 473.867 37.7041 474.105 38.7242C474.714 40.938 476.794 42.2439 478.906 42.8889C482.026 43.8524 484.754 42.0926 487.291 40.5C487.291 40.9459 487.331 41.2963 487.347 41.7024C487.383 42.2999 487.55 42.8822 487.838 43.408C488.126 43.9337 488.526 44.3899 489.011 44.7443C489.731 45.3017 490.011 45.3096 490.427 44.6726L490.547 44.4815C490.747 44.163 490.891 43.8126 491.067 43.4782C491.342 42.2285 491.469 40.9509 491.443 39.6718C492.789 39.5954 494.063 39.0473 495.042 38.1246C496.02 37.202 496.638 35.9644 496.788 34.6312C497.05 33.0827 496.889 31.4925 496.321 30.0271C495.754 28.5618 494.801 27.2751 493.563 26.3019Z" fill="#212443"/>
<path d="M490.291 127.082C494.683 134.742 490.235 143.995 485.49 150.334C480.538 156.903 473.969 162.079 467.145 166.602C463.28 169.159 459.296 171.524 455.312 173.873C455.214 173.947 455.147 174.054 455.123 174.174C455.099 174.294 455.12 174.419 455.182 174.524C455.244 174.63 455.343 174.709 455.459 174.748C455.576 174.786 455.703 174.781 455.816 174.733C463.248 170.353 470.713 165.894 477.298 160.296C483.578 154.961 489.571 148.216 492.051 140.221C493.451 135.722 493.579 130.769 491.179 126.58C491.104 126.483 490.997 126.416 490.876 126.393C490.755 126.369 490.63 126.39 490.524 126.451C490.418 126.513 490.338 126.611 490.3 126.727C490.261 126.843 490.266 126.969 490.315 127.082H490.291Z" fill="#D88F25"/>
<path d="M452.983 172.232C461.237 184.38 470.166 196.059 479.73 207.214C480.146 207.7 480.842 206.999 480.434 206.513C470.937 195.421 462.072 183.809 453.88 171.731C453.52 171.205 452.655 171.731 453.015 172.232H452.983Z" fill="#D88F25"/>
<path d="M468.625 238.771C464.777 244.075 459.392 247.945 454.12 251.711C453.6 252.086 454.12 252.946 454.624 252.571C460.048 248.693 465.529 244.72 469.489 239.273C469.865 238.755 469.001 238.262 468.625 238.771Z" fill="#F9EFE6"/>
<path d="M456.528 244.847C457.704 245.763 458.848 246.703 459.976 247.674C460.071 247.764 460.197 247.814 460.328 247.814C460.459 247.814 460.585 247.764 460.68 247.674C460.727 247.628 460.764 247.574 460.789 247.514C460.814 247.453 460.827 247.389 460.827 247.324C460.827 247.259 460.814 247.194 460.789 247.134C460.764 247.074 460.727 247.019 460.68 246.973C459.552 246.002 458.408 245.054 457.232 244.146C457.137 244.057 457.011 244.007 456.88 244.007C456.749 244.007 456.623 244.057 456.528 244.146C456.481 244.192 456.445 244.247 456.419 244.307C456.394 244.367 456.381 244.432 456.381 244.497C456.381 244.562 456.394 244.627 456.419 244.687C456.445 244.747 456.481 244.801 456.528 244.847V244.847Z" fill="#F9EFE6"/>
<path d="M457.408 243.231C459.008 244.107 460.59 245.054 462.152 246.073C462.266 246.14 462.401 246.159 462.529 246.126C462.656 246.093 462.766 246.011 462.832 245.898C462.899 245.785 462.918 245.65 462.885 245.524C462.852 245.397 462.77 245.288 462.656 245.221C461.12 244.202 459.536 243.247 457.912 242.371C457.352 242.068 456.848 242.92 457.408 243.231Z" fill="#F9EFE6"/>
<path d="M483.29 215.527C481.35 216.827 479.324 217.995 477.226 219.023C476.65 219.302 477.154 220.162 477.73 219.875C479.828 218.85 481.854 217.685 483.794 216.387C484.322 216.037 483.794 215.177 483.29 215.527Z" fill="#F9EFE6"/>
<path d="M483.514 218.139C481.525 219.376 479.463 220.528 477.33 221.595C476.762 221.882 477.266 222.742 477.834 222.447C479.938 221.38 482.01 220.226 484.026 218.999C484.57 218.665 484.026 217.805 483.522 218.139H483.514Z" fill="#F9EFE6"/>
<path d="M483.73 209.364C483.592 212.252 483.376 215.137 483.082 218.02C482.938 219.429 482.77 220.831 482.586 222.24C482.402 223.65 482.322 225.139 481.53 226.341C481.178 226.875 482.034 227.376 482.386 226.843C483.035 225.676 483.407 224.376 483.474 223.044C483.677 221.595 483.856 220.146 484.01 218.697C484.346 215.591 484.578 212.485 484.73 209.364C484.73 208.727 483.762 208.727 483.73 209.364Z" fill="#F9EFE6"/>
<path d="M490.515 40.1814C494.624 40.1814 497.956 36.3703 497.956 31.669C497.956 26.9677 494.624 23.1565 490.515 23.1565C486.406 23.1565 483.074 26.9677 483.074 31.669C483.074 36.3703 486.406 40.1814 490.515 40.1814Z" fill="#212443"/>
<path d="M485.33 47.1968C485.252 47.7559 484.965 48.2653 484.528 48.625C484.091 48.9847 483.534 49.1687 482.968 49.1407C482.401 49.1128 481.866 48.875 481.467 48.474C481.067 48.073 480.833 47.538 480.81 46.9739L485.33 47.1968Z" fill="white"/>
</g>
<defs>
<clipPath id="clip0_1640_1774">
<rect width="550" height="253.758" fill="white"/>
</clipPath>
</defs>
</svg>
