<svg width="400" height="320" viewBox="0 0 400 320" fill="none" xmlns="http://www.w3.org/2000/svg">
<path fill-rule="evenodd" clip-rule="evenodd" d="M158.488 1.43725C198.38 5.05482 230.655 28.3371 261.705 53.8059C298.017 83.5913 348.396 110.555 348.994 157.702C349.595 204.976 301.969 235.941 264.378 264.288C233.286 287.735 196.897 295.489 158.488 301.363C109.212 308.898 49.2549 338.593 14.659 302.478C-19.9682 266.33 17.1185 207.774 20.8703 157.702C24.1134 114.419 6.22801 65.7127 34.8329 33.2321C64.1699 -0.0798182 114.442 -2.55712 158.488 1.43725Z" fill="#F2EAFD"/>
<path d="M268.078 98.8673C266.474 94.4681 263.154 90.6058 258.538 89.4763C250.033 88.7792 245.6 90.9334 241.203 95.1374C236.806 99.3414 234.28 105.051 231.832 110.601C229.384 116.15 226.774 121.839 222.278 125.939C214.595 132.91 202.748 134.019 195.269 141.221C187.79 148.423 186.665 160.742 191.421 169.91C196.177 179.077 205.914 185.171 216.164 187.081C219.493 187.749 222.909 187.883 226.281 187.478C236.131 186.161 244.573 178.938 249.09 170.133C253.607 161.327 254.676 151.135 254.148 141.27C253.888 136.466 253.311 131.412 255.309 127.026C259.277 118.326 269.38 115.335 269.141 104.375C269.088 102.494 268.729 100.635 268.078 98.8673Z" fill="#FFB93E"/>
<path d="M387.544 146.139C378.398 140.785 367.142 141.914 358.165 147.087C353.756 149.617 349.961 153.075 347.049 157.217C344.333 161.129 342.462 165.549 340.646 169.927C338.831 174.305 337.03 178.872 334.512 182.985C331.993 187.098 328.377 191.184 323.579 192.745C320.708 193.701 317.669 193.966 314.763 194.774C312.684 195.375 310.672 196.188 308.762 197.2C304.548 199.358 300.801 202.312 297.73 205.894C294.916 209.248 292.721 213.319 292.566 217.746C292.535 219.989 292.998 222.211 293.923 224.258C294.847 226.305 296.212 228.128 297.92 229.598C304.484 235.245 314.39 234.13 321.925 231.244C325.871 229.79 329.525 227.654 332.718 224.934C336.819 221.337 339.345 216.401 342.525 212.064C345.858 207.649 350.262 204.138 355.329 201.858C360.191 199.564 365.383 198.093 370.477 196.42C380.446 193.15 390.626 188.409 396.381 179.248C399.25 174.812 400.472 169.525 399.835 164.294C399.117 159.265 396.863 154.575 393.377 150.852C391.676 149.015 389.719 147.428 387.566 146.139C387.388 146.037 387.177 146.008 386.979 146.06C386.78 146.111 386.61 146.239 386.507 146.415C386.403 146.59 386.374 146.799 386.426 146.996C386.479 147.193 386.607 147.361 386.785 147.464C395.403 152.644 400.68 163.213 397.577 173.05C394.411 183.09 384.765 189.497 375.324 193.101C365.882 196.705 355.386 198.595 347.239 204.995C342.785 208.481 339.964 213.236 336.812 217.816C335.43 219.916 333.814 221.855 331.993 223.596C330.569 224.876 329.018 226.012 327.364 226.984C320.574 231.062 311.33 233.809 303.542 231.118C301.582 230.429 299.799 229.323 298.317 227.877C296.836 226.432 295.692 224.683 294.966 222.752C293.418 218.687 294.199 214.386 296.302 210.642C298.62 206.733 301.803 203.396 305.61 200.882C309.364 198.265 313.626 196.451 318.126 195.555C320.94 194.99 323.804 194.53 326.4 193.227C328.492 192.111 330.375 190.646 331.965 188.897C335.053 185.62 337.22 181.626 339.071 177.561C342.891 169.16 345.529 159.915 352.389 153.32C359.459 146.509 369.977 142.451 379.784 144.654C382.251 145.215 384.613 146.156 386.785 147.443C386.954 147.501 387.139 147.498 387.307 147.436C387.476 147.374 387.617 147.255 387.707 147.101C387.796 146.947 387.829 146.767 387.8 146.591C387.77 146.416 387.68 146.256 387.544 146.139Z" fill="#9145F1"/>
<path d="M239.928 131.04C230.152 150.788 217.898 204.744 214.554 207.701C211.211 210.658 191.901 222.115 188.557 227.659C185.214 233.202 186.703 231.353 188.189 231.724C189.674 232.094 273.598 232.461 273.598 232.461C273.598 232.461 263.943 175.178 262.829 174.807C261.716 174.437 239.928 131.04 239.928 131.04Z" fill="#9145F1"/>
<path d="M226.027 232.194C241.453 232.301 257.708 232.388 266.662 232.431L254.402 159.465C247.866 146.85 239.928 131.04 239.928 131.04C238.694 133.53 237.423 136.564 236.135 139.968C234.864 194.772 242.795 210.134 236.836 219.896C232.188 227.519 227.945 230.926 226.027 232.194Z" fill="#9145F1"/>
<path d="M371.749 242.275H65.4883C64.8618 242.275 64.2609 241.534 63.8179 240.214C63.3749 238.894 63.126 237.104 63.126 235.238C63.126 233.372 63.3749 231.582 63.8179 230.262C64.2609 228.942 64.8618 228.201 65.4883 228.201H371.749C372.375 228.201 372.976 228.942 373.419 230.262C373.862 231.582 374.111 233.372 374.111 235.238C374.111 237.104 373.862 238.894 373.419 240.214C372.976 241.534 372.375 242.275 371.749 242.275Z" fill="#DEC7FB"/>
<path d="M291.399 107.208C305.336 120.013 336.367 132.155 336.367 132.155C336.367 132.155 341.062 175.505 337.863 200.048C334.664 224.592 336.434 229.571 336.434 229.571H272.454C272.454 229.571 263.866 217.713 248.148 180.845C238.141 157.366 239.928 131.044 239.928 131.044L278.887 113.619L291.399 107.208Z" fill="#9145F1"/>
<path d="M272.454 229.571H336.434C336.434 229.571 334.647 224.592 337.863 200.048C340.512 179.837 337.782 146.88 336.739 135.87L330.917 133.39C316.312 137.578 307.892 159.262 305.43 180.448C303.773 194.625 280.171 208.582 264.731 216.268C269.792 225.893 272.454 229.571 272.454 229.571Z" fill="#9145F1"/>
<path d="M256.766 62.7161C249.053 79.8104 258.312 95.6432 258.031 94.9757C257.749 94.3082 269.704 66.1136 269.704 66.1136L256.766 62.7161Z" fill="#2E5B9A"/>
<path d="M286.006 75.3553L295.775 110.949C295.909 111.443 295.923 111.962 295.816 112.463C295.708 112.964 295.483 113.432 295.158 113.829C292.861 116.643 289.594 122.43 283.004 124.285C281.652 124.615 280.262 124.769 278.869 124.746C278.219 124.749 277.587 124.526 277.084 124.116C276.58 123.705 276.237 123.132 276.113 122.497L269.573 88.7385L286.006 75.3553Z" fill="#F09959"/>
<path d="M284.124 78.3286L280.55 79.787L269.573 88.738L275.472 118.655C285.466 112.447 286.925 108.259 284.124 78.3286Z" fill="#E38540"/>
<path d="M285.634 91.0944C283.471 102.799 274.668 110.715 265.978 108.783C257.289 106.85 253.141 99.2678 254.147 84.0691C254.948 72.1545 260.854 59.2019 269.543 61.141C278.232 63.08 287.8 79.3901 285.634 91.0944Z" fill="#F09959"/>
<path d="M336.367 132.154C349.312 135.065 351.716 161.23 355.925 188.827C356.411 192.005 358.896 218.888 358.896 218.888C358.891 220.435 358.448 221.949 357.618 223.256C356.787 224.564 355.603 225.612 354.201 226.28C349.973 228.386 348.259 229.975 323.747 230.222C300.209 230.459 269.855 229.484 269.855 229.484C269.855 229.484 269.587 220.767 272.002 216.505C275.634 210.1 312.855 200.902 316.323 200.408C316.816 193.51 312.902 168.546 318.301 151.622C322.017 139.981 326.014 133.88 331.011 132.288C332.752 131.763 334.602 131.716 336.367 132.154Z" fill="#9145F1"/>
<path d="M283.159 230.015C294.762 230.189 310.688 230.349 323.737 230.222C348.249 229.975 349.962 228.387 354.191 226.281C359.144 223.818 359.393 219.629 359.393 219.629C359.393 219.629 356.891 191.021 356.421 187.843C353.698 169.364 350.754 148.215 343.906 138.009C350.345 156.789 351.381 172.631 351.495 179.393C351.555 182.821 351.237 187.513 350.231 190.794C349.117 194.428 346.27 196.708 341.813 195.466C332.899 193.003 321.759 198.179 321.759 198.179C321.759 198.179 330.176 195.223 338.097 197.933C346.019 200.643 362.364 218.625 344.536 225.299C339.08 227.332 306.406 228.991 283.159 230.015Z" fill="#9145F1"/>
<path d="M273.974 217.329C273.974 217.329 277.274 211.743 284.034 211.743C290.795 211.743 290.309 222.756 289.316 226.364C288.324 229.972 284.366 230.142 284.366 230.142L269.839 229.474L273.974 217.329Z" fill="#96CFE0"/>
<path d="M259.248 226.931H167.681C166.294 226.931 165.169 228.051 165.169 229.431V230.149C165.169 231.529 166.294 232.648 167.681 232.648H259.248C260.635 232.648 261.76 231.529 261.76 230.149V229.431C261.76 228.051 260.635 226.931 259.248 226.931Z" fill="#75A1DE"/>
<path d="M272.159 217.984C257.963 212.894 254.238 214.81 251.032 213.879C243.107 211.579 241.125 213.545 236.011 227.512C235.005 230.296 237.99 230.469 240.961 230.469C243.932 230.469 247.564 224.719 248.718 224.061C249.871 223.404 253.01 223.077 253.01 223.077C253.01 223.077 252.004 223.077 250.535 226.034C249.066 228.991 247.232 230.142 249.546 230.142C251.86 230.142 252.185 226.364 256.478 227.185C260.77 228.006 259.117 230.142 269.845 229.975C280.573 229.808 288.672 229.975 288.498 223.571C288.334 217.493 289.011 214.453 283.216 213.385C278.759 212.564 272.159 217.984 272.159 217.984Z" fill="#F09959"/>
<path d="M272.344 217.984C281.834 216.916 279.051 228.683 278.045 229.665C277.039 230.646 283.33 229.998 283.33 229.998C283.33 229.998 286.278 225.279 283.803 219.856C281.328 214.432 276.375 214.182 276.375 214.182L272.166 216.482L272.344 217.984Z" fill="#A86B48"/>
<path d="M282.253 216.962C282.129 218.417 279.641 219.402 276.693 219.158C273.745 218.915 271.451 217.53 271.585 216.078C271.72 214.626 274.195 213.638 277.146 213.882C280.097 214.126 282.374 215.504 282.253 216.962Z" fill="#2E5B9A"/>
<path d="M281.499 216.235C281.388 217.539 279.151 218.417 276.529 218.197C273.906 217.977 271.834 216.745 271.958 215.444C272.082 214.142 274.305 213.261 276.925 213.481C279.544 213.701 281.606 214.933 281.499 216.235Z" fill="#3E6BAB"/>
<path d="M279.852 215.631C279.775 216.568 278.176 217.203 276.278 217.046C274.379 216.889 272.924 215.998 272.984 215.06C273.045 214.122 274.661 213.491 276.563 213.648C278.464 213.805 279.93 214.693 279.852 215.631Z" fill="#F0CEB4"/>
<path d="M164.331 214.599H72.0872C69.7212 214.586 67.435 213.747 65.6275 212.227C63.82 210.708 62.606 208.605 62.1974 206.286L50.1681 140.204C49.0346 133.973 53.7766 128.226 60.0579 128.226H152.302C154.667 128.239 156.954 129.078 158.761 130.598C160.568 132.118 161.781 134.221 162.188 136.54L174.221 202.621C175.354 208.852 170.612 214.599 164.331 214.599Z" fill="#E2810E"/>
<path d="M168.63 202.868L156.363 138.149C155.467 133.433 151.222 130.009 146.269 130.009H52.529C51.5114 131.179 50.7719 132.562 50.3655 134.056C49.9591 135.549 49.8962 137.115 50.1815 138.636L62.6334 206.112C63.071 208.496 64.3356 210.652 66.2067 212.203C68.0778 213.754 70.4367 214.602 72.8719 214.599H158.556C164.958 214.599 169.797 208.972 168.63 202.868Z" fill="#FFB93E"/>
<path d="M146.399 223.447H128.887C125.765 223.447 123.233 220.68 123.233 217.266V185.404C123.233 179.97 119.208 175.565 114.232 175.565H105.086C100.113 175.565 96.0854 179.97 96.0854 185.404V221.084C96.0854 227.188 100.626 232.124 106.21 232.098L153.999 231.764C153.999 227.168 150.595 223.447 146.399 223.447Z" fill="#E2810E"/>
<path d="M96.7795 186.118V221.254C96.7807 223.99 97.8222 226.625 99.6946 228.628C101.567 230.631 104.132 231.855 106.874 232.054L153.512 231.764C153.512 231.003 149.823 229.618 145.289 229.618H126.348C124.726 229.618 123.17 228.976 122.023 227.835C120.876 226.693 120.231 225.145 120.231 223.53V186.118C120.231 183.551 119.207 181.089 117.383 179.274C115.559 177.459 113.085 176.439 110.506 176.439H106.528C105.249 176.436 103.982 176.684 102.799 177.169C101.617 177.654 100.542 178.367 99.6364 179.266C98.7308 180.165 98.0123 181.233 97.5221 182.409C97.0318 183.584 96.7795 184.845 96.7795 186.118Z" fill="#FFB93E"/>
<path d="M194.406 219.415C201.449 215.517 210.071 216.819 213.186 220.713C216.302 224.608 216.842 227.208 209.792 227.208C202.743 227.208 188.648 227.729 186.297 227.468C183.946 227.208 194.406 219.415 194.406 219.415Z" fill="#F09959"/>
<path d="M204.849 217.079C212.418 215.26 217.593 219.642 223.908 223.831C229.387 227.469 230.491 231.006 224.427 227.989C215.554 223.574 210.342 223.053 210.342 223.053L204.849 217.079Z" fill="#F09959"/>
<path d="M197.954 219.376C194.131 219.376 190.794 218.161 188.094 218.374C185.395 218.588 176.85 227.329 178.198 227.999C178.3 228.051 178.405 228.096 178.513 228.133C179.506 228.485 180.589 228.488 181.583 228.141C182.577 227.795 183.422 227.119 183.976 226.227C185.187 224.295 187.152 222.049 189.443 222.853C191.971 223.681 194.618 224.09 197.28 224.065L197.954 219.376Z" fill="#F09959"/>
<path d="M195.711 228.76C191.797 227.199 198.058 214.209 200.151 214.209C202.243 214.209 210.071 220.447 210.071 220.447C210.071 220.447 208.23 221.478 201.978 219.406C200.412 218.885 199.108 227.719 197.283 228.75C195.459 229.782 195.711 228.76 195.711 228.76Z" fill="#F7A96F"/>
<path d="M254.147 90.9242C253.785 105.228 258.681 107.648 262.105 109.59C265.529 111.533 280.288 108.322 282.455 104.785C287.995 95.7334 283.33 87.2964 284.571 87.4299C285.812 87.5634 286.945 91.081 290.175 95.6533C290.476 96.0805 292.576 98.904 292.686 97.9661C294.186 85.1571 300.889 81.1788 299.293 68.2229C298.116 58.6712 292.026 59.4321 292.026 59.4321C292.026 59.4321 288.095 51.439 275.862 52.3468C267.665 52.9542 260.358 56.1314 251.91 58.2974C243.463 60.4634 261.904 79.5201 272.863 72.5549C283.823 65.5897 278.414 80.9319 280.141 82.12C281.868 83.3081 280.972 82.2769 281.767 90.1298C282.562 97.9828 272.545 103.102 269.674 103.773C260.495 105.923 258.943 104.417 256.951 100.976C255.214 97.9695 254.147 90.9242 254.147 90.9242Z" fill="#303C60"/>
<path d="M292.147 86.4822C291.094 90.0866 288.518 92.4162 286.399 91.6853C284.279 90.9544 284.215 88.0141 284.463 83.8323C284.688 80.051 288.089 77.8983 290.212 78.6292C292.334 79.3601 293.2 82.8778 292.147 86.4822Z" fill="#F09959"/>
</svg>
