<svg width="380" height="192" viewBox="0 0 380 192" fill="none" xmlns="http://www.w3.org/2000/svg">
<rect x="76.6047" y="40" width="303.395" height="112" rx="30" fill="#9145F1"/>
<rect x="50.3979" y="59" width="303.395" height="111" rx="30" fill="#DEC7FB"/>
<path d="M229.495 128.12C227.015 128.12 225.015 126.04 224.455 120.64C225.935 118.36 227.695 117.52 229.295 117.52C231.855 117.52 233.495 119.16 233.495 122.68C233.495 126.28 231.695 128.12 229.495 128.12ZM238.455 105.2C236.655 103.36 234.015 101.84 230.415 101.84C224.455 101.84 218.975 106.56 218.975 117.6C218.975 128.04 223.975 132.56 229.615 132.56C234.655 132.56 238.895 128.76 238.895 122.68C238.895 116.32 235.375 113.36 230.415 113.36C228.495 113.36 225.935 114.56 224.335 116.52C224.575 109.12 227.375 106.56 230.775 106.56C232.495 106.56 234.295 107.52 235.335 108.72L238.455 105.2ZM252.33 132.56C258.33 132.56 262.33 127.28 262.33 117.08C262.33 106.88 258.33 101.84 252.33 101.84C246.29 101.84 242.29 106.84 242.29 117.08C242.29 127.28 246.29 132.56 252.33 132.56ZM252.33 127.96C249.77 127.96 247.85 125.4 247.85 117.08C247.85 108.8 249.77 106.4 252.33 106.4C254.85 106.4 256.77 108.8 256.77 117.08C256.77 125.4 254.85 127.96 252.33 127.96ZM275.885 132.56C281.885 132.56 285.885 127.28 285.885 117.08C285.885 106.88 281.885 101.84 275.885 101.84C269.845 101.84 265.845 106.84 265.845 117.08C265.845 127.28 269.845 132.56 275.885 132.56ZM275.885 127.96C273.325 127.96 271.405 125.4 271.405 117.08C271.405 108.8 273.325 106.4 275.885 106.4C278.405 106.4 280.325 108.8 280.325 117.08C280.325 125.4 278.405 127.96 275.885 127.96ZM299.44 132.56C305.44 132.56 309.44 127.28 309.44 117.08C309.44 106.88 305.44 101.84 299.44 101.84C293.4 101.84 289.4 106.84 289.4 117.08C289.4 127.28 293.4 132.56 299.44 132.56ZM299.44 127.96C296.88 127.96 294.96 125.4 294.96 117.08C294.96 108.8 296.88 106.4 299.44 106.4C301.96 106.4 303.88 108.8 303.88 117.08C303.88 125.4 301.96 127.96 299.44 127.96Z" fill="#9145F1"/>
<g clip-path="url(#clip0_1776_2760)">
<path d="M174.164 163.877C212.07 126.388 212.07 65.6056 174.164 28.1163C136.259 -9.37301 74.8018 -9.37302 36.8963 28.1163C-1.00914 65.6056 -1.00914 126.388 36.8963 163.877C74.8018 201.366 136.259 201.366 174.164 163.877Z" fill="#E2810E"/>
<path d="M165.695 163.879C203.6 126.389 203.6 65.607 165.695 28.1177C127.789 -9.37161 66.3323 -9.37162 28.4268 28.1177C-9.47869 65.607 -9.47869 126.389 28.4268 163.879C66.3323 201.368 127.789 201.368 165.695 163.879Z" fill="#FFB93E"/>
<path d="M97.0631 184.6C76.6026 184.6 56.775 177.584 40.9589 164.746C25.1427 151.909 14.3165 134.045 10.3249 114.198C6.33323 94.3506 9.42317 73.7487 19.0682 55.9023C28.7132 38.0559 44.3166 24.0691 63.2196 16.3252C82.1227 8.58132 103.156 7.55939 122.735 13.4336C142.315 19.3077 159.229 31.7145 170.596 48.54C181.964 65.3655 187.08 85.5687 185.075 105.707C183.069 125.846 174.066 144.673 159.598 158.982C151.404 167.129 141.658 173.587 130.924 177.985C120.19 182.382 108.681 184.631 97.0631 184.6ZM97.0631 14.8874C51.2073 14.8874 13.9036 51.7816 13.9036 97.1338C13.9036 142.486 51.2073 179.38 97.0631 179.38C142.919 179.38 180.228 142.486 180.228 97.1338C180.228 51.7816 142.914 14.8874 97.0631 14.8874Z" fill="#FFB93E"/>
<path d="M109.241 122.519C109.473 120.826 109.402 119.107 109.031 117.439C108.639 115.889 107.896 114.449 106.859 113.225C105.604 111.761 104.142 110.484 102.52 109.432C100.37 108.031 98.1199 106.786 95.7882 105.706C91.5332 103.668 87.3864 101.417 83.3641 98.9603C79.938 96.8965 76.812 94.3809 74.0722 91.4829C71.6212 88.8547 69.7521 85.7495 68.5842 82.3658C67.43 78.9998 67.1152 75.115 67.6398 70.7112C68.0256 67.1223 69.1525 63.6501 70.9505 60.5095C72.6731 57.5506 75.0081 54.9849 77.8026 52.9802C80.7675 50.8718 84.0904 49.3059 87.6138 48.3567C91.6026 47.2813 95.7332 46.8107 99.8647 46.9609L101.591 32.5457L113.328 33.9208L111.57 48.5383C115.477 49.4878 119.199 51.0655 122.588 53.2085C125.728 55.1678 128.439 57.7291 130.562 60.7414C132.685 63.7537 134.177 67.1559 134.949 70.7475C135.823 74.8188 135.987 79.008 135.432 83.1337L114.241 80.6482C114.888 75.2619 114.162 71.0882 112.063 68.127C109.965 65.1658 106.885 63.45 102.824 62.9795C100.901 62.7133 98.9454 62.7959 97.0526 63.2234C95.52 63.59 94.0873 64.2844 92.8552 65.2575C91.6959 66.1981 90.7653 67.3845 90.1322 68.7289C89.4539 70.1697 89.0179 71.7104 88.8415 73.2901C88.6364 74.822 88.7003 76.3773 89.0305 77.8876C89.4061 79.3753 90.1243 80.757 91.1291 81.9247C92.3948 83.3934 93.8707 84.6713 95.5101 85.7179C97.7595 87.1868 100.095 88.5227 102.504 89.7186C107.03 92.0226 111.128 94.3248 114.797 96.6253C118.208 98.7142 121.318 101.25 124.041 104.165C126.488 106.807 128.355 109.922 129.524 113.313C130.685 116.686 131.004 120.55 130.479 124.906C130.097 128.559 128.95 132.093 127.111 135.284C125.378 138.225 123.034 140.768 120.232 142.746C117.247 144.814 113.901 146.319 110.363 147.187C106.342 148.186 102.198 148.621 98.0547 148.479L96.444 161.883L84.7859 160.513L86.3599 147.177C82.3899 146.31 78.5432 144.963 74.9065 143.166C71.3593 141.434 68.1747 139.056 65.5202 136.155C62.817 133.144 60.8084 129.587 59.6335 125.731C58.3358 121.662 58.0105 116.933 58.6576 111.544L79.8541 114.029C79.4693 117.222 79.6022 119.936 80.2528 122.171C80.8002 124.229 81.8322 126.13 83.2644 127.718C84.61 129.163 86.2668 130.291 88.1123 131.018C89.9731 131.763 91.9265 132.257 93.9203 132.487C95.9672 132.764 98.0461 132.708 100.075 132.321C101.741 131.999 103.323 131.348 104.728 130.406C106.005 129.537 107.06 128.388 107.813 127.049C108.585 125.646 109.07 124.107 109.241 122.519Z" fill="#FFA412"/>
</g>
<defs>
<clipPath id="clip0_1776_2760">
<rect width="202.599" height="192" fill="white"/>
</clipPath>
</defs>
</svg>
