<svg width="350" height="228" viewBox="0 0 350 228" fill="none" xmlns="http://www.w3.org/2000/svg">
<path d="M222.273 73.6391C220.547 68.8839 216.974 64.709 212.007 63.4882C202.854 62.7346 198.085 65.0632 193.353 69.6074C188.622 74.1515 185.904 80.3235 183.269 86.3221C180.635 92.3207 177.826 98.47 172.988 102.901C164.721 110.437 151.973 111.635 143.925 119.42C135.878 127.205 134.666 140.521 139.784 150.43C144.902 160.34 155.379 166.926 166.41 168.991C169.992 169.714 173.668 169.859 177.296 169.421C187.895 167.997 196.98 160.189 201.84 150.671C206.7 141.154 207.851 130.136 207.283 119.473C207.003 114.28 206.382 108.817 208.532 104.077C212.802 94.6719 223.673 91.439 223.416 79.5925C223.36 77.5597 222.973 75.5494 222.273 73.6391Z" fill="#DEC7FB"/>
<path d="M267.221 210.997L218.882 211.082C218.192 211.082 217.616 210.383 217.574 209.522C217.532 208.662 218.046 207.913 218.725 207.851L266.884 203.518C270.793 203.169 274.353 204.671 274.457 206.918C274.561 209.165 271.135 210.99 267.221 210.997Z" fill="#75A1DE"/>
<path d="M204.618 204.141C206.283 203.726 209.341 194.591 209.341 194.591C209.341 194.591 174.429 182.801 159.613 175.118L138.984 199.016C165.483 205.623 203.379 204.452 204.618 204.141Z" fill="#F09959"/>
<path d="M199.248 190.976C207.837 193.2 221.499 187.637 224.066 188.194C226.632 188.751 237.301 194.314 239.856 197.095C242.411 199.876 251.469 208.5 249.831 209.053C248.193 209.607 236.825 201.267 235.433 200.986C234.04 200.706 233.342 202.654 221.963 204.878C210.584 207.102 196.827 201.355 196.827 201.355L199.248 190.976Z" fill="#F09959"/>
<path d="M212.917 199.596C212.917 199.596 226.156 196.258 227.779 196.815C229.402 197.372 239.289 199.596 246.129 207.386C239.607 205.439 230.334 204.882 227.779 204.882C225.224 204.882 212.917 199.596 212.917 199.596Z" fill="#E38540"/>
<path d="M216.082 194.033C221.733 201.267 236.085 203.491 238.256 205.996C240.428 208.5 233.031 207.436 229.126 207.106C219.189 206.272 212.245 210.306 204.189 207.805C196.132 205.304 194.325 199.319 194.325 199.319L216.082 194.033Z" fill="#F09959"/>
<path d="M110.139 65.6595C84.6416 78.2057 72.975 87.383 65.0565 121.595C57.1381 155.807 56.7238 188.344 60.8978 212.542C89.1992 213.364 170.317 216.421 170.317 216.421C170.317 216.421 168.782 166.74 160.484 127.426C152.566 89.8799 141.302 75.2747 131.734 68.6021C122.166 61.9295 110.139 65.6595 110.139 65.6595Z" fill="#9145F1"/>
<path d="M116.308 182.083C107.169 172.905 109.644 110.739 94.6431 82.7847L66.7254 134.936L58.2852 178.345C58.2123 190.88 59.1522 202.446 60.8901 212.557C60.9389 212.831 61.0886 213.076 61.3096 213.245C61.5305 213.414 61.8067 213.493 62.0833 213.467C85.1326 211.447 86.414 201.417 160.031 190.292C161.769 190.015 122.526 188.329 116.308 182.083Z" fill="#9145F1"/>
<path d="M107.702 65.6595C104.472 73.208 111.036 83.0921 121.406 90.8787C131.776 98.6654 138.072 94.4013 137.519 88.2819C136.967 82.1624 136.407 75.6742 133.997 71.7636C131.588 67.853 112.329 64.5301 112.329 64.5301C112.329 64.5301 108.266 64.3649 107.702 65.6595Z" fill="white"/>
<path d="M120.029 27.8326L110.138 65.6594C109.658 66.9088 109.473 68.2527 109.598 69.5857C109.723 70.9187 110.155 72.2046 110.86 73.3424C114.888 79.8728 123.551 92.3691 129.75 90.7134C138.083 88.4892 132.528 72.9121 132.528 72.9121L143.654 33.687L120.029 27.8326Z" fill="#F09959"/>
<path d="M135.179 30.1642L125.308 26.1652L122.342 33.8866C123.7 66.758 127.882 80.1724 134.304 83.9139C134.65 78.8432 132.528 72.8966 132.528 72.8966L140.585 43.7015L135.179 30.1642Z" fill="#E38540"/>
<path d="M162.598 44.9846C160.679 58.0456 155.535 69.2242 146.224 67.849C136.913 66.4737 120.922 55.5563 122.848 42.4953C124.774 29.4344 145.679 13.8073 154.99 15.1825C164.301 16.5578 164.524 31.9275 162.598 44.9846Z" fill="#F09959"/>
<path d="M91.7236 94.0516C92.4679 91.086 80.598 89.315 78.7219 91.7159C60.0615 115.475 31.0427 179.662 37.5569 191.264C45.0572 204.613 125.86 187.08 127.529 186.654C129.198 186.227 124.613 173.72 124.613 173.72C124.613 173.72 79.3434 174.557 71.6706 169.409C95.4258 124.776 86.0994 116.516 91.7236 94.0516Z" fill="#F09959"/>
<path d="M87.1429 80.6988C67.5425 89.4957 46.3193 146.622 46.3193 146.622C46.3193 146.622 51.3067 147.871 67.5694 153.295C74.3254 155.55 80.8473 157.643 80.8473 157.643C80.8473 157.643 96.4041 137.429 101.296 121.587C107.61 101.181 99.2238 75.2631 87.1429 80.6988Z" fill="#9145F1"/>
<path d="M48.4103 141.259C66.7408 143.626 77.6938 150.018 83.2605 154.382C84.0968 153.229 85.1097 151.781 86.2261 150.133C82.3896 146.515 73.984 140.065 61.7841 138.355C56.8313 137.664 53.06 137.203 50.1942 136.93C49.519 138.536 48.9205 139.992 48.4103 141.259Z" fill="white"/>
<path d="M52.6149 131.31C52.3003 132.025 51.996 132.721 51.7018 133.4C67.8149 132.755 83.2527 140.606 87.1544 145.404L88.3782 146.903C88.7797 146.285 89.189 145.645 89.6059 144.982C86.9664 142.377 82.2744 138.194 77.5249 136.12C67.8034 131.883 53.8656 131.349 52.6149 131.31Z" fill="white"/>
<path d="M160.587 190.096H140.028L136.974 151.662H163.921L160.587 190.096Z" fill="#75A1DE"/>
<path d="M122.112 173.87C127.805 173.727 137.113 167.193 140.308 165.384C143.504 163.575 161.558 159.683 162.391 161.631C163.223 163.578 147.252 167.608 147.252 167.608L159.199 168.165C159.199 168.165 162.652 173.451 162.947 176.927C163.243 180.404 161.835 185.413 161.835 185.413L156.559 180.684C156.559 180.684 152.251 183.047 146.834 186.247C141.417 189.447 131.695 187.499 127.529 186.662C123.363 185.824 113.637 182.77 113.637 182.77L122.112 173.87Z" fill="#F09959"/>
<path d="M47.662 172.068C47.662 172.068 56.8695 166.736 66.1345 168.034C71.4403 168.78 72.0157 169.644 71.6896 169.425C72.838 167.271 73.9096 165.199 74.9046 163.21C70.0783 163.425 57.7135 164.731 47.662 172.068Z" fill="#E38540"/>
<path d="M285.63 106.34V201.051C285.63 204.201 282.665 206.752 279.009 206.752H259.148C255.76 206.752 253.009 209.118 253.009 212.038H281.591C287.729 212.038 292.716 207.743 292.716 202.434V106.34H285.63Z" fill="#FFB93E"/>
<path d="M271.106 187.456L267.952 186.853C265.869 186.469 264.545 184.668 265.006 182.874L289.72 86.7333C290.184 84.9432 292.264 83.7984 294.324 84.1979L297.477 84.7972C299.557 85.1813 300.884 86.9868 300.424 88.7769L275.725 184.917C275.264 186.711 273.185 187.852 271.106 187.456Z" fill="#E2810E"/>
<path d="M271.985 187.606L271.601 187.533C269.993 187.226 268.969 185.843 269.322 184.46L294.42 86.837C294.777 85.4502 296.384 84.5705 297.992 84.8778L298.375 84.947C299.983 85.2543 301.007 86.6372 300.65 88.0202L275.556 185.647C275.18 187.045 273.573 187.925 271.985 187.606Z" fill="#FFB93E"/>
<path d="M347.116 228H2.88359C2.11881 228 1.38536 227.027 0.844583 225.294C0.303805 223.562 0 221.213 0 218.763C0 216.313 0.303805 213.963 0.844583 212.231C1.38536 210.498 2.11881 209.525 2.88359 209.525H347.116C347.881 209.525 348.615 210.498 349.155 212.231C349.696 213.963 350 216.313 350 218.763C350 221.213 349.696 223.562 349.155 225.294C348.615 227.027 347.881 228 347.116 228Z" fill="#DEC7FB"/>
<path d="M124.31 11.5219C105.071 23.4688 117.248 36.3915 112.134 58.5798C115.276 59.6592 118.709 53.4591 120.9 48.592C123.09 43.7248 125.039 36.645 125.768 36.887C126.497 37.129 127.717 48.1041 127.717 48.1041L130.641 49.5677C130.641 49.5677 134.78 42.2689 134.535 40.5441C134.289 38.8193 130.882 30.5563 135.022 26.6457C137.684 24.141 148.66 29.5729 148.66 29.5729L137.945 14.2071L124.31 11.5219Z" fill="#F09959"/>
<path opacity="0.5" d="M124.31 11.5219C105.071 23.4688 117.248 36.3915 112.134 58.5798C115.276 59.6592 118.709 53.4591 120.9 48.592C123.09 43.7248 125.039 36.645 125.768 36.887C126.497 37.129 127.717 48.1041 127.717 48.1041L130.641 49.5677C130.641 49.5677 134.78 42.2689 134.535 40.5441C134.289 38.8193 130.882 30.5563 135.022 26.6457C137.684 24.141 148.66 29.5729 148.66 29.5729L137.945 14.2071L124.31 11.5219Z" fill="#2E5B9A"/>
<path d="M166.434 24.4444C165.46 36.1494 147.344 32.4846 138.919 22.009C130.863 12.0212 124.272 18.9012 116.284 22.251C102.891 27.8595 117.988 -4.57011 145.019 0.550555C165.287 4.39202 167.083 16.6539 166.434 24.4444Z" fill="#303C60"/>
<path d="M126.163 36.8757C126.996 41.2396 125.365 45.2155 122.526 45.761C119.687 46.3065 116.71 43.2026 115.878 38.8463C115.045 34.4901 116.676 30.5027 119.519 29.961C122.361 29.4194 125.35 32.5079 126.163 36.8757Z" fill="#F09959"/>
</svg>
