<svg width="300" height="204" viewBox="0 0 300 204" fill="none" xmlns="http://www.w3.org/2000/svg">
<path d="M252.546 0H153.337C127.128 0 105.882 21.2833 105.882 47.5375V129.401C105.882 155.656 127.128 176.939 153.337 176.939H252.546C278.754 176.939 300 155.656 300 129.401V47.5375C300 21.2833 278.754 0 252.546 0Z" fill="#E2810E"/>
<path d="M242.165 0H142.956C116.748 0 95.5017 21.2833 95.5017 47.5375V129.401C95.5017 155.656 116.748 176.939 142.956 176.939H242.165C268.373 176.939 289.619 155.656 289.619 129.401V47.5375C289.619 21.2833 268.373 0 242.165 0Z" fill="#FFB93E"/>
<path d="M214.742 69.3599H219.974V59.1359H229.67V54.1439H219.974V43.9199H214.742V54.1439H205.046V59.1359H214.742V69.3599ZM235.424 74.5919H256.784V68.8799H250.112V39.0719H244.88C242.624 40.4639 240.176 41.3759 236.624 42.0479V46.4159H243.056V68.8799H235.424V74.5919Z" fill="white"/>
<path d="M146.663 27.0613H47.4544C21.2461 27.0613 0 48.3445 0 74.5988V156.463C0 182.717 21.2461 204 47.4544 204H146.663C172.872 204 194.118 182.717 194.118 156.463V74.5988C194.118 48.3445 172.872 27.0613 146.663 27.0613Z" fill="#9145F1"/>
<path d="M45.5135 114.047C50.8461 128.23 96.57 165.49 96.57 165.49C96.57 165.49 111.479 153.268 125.278 140.102C135.608 130.366 145.266 120.106 147.555 114.047C152.969 99.9462 147.209 79.7757 127.202 76.3558C107.194 72.9359 96.5395 93.9587 96.5395 93.9587C96.5395 93.9587 85.7928 72.9359 65.8058 76.3558C62.5854 76.8777 59.4836 77.9768 56.6468 79.6012C44.2007 86.6156 41.0663 102.421 45.5135 114.047Z" fill="#F99746"/>
</svg>
