<svg width="400" height="360" viewBox="0 0 400 360" fill="none" xmlns="http://www.w3.org/2000/svg">
<path fill-rule="evenodd" clip-rule="evenodd" d="M218.351 358.383C172.63 354.313 135.639 328.121 100.052 299.468C58.4332 265.96 0.692738 235.626 0.00645414 182.586C-0.681691 129.402 53.9043 94.5664 96.9879 62.6759C132.623 36.2986 174.33 27.5751 218.351 20.967C274.828 12.4892 343.547 -20.917 383.199 19.7125C422.886 60.3787 380.38 126.254 376.08 182.586C372.363 231.279 392.862 286.073 360.077 322.614C326.453 360.09 268.835 362.877 218.351 358.383Z" fill="#F2EAFD"/>
<path d="M205.371 114.936C194.546 108.582 181.221 109.922 170.596 116.062C165.377 119.064 160.885 123.168 157.438 128.084C154.223 132.726 152.008 137.972 149.86 143.169C147.711 148.365 145.579 153.785 142.598 158.667C139.617 163.549 135.337 168.398 129.657 170.251C126.26 171.385 122.662 171.699 119.223 172.659C116.761 173.372 114.381 174.337 112.119 175.539C107.132 178.1 102.696 181.605 99.0617 185.857C95.7307 189.837 93.1325 194.669 92.9493 199.924C92.9121 202.585 93.4599 205.223 94.5545 207.652C95.649 210.082 97.264 212.245 99.2866 213.99C107.056 220.693 118.781 219.369 127.7 215.943C132.371 214.218 136.696 211.682 140.475 208.455C145.33 204.185 148.319 198.327 152.083 193.18C156.029 187.939 161.242 183.772 167.239 181.066C172.994 178.344 179.14 176.598 185.169 174.612C196.969 170.731 209.019 165.105 215.831 154.232C219.227 148.967 220.673 142.692 219.92 136.483C219.069 130.515 216.402 124.948 212.275 120.53C210.262 118.349 207.946 116.466 205.396 114.936C205.187 114.815 204.937 114.781 204.702 114.842C204.467 114.903 204.266 115.055 204.143 115.263C204.02 115.472 203.986 115.72 204.048 115.954C204.11 116.187 204.262 116.387 204.472 116.508C214.673 122.656 220.919 135.201 217.246 146.876C213.499 158.791 202.082 166.395 190.906 170.673C179.731 174.951 167.306 177.194 157.663 184.79C152.391 188.927 149.052 194.57 145.321 200.006C143.686 202.499 141.772 204.8 139.617 206.866C137.931 208.386 136.095 209.733 134.137 210.887C126.101 215.728 115.159 218.988 105.94 215.794C103.621 214.976 101.51 213.663 99.7565 211.948C98.0027 210.232 96.6485 208.156 95.789 205.865C93.9569 201.041 94.8813 195.935 97.3712 191.492C100.115 186.852 103.882 182.892 108.389 179.908C112.832 176.802 117.877 174.649 123.203 173.586C126.534 172.916 129.924 172.37 132.997 170.822C135.473 169.498 137.701 167.76 139.584 165.684C143.239 161.795 145.804 157.053 147.994 152.229C152.516 142.259 155.639 131.287 163.759 123.459C172.128 115.375 184.577 110.559 196.186 113.174C199.106 113.839 201.902 114.956 204.472 116.484C204.673 116.552 204.892 116.55 205.091 116.476C205.29 116.402 205.457 116.261 205.563 116.078C205.67 115.895 205.709 115.681 205.674 115.473C205.639 115.265 205.532 115.075 205.371 114.936Z" fill="#9145F1"/>
<path d="M253.958 77.1205C237.616 62.8026 225.617 71.3406 216.675 80.8884C209.551 88.4995 208.556 90.1875 202.669 98.07C201.796 99.2418 201.137 100.542 201.095 101.992C200.931 110.711 196.4 147.565 201.436 160.281C207.311 175.104 279.751 181.89 279.751 181.89L253.958 77.1205Z" fill="#303C60"/>
<path d="M207.25 168.72C207.412 168.685 207.559 168.595 207.666 168.463C207.772 168.332 207.832 168.166 207.836 167.995C207.84 167.823 207.787 167.655 207.687 167.518C207.586 167.382 207.443 167.284 207.282 167.243C205.229 167.137 203.556 166.182 202.157 164.323C194.393 153.917 198.756 119.18 202.56 100.291C202.586 100.193 202.593 100.091 202.58 99.9909C202.566 99.8907 202.533 99.7944 202.482 99.708C202.431 99.6216 202.364 99.5469 202.284 99.4886C202.204 99.4302 202.113 99.3896 202.017 99.3691C201.921 99.3485 201.823 99.3485 201.727 99.3692C201.631 99.3898 201.541 99.4305 201.461 99.4889C201.381 99.5472 201.313 99.622 201.262 99.7085C201.212 99.7949 201.178 99.8913 201.165 99.9915C200.334 104.115 197.556 118.755 196.688 134.005C195.798 149.672 197.259 160.173 201.026 165.224C202.659 167.413 204.734 168.591 207.198 168.72H207.25Z" fill="#303C60"/>
<path d="M247.375 73.0122C278.172 90.0563 259.394 147.694 298.453 168.245C309.274 173.939 342.527 202.822 320.74 240.92C306.487 265.838 263.893 260.463 249.869 238.413C235.845 216.363 247.375 73.0122 247.375 73.0122Z" fill="#303C60"/>
<path d="M329.012 203.841H329.11C329.299 203.812 329.47 203.709 329.587 203.556C329.704 203.402 329.757 203.209 329.737 203.017C329.707 202.813 329.042 197.954 326.002 191.506C321.949 182.97 315.597 175.755 307.672 170.685C289.697 159.148 277.764 148.274 263.654 94.6805C263.636 94.5816 263.597 94.4877 263.54 94.4046C263.484 94.3215 263.411 94.2511 263.326 94.1976C263.242 94.1441 263.147 94.1087 263.048 94.0936C262.949 94.0785 262.849 94.0842 262.752 94.1101C262.656 94.1359 262.565 94.1815 262.487 94.2441C262.409 94.3066 262.344 94.3847 262.297 94.4736C262.25 94.5624 262.222 94.66 262.214 94.7604C262.205 94.8608 262.218 94.9618 262.25 95.0572C269.066 120.956 275.826 138.462 283.538 150.154C290.687 161.012 298.036 166.229 306.906 171.92C325.58 183.905 328.299 203.02 328.325 203.212C328.353 203.38 328.435 203.533 328.56 203.648C328.685 203.762 328.844 203.83 329.012 203.841Z" fill="#303C60"/>
<path d="M329.022 188.915C329.156 188.913 329.286 188.874 329.399 188.802C329.481 188.752 329.552 188.685 329.607 188.607C329.663 188.529 329.703 188.441 329.724 188.347C329.745 188.254 329.747 188.157 329.73 188.063C329.713 187.969 329.678 187.879 329.626 187.798C325.297 180.906 319.5 175.037 312.641 170.606C287.131 154.234 282.907 144.821 261.839 90.9058C261.744 90.7643 261.603 90.6592 261.439 90.6079C261.276 90.5567 261.099 90.5623 260.939 90.6238C260.779 90.6853 260.645 90.799 260.559 90.9463C260.473 91.0936 260.44 91.2656 260.466 91.4339C271.003 118.403 277.299 134.183 284.183 145.371C291.581 157.395 299.926 164.175 311.841 171.823C318.524 176.139 324.174 181.855 328.391 188.57C328.459 188.675 328.552 188.762 328.662 188.822C328.772 188.882 328.896 188.914 329.022 188.915Z" fill="#303C60"/>
<path d="M247.906 108.134C258.485 130.57 256.859 150.929 256.859 150.929C256.859 150.929 255.638 158.82 250.753 160.492C245.868 162.164 238.956 157.168 239.36 150.519C239.765 143.871 237.734 127.67 235.292 121.852C232.849 116.034 247.906 108.134 247.906 108.134Z" fill="#F09959"/>
<path d="M305.185 262.979C304.489 269.02 306.053 268.518 300.491 269.522C294.929 270.526 285.013 266.838 285.013 266.838L296.142 246.866L305.185 262.979Z" fill="#6791C9"/>
<path d="M256.316 138.866C259.331 148.691 281.943 141.133 289.858 143.401C297.772 145.668 304.556 178.922 305.686 208.776C306.817 238.629 305.31 262.436 302.295 266.215C299.28 269.994 249.532 271.505 245.01 269.994C240.487 268.482 282.697 249.588 282.697 249.588C282.697 249.588 285.335 214.822 281.943 197.061C278.552 179.3 248.025 155.871 248.025 155.871L256.316 138.866Z" fill="#F09959"/>
<path d="M245.902 142.378C237.959 154.433 217.156 152.926 209.969 162.721C202.783 172.516 187.653 226.387 187.653 226.387L171.767 171.762C171.767 171.762 158.884 169.607 163.067 178.543C170.511 194.437 173.28 245.724 181.355 253.01C190.331 261.109 199.261 254.517 204.303 240.333C209.179 226.613 221.324 197.01 230.023 185.708C238.723 174.407 248.179 156.324 248.179 156.324L245.902 142.378Z" fill="#F09959"/>
<path d="M280.327 143.947C264.292 162.332 232.985 161.582 226.112 159.331L219.24 157.079C219.24 157.079 213.895 155.203 209.314 160.456C204.732 165.709 193.66 198.728 191.751 206.232C189.842 213.736 186.788 226.118 186.788 226.118C186.788 226.118 194.981 235.78 194.981 245.539C194.981 255.299 191.503 255.377 191.503 255.377C191.503 255.377 201.682 253.126 203.972 247.123C206.263 241.119 226.88 186.714 226.88 186.714L283.767 187.839L283.003 249.374C283.003 249.374 287.966 244.872 294.839 249.374C301.711 253.877 304.002 264.383 302.856 265.883C301.711 267.384 305.147 267.384 305.147 266.259C305.147 265.133 311.638 237.742 307.056 192.717C302.475 147.692 293.693 142.814 288.73 142.439C285.842 142.19 282.939 142.711 280.327 143.947Z" fill="#9145F1"/>
<path d="M192.161 227.462C195.439 228.482 200.985 240.195 200.985 240.195C200.985 240.195 213.589 212.438 217.37 173.988L221.869 200.072C215.657 216.918 205.911 243.349 204.384 247.466C202.308 253.053 193.938 255.387 192.793 255.646C193.106 255.539 193.798 255.115 194.373 253.435C194.702 253.133 196.596 252.24 196.951 251.907C199.976 249.104 198.717 242.486 196.698 235.104C194.679 227.722 188.872 226.461 192.161 227.462Z" fill="#9145F1"/>
<path d="M279.751 187.571L286.742 159.061C294.355 168.62 295.201 201.31 292.097 223.706C289.559 242.065 285.753 246.829 283.135 248.746C282.709 248.961 282.308 249.214 281.938 249.5L282.784 187.636L279.751 187.571Z" fill="#9145F1"/>
<path d="M299.046 159.061C287.386 190.242 293.216 196.529 277.878 233.13C269.308 253.571 252.796 268.958 252.796 268.958C252.796 268.958 239.495 272.352 222.774 271.22C206.052 270.089 193.804 268.958 193.804 268.958C193.804 268.958 211.369 258.398 212.129 251.232C212.889 244.067 216.188 215.638 211.882 195.518C208.515 179.811 222.394 164.099 222.394 164.099L245.576 162.968L299.046 159.061Z" fill="#9145F1"/>
<path opacity="0.5" d="M278.627 206.578C280.665 199.208 269.974 208.864 252.413 210.644C234.851 212.423 215.256 209.626 224.931 212.675C234.607 215.723 261.073 211.151 256.229 220.807C250.539 232.171 243.817 243.169 234.092 249.769C227.729 254.086 212.462 258.152 227.222 255.866C241.981 253.58 257.756 236.302 264.626 225.121C271.497 213.94 278.172 208.216 278.627 206.578Z" fill="#9145F1"/>
<path d="M239.709 148.287C239.561 140.546 237.8 127.386 235.732 122.226C234.044 118.011 241.025 112.716 245.132 110.049L248.591 109.89C249.119 111.121 249.614 112.348 250.077 113.56C253.732 139.253 242.793 149.87 237.576 152.007C235.32 152.928 232.797 153.033 230.639 152.824C233.856 151.597 236.994 150.203 239.709 148.287Z" fill="#E38540"/>
<path d="M246.636 158.183C248.064 158.181 249.487 158.02 250.874 157.703C254.197 156.959 262.116 154.071 263.959 143.734C263.978 143.627 263.952 143.517 263.885 143.429C263.817 143.34 263.715 143.28 263.601 143.262C263.486 143.244 263.369 143.269 263.274 143.332C263.179 143.394 263.115 143.49 263.095 143.597C261.336 153.45 253.819 156.185 250.667 156.907C245.768 158.023 240.575 156.989 238.581 154.503C236.989 152.508 237.94 148.263 237.952 148.218C237.965 148.116 237.937 148.013 237.874 147.929C237.81 147.845 237.715 147.786 237.607 147.764C237.5 147.743 237.387 147.759 237.292 147.811C237.197 147.862 237.126 147.945 237.092 148.043C237.049 148.233 236.038 152.702 237.888 154.994C239.508 157.029 242.871 158.183 246.636 158.183Z" fill="#F5CE5C"/>
<path d="M211.389 118.926C213.954 132.419 219.882 143.303 229.927 141.25C239.972 139.198 250.504 124.948 247.727 111.499C244.95 98.0513 234.569 88.8059 224.536 90.8584C214.502 92.9108 207.957 100.951 211.389 118.926Z" fill="#F09959"/>
<path d="M174.51 185.402C174.51 185.402 194.349 234.357 195.297 239.439C196.244 244.521 194.353 247.744 193.815 247.744C193.276 247.744 176.405 221.224 176.405 221.224L174.51 185.402Z" fill="#F09959"/>
<path d="M173.853 183.646C172.669 178.226 174.51 171.354 174.51 171.354L169.248 172.26L173.853 183.646Z" fill="#F09959"/>
<path d="M167.611 173.988H185.998C186.258 173.988 186.514 173.927 186.746 173.811C186.978 173.694 187.18 173.525 187.335 173.318C187.49 173.11 187.595 172.868 187.64 172.613C187.685 172.358 187.67 172.096 187.595 171.847L175.989 133.028C175.887 132.685 175.676 132.385 175.388 132.171C175.1 131.957 174.751 131.842 174.392 131.841H156.006C155.746 131.842 155.49 131.902 155.257 132.019C155.025 132.135 154.824 132.304 154.668 132.512C154.513 132.72 154.409 132.961 154.364 133.216C154.319 133.471 154.334 133.734 154.409 133.982L166.014 172.801C166.117 173.144 166.328 173.445 166.616 173.658C166.903 173.872 167.252 173.988 167.611 173.988Z" fill="#4381DB"/>
<path d="M165.331 173.988H184.198C184.464 173.988 184.727 173.927 184.965 173.81C185.204 173.694 185.411 173.525 185.57 173.318C185.73 173.11 185.837 172.869 185.884 172.613C185.931 172.358 185.916 172.096 185.84 171.847L173.93 133.028C173.823 132.685 173.606 132.385 173.31 132.171C173.014 131.958 172.655 131.842 172.287 131.841H153.421C153.154 131.842 152.891 131.902 152.653 132.019C152.414 132.135 152.207 132.304 152.048 132.512C151.888 132.72 151.781 132.961 151.734 133.216C151.687 133.471 151.702 133.733 151.778 133.982L163.689 172.801C163.795 173.144 164.012 173.445 164.308 173.659C164.604 173.873 164.963 173.988 165.331 173.988Z" fill="#2E5B9A"/>
<path d="M178.222 146.156C180.373 153.183 181.82 158.953 181.475 159.059C181.129 159.166 179.072 153.529 176.921 146.503C174.771 139.476 173.323 133.706 173.689 133.599C174.055 133.492 176.072 139.129 178.222 146.156Z" fill="#9CBEED"/>
<path d="M165.314 186.28C164.769 179.773 159.207 173.676 157.09 171.729C156.773 171.437 156.52 171.08 156.348 170.682C156.176 170.284 156.089 169.853 156.093 169.419C156.122 166.176 156.267 158.523 156.927 157.625C157.768 156.498 159.893 141.827 160.861 142.394C161.829 142.961 160.579 155.773 160.579 155.773C160.579 155.773 162.967 154.646 164.231 154.067C165.496 153.489 170.694 159.327 170.694 159.327C170.694 159.327 173.13 165.568 166.467 162.896C158.555 159.722 164.491 168.573 169.763 174.25C174.109 178.932 170.412 179.965 170.412 179.965L166.901 179.822L165.314 186.28Z" fill="#F09959"/>
<path d="M168.306 191.549C168.849 191.545 169.388 191.443 169.906 191.245C171.337 190.703 173.84 188.94 174.501 183.284C174.512 183.227 174.513 183.168 174.504 183.111C174.495 183.053 174.476 182.999 174.449 182.951C174.422 182.903 174.387 182.862 174.347 182.831C174.306 182.801 174.261 182.781 174.213 182.772C174.166 182.764 174.118 182.768 174.072 182.784C174.026 182.8 173.983 182.827 173.946 182.864C173.909 182.901 173.879 182.947 173.858 182.999C173.836 183.051 173.824 183.108 173.821 183.166C173.256 188.004 171.337 189.767 169.822 190.396C168.58 190.912 167.564 190.673 167.307 190.499C167.295 190.408 167.26 190.325 167.206 190.261C167.152 190.197 167.083 190.157 167.008 190.145C166.934 190.134 166.858 190.153 166.793 190.199C166.728 190.245 166.677 190.316 166.648 190.4C166.615 190.507 166.608 190.623 166.627 190.734C166.646 190.846 166.691 190.948 166.757 191.029C166.996 191.348 167.58 191.549 168.306 191.549Z" fill="#F5CE5C"/>
<path d="M168.027 188.915C168.636 188.915 169.245 188.886 169.848 188.829C173.331 188.509 175.667 187.387 176.253 185.75C176.279 185.677 176.258 185.599 176.195 185.536C176.132 185.472 176.031 185.426 175.915 185.41C175.799 185.393 175.678 185.406 175.577 185.446C175.476 185.486 175.405 185.55 175.379 185.624C174.818 187.172 172.583 187.849 170.807 188.13C168.315 188.525 165.974 188.282 165.698 188.076C165.669 188.043 165.63 188.015 165.584 187.992C165.537 187.969 165.484 187.953 165.427 187.943C165.371 187.934 165.311 187.931 165.253 187.936C165.195 187.941 165.139 187.954 165.088 187.973C164.985 188.011 164.91 188.074 164.878 188.147C164.847 188.22 164.863 188.299 164.922 188.365C165.255 188.749 166.564 188.915 168.027 188.915Z" fill="#F5CE5C"/>
<path d="M222.972 124.817C223.173 124.816 223.375 124.8 223.574 124.769C226.689 124.292 228.568 120.277 227.858 115.625C227.586 113.599 226.751 111.691 225.45 110.115C224.148 108.635 222.58 107.943 221.037 108.18C217.923 108.657 216.044 112.672 216.758 117.324C217.423 121.675 220.083 124.817 222.972 124.817ZM221.629 109.579C222.554 109.579 223.515 110.097 224.362 111.059C225.485 112.426 226.201 114.081 226.43 115.836C227 119.559 225.594 122.993 223.356 123.337C221.119 123.681 218.751 120.821 218.178 117.098C217.605 113.375 219.014 109.941 221.252 109.597C221.377 109.581 221.503 109.575 221.629 109.579Z" fill="white"/>
<path d="M212.292 124.817C212.405 124.817 212.519 124.81 212.632 124.794C214.976 124.474 216.248 120.958 215.529 116.787C214.81 112.616 212.398 109.59 210.062 109.914C208.854 110.08 207.906 111.044 207.387 112.672C206.903 114.39 206.829 116.177 207.17 117.921C207.855 121.882 210.062 124.817 212.292 124.817ZM210.407 111.003C211.79 111.003 213.666 113.358 214.291 116.957C214.933 120.695 213.836 123.506 212.445 123.694C211.054 123.883 209.041 121.49 208.408 117.752C208.094 116.166 208.157 114.541 208.591 112.978C208.961 111.821 209.569 111.093 210.25 111.014C210.302 111.007 210.354 111.003 210.407 111.003Z" fill="white"/>
<path d="M226.089 113.402C226.154 113.401 226.22 113.391 226.283 113.371L250.299 106.107C250.48 106.05 250.631 105.92 250.722 105.745C250.812 105.57 250.834 105.364 250.782 105.172C250.731 104.981 250.61 104.818 250.446 104.72C250.282 104.622 250.088 104.596 249.906 104.648L225.89 111.916C225.725 111.968 225.583 112.08 225.49 112.233C225.397 112.386 225.36 112.57 225.384 112.75C225.408 112.93 225.492 113.095 225.622 113.215C225.751 113.335 225.917 113.401 226.089 113.402Z" fill="white"/>
<path d="M207.836 97.5904C246.077 119.992 248.179 104.946 248.179 104.946L245.91 83.5488L223.222 84.8048L207.836 97.5904Z" fill="#303C60"/>
<path d="M245.852 110.627C244.924 114.464 246.192 118.031 248.688 118.595C251.184 119.159 253.957 116.503 254.889 112.666C255.822 108.828 254.55 105.261 252.053 104.697C249.557 104.133 246.784 106.793 245.852 110.627Z" fill="#F09959"/>
<path d="M248.179 115.159C248.179 115.506 248.256 115.845 248.401 116.134C248.545 116.423 248.751 116.648 248.991 116.781C249.231 116.914 249.496 116.949 249.751 116.881C250.006 116.813 250.241 116.646 250.425 116.4C250.609 116.155 250.734 115.842 250.785 115.501C250.835 115.161 250.809 114.807 250.71 114.486C250.61 114.166 250.442 113.891 250.225 113.698C250.009 113.505 249.755 113.402 249.494 113.402C249.146 113.402 248.811 113.587 248.564 113.917C248.317 114.246 248.179 114.693 248.179 115.159Z" fill="#F5CE5C"/>
<path d="M43.2388 285.5H361.033C361.805 285.5 362.546 284.667 363.092 283.185C363.638 281.703 363.945 279.693 363.945 277.598C363.945 275.502 363.638 273.492 363.092 272.01C362.546 270.528 361.805 269.695 361.033 269.695H43.2388C42.4665 269.695 41.7259 270.528 41.1797 272.01C40.6336 273.492 40.3267 275.502 40.3267 277.598C40.3267 279.693 40.6336 281.703 41.1797 283.185C41.7259 284.667 42.4665 285.5 43.2388 285.5Z" fill="#DEC7FB"/>
<path d="M245.72 268.817C245.72 268.817 260.245 269.003 260.432 270.281C260.618 271.559 259.879 272.112 254.718 273.03C249.556 273.948 191.647 274.312 191.102 273.944C190.558 273.576 173.633 269.549 173.633 269.549L214.27 268.817H245.72Z" fill="#DBE5EB"/>
<path d="M236.778 258.59C236.778 258.59 226.676 254.194 223.72 256.146C220.764 258.099 212.221 267.061 212.221 267.061L236.778 258.59Z" fill="#F09959"/>
<path d="M213.267 268.537C213.458 268.785 213.745 268.888 213.903 268.766L234.586 252.773C235.689 251.91 236.23 250.593 235.689 249.898C235.149 249.203 233.8 249.451 232.748 250.39L213.19 267.842C213.043 267.979 213.076 268.288 213.267 268.537Z" fill="#2E5B9A"/>
<path d="M268.281 256.524C268.281 256.524 251.448 263.189 249.47 263.189C247.492 263.189 236.435 255.784 232.723 256.769C229.011 257.754 210.861 266.891 211.354 267.631C211.848 268.372 217.048 270.101 232.392 269.608C247.737 269.116 272.735 266.891 272.735 266.891L268.281 256.524Z" fill="#F09959"/>
<path d="M138.42 255.654H68.7133C68.0951 255.654 67.483 255.769 66.9119 255.995C66.3408 256.22 65.8219 256.55 65.3848 256.967C64.9477 257.383 64.6009 257.877 64.3644 258.421C64.1278 258.965 64.0061 259.548 64.0061 260.137V265.219C64.0081 266.407 64.5049 267.545 65.3875 268.385C66.27 269.224 67.4662 269.695 68.7133 269.695H138.42C138.921 269.695 139.4 269.506 139.754 269.169C140.108 268.832 140.306 268.375 140.306 267.899V257.442C140.306 256.966 140.108 256.509 139.754 256.172C139.4 255.836 138.921 255.646 138.42 255.646V255.654Z" fill="#F37168"/>
<path d="M74.3568 257.402H139.581C140.057 258.186 140.308 259.086 140.306 260.003V264.461C140.308 265.377 140.057 266.277 139.581 267.061H74.3568C73.2411 267.057 72.1721 266.612 71.3831 265.824C70.5942 265.035 70.1492 263.967 70.1453 262.852V261.66C70.1409 261.103 70.2465 260.552 70.4559 260.036C70.6654 259.521 70.9748 259.052 71.3661 258.657C71.7574 258.261 72.2231 257.947 72.7363 257.731C73.2496 257.516 73.8003 257.404 74.3568 257.402Z" fill="#F2E5DE"/>
<path d="M124.139 246.866H71.5423C70.7065 246.866 69.905 247.195 69.314 247.781C68.7231 248.368 68.3911 249.163 68.3911 249.992V252.52C68.3911 253.349 68.7231 254.144 69.314 254.731C69.905 255.317 70.7065 255.646 71.5423 255.646H124.139C124.473 255.646 124.793 255.515 125.029 255.281C125.264 255.047 125.397 254.73 125.397 254.399V248.113C125.397 247.782 125.264 247.465 125.029 247.231C124.793 246.997 124.473 246.866 124.139 246.866Z" fill="#7BCEE8"/>
<path d="M76.7586 247.744H124.862C125.203 248.15 125.39 248.648 125.397 249.162V251.594C125.39 252.108 125.203 252.606 124.862 253.012H76.7586C75.0475 253.012 73.6532 251.975 73.6532 250.705V250.051C73.6532 248.791 75.0475 247.744 76.7586 247.744Z" fill="#F2E5DE"/>
</svg>
