<svg width="278" height="266" viewBox="0 0 278 266" fill="none" xmlns="http://www.w3.org/2000/svg">
<g clip-path="url(#clip0_1776_2775)">
<path d="M148.479 145.774C173.566 157.439 199.47 163.238 221.356 162.105H221.742L223.399 6.88551C223.439 5.62675 223.128 4.38154 222.501 3.28887C221.873 2.19621 220.953 1.29909 219.844 0.697667C218.735 0.0962412 217.48 -0.185832 216.22 -0.117056C214.959 -0.0482803 213.743 0.36864 212.706 1.08715L81.8676 89.1498C92.4699 109.399 116.944 131.075 148.479 145.774Z" fill="#9145F1"/>
<path d="M215.93 177.009C193.226 177.009 167.231 170.757 142.281 159.161C107.863 143.147 81.981 120.316 69.6305 97.5303L3.11032 142.309C1.9579 143.076 1.06718 144.175 0.556907 145.459C0.0466307 146.744 -0.0589814 148.153 0.254272 149.499C0.567526 150.845 1.28472 152.064 2.31015 152.993C3.33558 153.922 4.62051 154.517 5.99359 154.699L117.738 169.851C124.299 170.739 130.32 173.955 134.698 178.911L208.937 263.576C209.844 264.624 211.05 265.369 212.393 265.714C213.736 266.059 215.153 265.987 216.454 265.507C217.755 265.026 218.878 264.161 219.673 263.027C220.468 261.893 220.896 260.544 220.902 259.16L221.742 176.782C219.766 176.941 217.859 177.009 215.93 177.009Z" fill="#DEC7FB"/>
<path d="M215.93 165.253C193.226 165.253 167.209 159.002 142.281 147.405C83.593 120.09 49.6518 72.9325 65.0899 40.0449C80.5281 7.15731 138.489 2.78589 197.177 30.1016C215.63 38.5321 232.621 49.8401 247.51 63.6008C248.934 64.9494 249.762 66.8071 249.814 68.7653C249.865 70.7235 249.134 72.6217 247.782 74.0424C247.113 74.7458 246.311 75.3109 245.423 75.7052C244.535 76.0996 243.577 76.3156 242.605 76.3408C240.643 76.3918 238.74 75.6628 237.316 74.3142C223.589 61.642 207.924 51.2358 190.911 43.4877C141.395 20.4754 89.9045 21.7665 78.4394 46.3869C66.9743 71.0073 99.0765 111.098 148.524 134.11C173.611 145.774 199.493 151.596 221.401 150.44C241.63 149.376 255.66 142.581 260.95 131.301C266.444 119.523 261.132 106.092 255.683 96.8961C255.189 96.0603 254.866 95.1357 254.731 94.1751C254.595 93.2145 254.651 92.2368 254.895 91.2977C255.138 90.3586 255.565 89.4765 256.15 88.7019C256.735 87.9273 257.467 87.2752 258.305 86.7829C259.143 86.2907 260.07 85.9678 261.032 85.8329C261.995 85.698 262.975 85.7535 263.917 85.9965C264.858 86.2394 265.742 86.6649 266.519 87.2487C267.295 87.8325 267.949 88.5632 268.442 89.399C278.658 106.726 280.77 123.827 274.345 137.53C266.648 153.996 248.123 163.826 222.128 165.185C220.13 165.185 218.041 165.253 215.93 165.253Z" fill="#E2810E"/>
<path d="M215.89 159C193.171 159 167.135 152.874 142.189 141.51C83.4592 114.743 49.4938 68.5336 64.9429 36.3066C80.3921 4.07958 138.395 -0.204031 197.124 26.563C215.591 34.8242 232.593 45.905 247.493 59.3893C248.918 60.7108 249.747 62.5312 249.798 64.4501C249.85 66.3689 249.118 68.229 247.766 69.6211C247.096 70.3105 246.293 70.8641 245.405 71.2506C244.516 71.637 243.558 71.8487 242.585 71.8734C240.621 71.9233 238.717 71.209 237.292 69.8875C223.555 57.4699 207.879 47.2726 190.854 39.6802C141.303 17.1302 89.7752 18.3953 78.3019 42.5212C66.8286 66.647 98.9538 105.932 148.437 128.482C173.541 139.912 199.441 145.617 221.366 144.485C241.609 143.441 255.649 136.783 260.943 125.73C266.441 114.189 261.125 101.027 255.672 92.0158C255.178 91.1968 254.854 90.2908 254.719 89.3495C254.584 88.4082 254.639 87.4501 254.883 86.5299C255.127 85.6096 255.553 84.7453 256.139 83.9862C256.725 83.2271 257.458 82.5882 258.296 82.1058C259.134 81.6234 260.062 81.3071 261.025 81.1748C261.989 81.0426 262.97 81.0971 263.912 81.3351C264.854 81.5731 265.738 81.9901 266.515 82.5622C267.292 83.1343 267.946 83.8503 268.44 84.6693C278.664 101.648 280.777 118.406 274.347 131.833C266.645 147.969 248.106 157.602 222.093 158.933C220.093 158.933 218.003 159 215.89 159Z" fill="#FFB93E"/>
</g>
<defs>
<clipPath id="clip0_1776_2775">
<rect width="278" height="266" fill="white"/>
</clipPath>
</defs>
</svg>
