<svg width="350" height="204" viewBox="0 0 350 204" fill="none" xmlns="http://www.w3.org/2000/svg">
<path d="M168.046 176.506C168.046 176.506 187.874 180.188 188.898 179.994C189.922 179.8 211.585 170.692 213.834 172.048C216.083 173.403 229.164 178.638 232.024 179.8C234.883 180.961 230.389 181.349 228.144 181.349C225.899 181.349 213.015 176.312 211.601 177.279C210.187 178.246 222.842 180.188 222.842 180.961C222.842 181.734 188.914 189.101 186.869 189.101C184.825 189.101 169.086 187.746 169.086 187.746L168.046 176.506Z" fill="#E38540"/>
<path d="M321.026 189.101H194.702C194.701 188.048 194.907 187.004 195.307 186.031C195.707 185.058 196.294 184.173 197.034 183.428C197.774 182.683 198.652 182.092 199.619 181.689C200.586 181.286 201.622 181.078 202.669 181.078H321.026V189.101Z" fill="#E2810E"/>
<path d="M91.2647 78.4718C89.4236 73.4566 85.612 69.0533 80.3146 67.7657C70.5515 66.9709 65.464 69.4269 60.4169 74.2196C55.3698 79.0123 52.4708 85.5217 49.6605 91.8484C46.8503 98.1751 43.8543 104.661 38.6942 109.334C29.8759 117.282 16.277 118.546 7.69293 126.756C-0.891173 134.967 -2.18323 149.011 3.27571 159.463C8.73465 169.914 19.9109 176.861 31.6767 179.039C35.4979 179.8 39.4186 179.953 43.2891 179.492C54.5946 177.99 64.285 169.755 69.4694 159.717C74.6537 149.679 75.8812 138.058 75.2755 126.812C74.9768 121.336 74.3146 115.573 76.608 110.574C81.1625 100.655 92.7587 97.2451 92.4841 84.7508C92.4238 82.6068 92.012 80.4865 91.2647 78.4718Z" fill="#DEC7FB"/>
<path d="M267.794 52.1386C257.296 46.0345 244.375 47.3221 234.071 53.2196C229.011 56.1036 224.655 60.0459 221.312 64.7681C218.195 69.227 216.047 74.266 213.963 79.2574C211.88 84.2488 209.813 89.4548 206.922 94.1442C204.031 98.8335 199.88 103.491 194.373 105.271C191.078 106.36 187.589 106.662 184.254 107.584C181.867 108.27 179.559 109.196 177.366 110.35C172.529 112.81 168.228 116.177 164.704 120.262C161.474 124.085 158.954 128.726 158.776 133.773C158.74 136.33 159.272 138.863 160.333 141.197C161.394 143.531 162.961 145.608 164.922 147.285C172.456 153.723 183.826 152.451 192.475 149.161C197.004 147.503 201.198 145.068 204.863 141.968C209.57 137.866 212.47 132.239 216.12 127.296C219.946 122.261 225.001 118.259 230.817 115.66C236.397 113.045 242.356 111.368 248.203 109.46C259.646 105.732 271.331 100.328 277.936 89.884C281.23 84.827 282.632 78.7991 281.901 72.8354C281.077 67.1027 278.49 61.7554 274.488 57.5115C272.536 55.417 270.29 53.6078 267.818 52.1386C267.615 52.0216 267.372 51.989 267.144 52.0479C266.916 52.1068 266.722 52.2523 266.603 52.4526C266.484 52.6528 266.451 52.8914 266.51 53.1157C266.57 53.34 266.718 53.5318 266.922 53.6488C276.814 59.5542 282.87 71.6034 279.309 82.8182C275.675 94.2634 264.604 101.568 253.767 105.677C242.93 109.786 230.881 111.94 221.53 119.236C216.418 123.21 213.18 128.631 209.562 133.853C207.976 136.247 206.121 138.457 204.031 140.442C202.396 141.902 200.616 143.196 198.717 144.304C190.924 148.954 180.313 152.086 171.374 149.018C169.125 148.232 167.078 146.971 165.378 145.323C163.677 143.675 162.364 141.681 161.53 139.48C159.754 134.846 160.65 129.942 163.065 125.674C165.725 121.218 169.378 117.413 173.748 114.547C178.057 111.563 182.949 109.495 188.114 108.475C191.344 107.831 194.631 107.306 197.611 105.82C200.012 104.548 202.173 102.878 203.998 100.884C207.544 97.1485 210.031 92.5943 212.155 87.9606C216.54 78.3831 219.568 67.844 227.441 60.3251C235.557 52.5599 247.63 47.9341 258.887 50.4457C261.718 51.0845 264.429 52.1573 266.922 53.6249C267.117 53.691 267.329 53.6882 267.522 53.6171C267.715 53.5461 267.877 53.4112 267.98 53.2355C268.083 53.0598 268.121 52.8543 268.087 52.6542C268.053 52.4541 267.949 52.2718 267.794 52.1386Z" fill="#9145F1"/>
<path d="M182.621 29.3296C183.837 58.052 183.533 73.6104 172.906 85.5752C162.279 97.54 132.532 94.5536 132.532 94.5536C132.532 94.5536 129.599 136.832 88.0081 138.631C46.417 140.429 40.4503 85.9749 73.033 72.0115C104.048 58.7208 113.914 54.8581 124.639 21.9501C134.443 -8.10981 165.013 -2.38301 172.302 10.1814C179.591 22.7457 182.621 29.3296 182.621 29.3296Z" fill="#303C60"/>
<path d="M151.821 69.9099C162.808 72.0112 169.276 83.3392 171.379 93.2729C173.483 103.207 151.821 69.9099 151.821 69.9099Z" fill="#9145F1"/>
<path d="M134.619 62.7661C134.619 62.7661 114.291 76.2608 103.371 82.877C92.4514 89.4932 107.315 160.61 110.955 187.021C114.595 213.432 177.698 189.423 177.698 189.423C177.698 189.423 173.462 167.215 178.918 131.496C182.815 105.914 168.5 89.8788 160.313 78.7746C139.63 50.7482 134.619 62.7661 134.619 62.7661Z" fill="#9145F1"/>
<path d="M114.615 83.1779C137.974 111.389 145.87 116.664 140.098 135.699C135.546 150.705 134.03 156.107 133.122 161.211C132.214 166.316 176.501 157.907 176.501 157.907L176.19 174.417C176.19 174.417 141.291 190.93 124.303 194.223C107.315 197.516 96.6876 193.629 96.6876 193.629L114.615 83.1779Z" fill="#9145F1"/>
<path d="M142.471 34.382L132.119 65.3774C132.119 65.3774 143.465 96.4736 153.004 89.5276C156.267 87.1579 151.812 68.3947 151.812 68.3947L158.775 43.2361L142.471 34.382Z" fill="#F09959"/>
<path d="M108.05 82.5385C93.5144 84.1228 92.2621 103.391 85.5793 135.563C78.8966 167.736 80.8979 188.971 84.0618 193.058C91.6535 202.889 176.988 168.631 187.615 168.93C194.953 169.133 188.832 157.013 188.832 157.013L107.446 169.224C107.446 169.224 118.985 131.989 118.985 112.924C118.985 93.8584 113.52 81.9415 108.05 82.5385Z" fill="#F09959"/>
<path d="M184.587 157.809C193.082 155.685 205.516 150.829 207.944 152.953C210.371 155.077 220.382 170.246 223.717 174.494C227.053 178.743 222.202 175.402 218.562 172.066C216.499 170.148 214.264 168.422 211.887 166.91C211.887 166.91 207.336 171.158 203.092 173.582C198.849 176.006 197.329 171.158 190.046 169.942C182.763 168.726 164.57 175.122 164.57 175.122L184.587 157.809Z" fill="#F09959"/>
<path d="M110.188 79.3407C101.237 79.7286 94.3227 87.1932 91.881 98.6694C89.4392 110.146 82.3216 146.588 82.3216 146.588C82.3216 146.588 80.8989 147.597 95.7455 150.212C110.592 152.826 122.789 149.824 122.789 149.824C122.789 149.824 125.842 129.086 125.027 114.79C124.212 100.493 120.951 86.9915 115.679 82.3746C110.408 77.7577 110.188 79.3407 110.188 79.3407Z" fill="#9145F1"/>
<path d="M151.498 67.8185L158.775 43.0862L141.724 34.382L139.107 41.7212C138.542 66.2935 145.154 74.5097 149.614 77.514C151.005 78.4519 152.203 77.7275 153.221 76.1949C152.487 71.7417 151.498 67.8185 151.498 67.8185Z" fill="#E38540"/>
<path d="M185.43 37.4229C185.43 50.6419 183.818 66.8497 172.126 66.4651C153.982 65.8712 142.55 52.0506 142.55 38.8316C142.55 25.6126 152.036 14.8988 163.736 14.8988C175.436 14.8988 185.43 24.2039 185.43 37.4229Z" fill="#F09959"/>
<path d="M321.444 189.101H252.649L280.939 127.84C281.348 126.968 282.002 126.23 282.825 125.713C283.647 125.195 284.603 124.921 285.579 124.921H348.013C348.345 124.921 348.673 125.002 348.965 125.159C349.257 125.316 349.504 125.542 349.684 125.817C349.864 126.092 349.971 126.408 349.995 126.734C350.018 127.061 349.958 127.388 349.82 127.686L321.444 189.101Z" fill="#E2810E"/>
<path d="M348.035 124.921H293.45C292.481 124.923 291.533 125.201 290.719 125.721C289.904 126.241 289.257 126.982 288.853 127.856L260.762 189.101H321.671L349.829 127.67C349.962 127.373 350.019 127.048 349.994 126.723C349.969 126.399 349.862 126.086 349.684 125.813C349.506 125.54 349.262 125.315 348.974 125.16C348.686 125.004 348.363 124.922 348.035 124.921Z" fill="#FFB93E"/>
<path d="M165.058 10.362C177.999 9.48932 185.662 20.7633 187.896 30.635C189.508 37.7582 188.71 39.1492 188.71 39.1492C188.71 39.1492 187.29 41.0848 177.138 41.6666C166.987 42.2484 165.77 42.0395 165.77 42.0395L165.16 30.814L162.116 41.6516C162.116 41.6516 160.489 43.7811 154.198 40.8759C147.908 37.9707 145.06 28.2967 145.06 28.2967C145.06 28.2967 143.64 21.9119 148.514 17.653C153.389 13.394 165.058 10.362 165.058 10.362Z" fill="#303C60"/>
<path d="M155.1 39.6806C153.898 47.8435 147.564 53.6274 140.951 52.6012C134.337 51.575 129.946 44.1197 131.163 35.9568C132.379 27.794 138.698 22.0101 145.312 23.0402C151.926 24.0702 156.298 31.5178 155.1 39.6806Z" fill="#D54A41"/>
<path d="M150.45 39.3114C149.333 46.8592 144.112 52.3142 138.796 51.4911C133.48 50.668 130.063 43.8773 131.168 36.3295C132.272 28.7817 137.509 23.3267 142.84 24.1498C148.171 24.9729 151.566 31.7597 150.45 39.3114Z" fill="#F39892"/>
<path d="M142.388 37.8324C141.766 41.9322 139.516 44.9955 137.363 44.6731C135.21 44.3506 133.973 40.7613 134.6 36.6615C135.226 32.5617 137.471 29.4983 139.624 29.8208C141.777 30.1432 143.011 33.7287 142.388 37.8324Z" fill="#F2E5DE"/>
<path d="M142.55 23.5319C148.38 1.6671 168.506 4.85539 173.595 7.90035C177.878 10.4649 178.477 14.0987 178.477 14.0987C178.477 14.0987 172.946 9.57392 163.528 11.232C154.591 12.8048 149.275 18.1199 148.549 23.9968C148.157 26.9836 142.55 23.5319 142.55 23.5319Z" fill="#D54A41"/>
<path d="M51.4597 93.9771H51.4168C51.3556 93.9713 51.2961 93.9536 51.2417 93.9251C51.1874 93.8966 51.1393 93.8578 51.1001 93.8109C51.061 93.764 51.0316 93.71 51.0136 93.6519C50.9956 93.5938 50.9894 93.5327 50.9953 93.4723C51.5261 87.9733 54.3087 82.3202 58.8318 77.5534C63.9481 72.1584 71.2225 67.9196 79.8785 65.276C99.1613 59.3878 115.985 51.9004 126.577 19.7813C126.62 19.6704 126.704 19.5799 126.812 19.5286C126.921 19.4773 127.045 19.4691 127.159 19.5057C127.274 19.5424 127.369 19.621 127.427 19.7254C127.484 19.8298 127.498 19.9519 127.467 20.0665C122.608 34.8255 115.997 45.573 107.251 52.9216C99.5359 59.4033 90.8604 62.9023 80.1751 66.1585C71.6752 68.7558 64.5374 72.9137 59.5342 78.1853C55.1555 82.8096 52.4588 88.2623 51.9476 93.5609C51.9357 93.6787 51.8785 93.7876 51.7877 93.8651C51.697 93.9425 51.5796 93.9826 51.4597 93.9771Z" fill="#303C60"/>
<path d="M59.5768 72.2019C59.5046 72.2023 59.4334 72.1858 59.3687 72.1537C59.3041 72.1215 59.2478 72.0746 59.2044 72.0167C59.1282 71.9179 59.0942 71.7928 59.1096 71.6688C59.125 71.5448 59.1887 71.432 59.2867 71.3551C65.4022 67.003 72.3176 63.9157 79.631 62.2726C102.609 57.1879 118.046 43.3043 124.239 22.1304C124.255 22.0689 124.283 22.0112 124.321 21.9608C124.36 21.9103 124.408 21.8682 124.463 21.8368C124.518 21.8055 124.579 21.7856 124.641 21.7784C124.704 21.7711 124.768 21.7767 124.828 21.7947C124.889 21.8127 124.945 21.8428 124.994 21.8832C125.043 21.9235 125.083 21.9734 125.112 22.0297C125.142 22.0861 125.159 22.1478 125.164 22.2111C125.169 22.2744 125.161 22.3381 125.141 22.3983C121.307 35.4784 114.095 45.8054 103.703 53.0839C97.0079 57.7708 88.9799 61.1738 79.8348 63.1982C72.6625 64.8091 65.8804 67.8361 59.8825 72.1034C59.7954 72.1715 59.6871 72.2064 59.5768 72.2019Z" fill="#303C60"/>
<path d="M346.398 204H70.8209C70.3479 204 69.8795 203.793 69.4424 203.389C69.0054 202.986 68.6083 202.395 68.2738 201.65C67.9393 200.905 67.674 200.021 67.4929 199.048C67.3119 198.074 67.2188 197.031 67.2188 195.978C67.2188 194.924 67.3119 193.881 67.4929 192.907C67.674 191.934 67.9393 191.05 68.2738 190.305C68.6083 189.56 69.0054 188.969 69.4424 188.566C69.8795 188.163 70.3479 187.955 70.8209 187.955H346.398C347.353 187.955 348.269 188.8 348.945 190.305C349.62 191.809 350 193.85 350 195.978C350 198.105 349.62 200.146 348.945 201.65C348.269 203.155 347.353 204 346.398 204Z" fill="#DEC7FB"/>
</svg>
