<svg width="350" height="230" viewBox="0 0 350 230" fill="none" xmlns="http://www.w3.org/2000/svg">
<path d="M83.928 28.2143C82.2348 23.5502 78.7296 19.4553 73.8581 18.2578C64.8798 17.5187 60.2013 19.8027 55.56 24.2598C50.9186 28.7169 48.2526 34.7705 45.6683 40.6542C43.084 46.5379 40.3289 52.5694 35.5836 56.9156C27.4742 64.3072 14.9685 65.4824 7.07449 73.1179C-0.819532 80.7533 -2.00772 93.8142 3.01237 103.534C8.03247 113.254 18.3103 119.714 29.1302 121.739C32.6442 122.448 36.2497 122.59 39.8091 122.161C50.2057 120.764 59.1171 113.106 63.8847 103.771C68.6523 94.4351 69.7811 83.6286 69.2241 73.1696C68.9494 68.0768 68.3404 62.718 70.4495 58.0687C74.6378 48.844 85.3018 45.6731 85.0493 34.0536C84.9938 32.0597 84.6152 30.0879 83.928 28.2143Z" fill="#DEC7FB"/>
<path d="M18.1938 217.448H338.482C339.26 217.448 340.007 216.594 340.557 215.073C341.108 213.553 341.417 211.491 341.417 209.341C341.417 207.192 341.108 205.13 340.557 203.609C340.007 202.089 339.26 201.235 338.482 201.235H18.1938C17.4154 201.235 16.6689 202.089 16.1186 203.609C15.5681 205.13 15.2589 207.192 15.2589 209.341C15.2589 211.491 15.5681 213.553 16.1186 215.073C16.6689 216.594 17.4154 217.448 18.1938 217.448Z" fill="#DEC7FB"/>
<path d="M133.042 106.103C136.598 103.725 167.954 116.54 167.604 119.996C167.255 123.451 182.926 154.062 182.926 154.062L216.681 131.915H216.695C216.992 131.114 220.193 122.491 220.348 120.96C220.511 119.344 226.213 116.515 228.863 116.931C231.514 117.347 226.599 120.072 226.276 120.585C225.397 121.959 228.794 122.464 228.794 122.464C228.794 122.464 238.545 118.058 238.753 115.468C238.961 112.878 240.972 107.45 243.079 108.585C244.168 109.174 244.156 113.022 243.819 114.85C244.443 112.776 245.332 110.432 246.196 110.2C247.773 109.776 248.556 111.428 248.269 112.238C247.982 113.049 245.437 121.859 244.664 122.841C243.89 123.822 228.157 134.25 225.888 136.517C225.888 136.517 182.231 177.587 179.122 178.661C176.395 179.604 166.673 165.452 157.48 156.055C148.287 146.658 121.934 113.54 133.042 106.103Z" fill="#F09959"/>
<path d="M174.537 133.639L141.912 136.388C141.912 136.388 140.416 114.379 140.416 103.878C140.416 91.1401 141.735 74.7342 143.602 75.0856C148.85 76.0673 155.938 78.4469 160.121 83.2179C172.749 97.6153 174.537 133.639 174.537 133.639Z" fill="#9145F1"/>
<path d="M158.509 101.625C159.194 105.508 172.992 201.575 172.992 201.575C115.443 201.575 70.6399 201.575 70.6399 201.575C70.6399 201.575 81.4931 141.155 79.1637 131.069C77.622 124.394 75.6997 80.0216 80.9592 78.7827C87.7054 77.1885 95.4403 75.4961 103.874 74.7755C111.071 74.161 139.032 73.8036 144.033 75.1878C144.033 75.1819 155.637 85.2913 158.509 101.625Z" fill="#9145F1"/>
<path d="M179.117 178.683C179.431 178.519 179.731 178.336 180.012 178.135C178.956 167.792 179.148 157.769 183.093 154.378C182.997 154.215 182.136 152.707 181.235 151.143C176.663 154.052 174.489 161.782 175.341 174.332C175.401 175.196 175.703 175.854 175.945 176.932C177.269 178.131 178.473 178.907 179.117 178.683Z" fill="#F09959"/>
<path d="M32.5828 198.614C32.5469 198.388 32.542 198.16 32.5684 197.933C33.4446 190.621 40.8228 129.215 42.0653 126.612C43.1856 124.256 76.2727 85.3121 76.2727 85.3121L92.5349 103.544L60.7143 138.474C59.9961 140.693 48.5218 182.142 48.5218 182.142C48.5218 182.142 46.1685 189.693 45.1176 194.222C45.5964 195.312 46.0752 196.343 46.4893 197.187C47.4481 198.787 48.5964 200.306 49.9175 201.722C51.3395 203.293 53.6904 206.719 53.9872 207.636C54.3224 208.702 54.9305 210.919 55.2752 212.256C55.6199 213.593 56.0891 215.15 56.1681 215.876C56.216 216.318 56.7714 217.2 57.1975 217.822C57.3389 218.026 57.4016 218.261 57.3775 218.495C57.3534 218.729 57.2435 218.952 57.0624 219.134C56.8812 219.316 56.6372 219.449 56.3622 219.516C56.0873 219.582 55.7944 219.579 55.5218 219.506C54.3655 219.19 53.4653 217.959 52.9099 217.192C51.3443 215.032 50.516 211.07 50.121 211.28C49.726 211.49 48.359 218.199 48.1412 218.959C47.9233 219.719 46.2786 227.507 45.3498 228.933C44.4209 230.358 43.1952 230.111 42.8649 229.227C42.5848 228.459 43.8919 217.557 43.8919 217.557C43.8919 217.557 44.0546 216.167 43.3149 216.601C42.5752 217.035 41.3638 226.932 40.8491 228.381C40.3344 229.83 39.1734 230.598 38.1655 229.433C36.9541 228.018 39.0369 217.521 39.0369 217.521C39.0369 217.521 39.2763 216.202 38.5844 216.324C37.8926 216.446 37.0427 224.88 36.5089 225.611C35.975 226.341 34.632 226.592 33.988 225.385C33.2339 223.954 35.185 214.586 35.185 214.586C35.185 214.586 35.0892 213.842 34.6631 214.09C34.237 214.337 32.8796 221.484 31.9962 222.139C31.91 222.216 31.8055 222.278 31.6891 222.321C31.5727 222.364 31.4468 222.387 31.3193 222.388C31.1917 222.39 31.0651 222.37 30.9473 222.33C30.8295 222.29 30.7229 222.23 30.6341 222.155C29.0133 221.244 31.5007 214.447 31.4743 211.066C31.448 207.685 33.356 203.888 32.7886 199.863C32.7479 199.623 32.6474 199.003 32.5828 198.614Z" fill="#F09959"/>
<path d="M38.5525 123.577L66.8157 139.194C66.8157 139.194 82.7476 119.686 91.2988 112.741C102.009 104.041 87.3966 77.4004 80.4948 78.8985C65.0561 82.2676 38.5525 123.577 38.5525 123.577Z" fill="#9145F1"/>
<path d="M105.95 51.9434L101.715 74.8735C101.715 74.8735 117.154 102.164 126.373 99.8083C134.108 97.8214 129.349 73.6641 129.349 73.6641C129.349 73.6641 125.135 60.6921 126.399 54.1993C127.663 47.7064 105.95 51.9434 105.95 51.9434Z" fill="#F09959"/>
<path d="M126.404 54.1972C127.668 47.7066 105.95 51.9434 105.95 51.9434L105.6 53.8439C106.148 55.0157 106.945 56.0981 107.956 57.0401C112.806 61.3357 120.388 63.9116 126.943 64.1079C126.287 60.6113 125.894 56.8595 126.404 54.1972Z" fill="#E38540"/>
<path d="M102.388 19.5026C101.775 19.32 97.4682 45.6154 105.639 52.8544C113.809 60.0933 129.732 62.4592 135.444 56.7595C141.759 50.4571 141.443 22.1905 128.741 14.7434C116.038 7.29634 102.388 19.5026 102.388 19.5026Z" fill="#F09959"/>
<path d="M123.9 0.679656C114.085 2.32692 107.719 7.2648 105.382 9.36953C100.925 9.80344 94.8634 11.8316 88.6056 20.3644C80.9113 30.8488 86.5922 42.4641 95.5481 48.1637C104.504 53.8634 104.382 60.4466 104.382 60.4466L105.797 57.0421C106.864 54.4643 107.247 51.729 106.919 49.0198C106.709 47.398 106.287 45.6408 105.483 44.1977C103.328 40.3927 110.111 37.8639 112.011 34.697C113.476 32.2585 113.548 26.6806 115.842 22.6498L118.597 19.5732C118.597 19.5732 124.956 15.5031 131.173 16.6517C137.39 17.8002 136.499 -1.43489 123.9 0.679656Z" fill="#303C60"/>
<path d="M111.585 39.3718C111.65 42.5798 109.878 45.2066 107.626 45.238C105.373 45.2695 103.496 42.6858 103.431 39.4856C103.367 36.2855 105.141 33.6508 107.391 33.6193C109.641 33.5879 111.53 36.1638 111.585 39.3718Z" fill="#F09959"/>
<path d="M124.855 46.7857L137.172 46.2615C137.172 46.2615 137.129 50.1232 131.721 50.4825C125.128 50.9203 124.855 46.7857 124.855 46.7857Z" fill="white"/>
<path d="M221.126 99.2136C221.126 99.2136 228.548 120.909 226.584 137.766C224.765 153.487 227.494 156.108 234.619 155.609C241.743 155.111 259.037 151.616 259.332 146.001C259.626 140.385 256.459 111.565 244.475 96.0957C232.49 80.6264 221.126 99.2136 221.126 99.2136Z" fill="#96D9C9"/>
<path d="M232.641 90.1662C227.889 92.7833 221.126 99.2134 221.126 99.2134C221.126 99.2134 228.548 120.909 226.584 137.766C224.765 153.487 227.494 156.108 234.619 155.609C237.233 155.425 241.214 154.84 245.219 153.893C248.063 115.256 235.909 94.5366 232.641 90.1662Z" fill="#50BFA5"/>
<path d="M206.669 52.3196C206.669 52.3196 178.764 55.6249 183.028 77.7347C187.004 98.3486 210.934 94.1556 217.089 93.1297C223.244 92.1038 206.669 52.3196 206.669 52.3196Z" fill="#E2810E"/>
<path d="M217.06 93.1434C219.992 92.6639 217.872 83.9397 214.788 74.7424C204.262 76.368 192.538 78.1822 182.585 79.7294C187.671 98.0346 210.949 94.1297 217.06 93.1434Z" fill="#E2810E"/>
<path d="M293.592 7.47424C293.592 7.47424 245.883 35.5394 230.466 44.0291L221.449 54.8774L227.849 86.479L243.266 92.6116L318.61 104.639L316.862 97.8007L303.184 67.141L296.203 32.2372L294.161 10.7764L293.592 7.47424Z" fill="#FFB93E"/>
<path d="M303.08 67.3898L301.236 58.299L224.438 73.2018L227.19 86.6003L242.719 92.6909L318.609 104.639L316.851 97.8458L303.08 67.3898Z" fill="#FFB93E"/>
<path d="M230.947 44.3729C230.947 44.3729 224.704 71.5613 243.628 93.6473C243.628 93.6473 244.686 95.6933 242.38 96.9698L228.29 99.9459C228.29 99.9459 221.757 101.86 216.25 94.099C210.743 86.3383 201.007 68.9031 206.771 49.661C206.771 49.661 208.186 44.4532 215.872 43.4963L226.12 41.9003C226.12 41.9003 230.67 41.3165 230.947 44.3729Z" fill="#3C8F7C"/>
<path d="M293.469 7.23484C293.469 7.23484 305.753 -0.154231 312.855 0.0024572C319.957 0.159145 327.057 7.86324 331.663 14.1522C336.27 20.4411 348.362 45.1236 349.518 61.7886C350.674 78.4536 350.478 102.198 340.497 105.023C330.516 107.848 318.233 104.395 318.233 104.395C318.233 104.395 302.11 93.075 292.705 57.8582C283.3 22.6414 293.469 7.23484 293.469 7.23484Z" fill="#E2810E"/>
<path d="M333.759 106.134C333.759 106.134 345.209 93.958 339.374 61.0826C330.187 9.32587 307.028 1.49478 307.028 1.49478C307.028 1.49478 289.887 12.1807 306.262 62.2018C319.755 103.419 333.759 106.134 333.759 106.134Z" fill="#FFB93E"/>
<path d="M300.672 40.525C301.766 46.7666 303.493 53.9005 306.064 62.0667C307.351 66.1541 308.641 69.867 309.926 73.2475C316.931 71.176 328.26 65.9938 323.422 52.8208C318.939 40.6212 307.267 39.8756 300.672 40.525Z" fill="#F47458"/>
<path d="M305.23 62.3215C306.575 66.3154 307.924 69.9434 309.267 73.2466C316.489 71.2505 328.106 66.2907 323.565 53.8145L303.662 57.4754C304.149 59.0501 304.672 60.6655 305.23 62.3215Z" fill="#B75742"/>
<g style="mix-blend-mode:multiply" opacity="0.3">
<path d="M243.623 93.5021C237.561 86.4267 234.024 78.8383 232.026 71.7527L206.501 75.7513C208.529 82.1378 211.602 88.2653 215.635 93.9639C221.265 101.898 227.943 99.9413 227.943 99.9413L242.347 96.8987C244.704 95.5938 243.623 93.5021 243.623 93.5021Z" fill="#3C8F7C"/>
</g>
<path d="M223.037 122.915C223.037 120.38 223.491 118.525 225.141 117.573C226.79 116.621 230.329 115.511 230.537 115.768C230.745 116.026 230.85 118.672 225.433 122.09C222.828 123.286 223.037 122.915 223.037 122.915Z" fill="#F7A491"/>
</svg>
