<svg width="400" height="270" viewBox="0 0 400 270" fill="none" xmlns="http://www.w3.org/2000/svg">
<path d="M77.4075 242.761C64.0512 245.331 24.5918 246.941 10.0485 181.363C9.63613 179.5 11.9501 178.295 13.2206 179.709C19.2042 186.334 29.8492 197.601 38.8914 201.068C66.9112 211.806 77.0536 229.085 80.401 237.176C80.6338 237.736 80.7392 238.342 80.7094 238.948C80.6797 239.554 80.5155 240.146 80.2289 240.681C79.9423 241.215 79.5404 241.68 79.0524 242.039C78.5644 242.399 78.0025 242.646 77.4075 242.761V242.761Z" fill="#BDD0FB"/>
<path d="M78.6997 241.087C78.8801 241.088 79.0547 241.023 79.1911 240.905C79.3275 240.787 79.4166 240.623 79.4419 240.445C79.4671 240.266 79.4268 240.084 79.3285 239.932C79.2301 239.781 79.0803 239.67 78.9068 239.621C59.41 233.936 45.0954 223.018 36.5207 214.853C27.2347 206.011 22.5149 198.439 22.4682 198.364C22.4165 198.28 22.349 198.208 22.2694 198.15C22.1898 198.093 22.0996 198.052 22.0041 198.029C21.9086 198.007 21.8096 198.003 21.7128 198.019C21.6159 198.035 21.5232 198.07 21.4398 198.122C21.3563 198.173 21.2839 198.241 21.2266 198.321C21.1693 198.4 21.1282 198.491 21.1057 198.586C21.0832 198.682 21.0798 198.781 21.0956 198.878C21.1114 198.975 21.146 199.068 21.1977 199.152C21.2444 199.228 26.0677 206.964 35.4905 215.938C44.1855 224.217 58.6971 235.295 78.4894 241.059C78.5578 241.078 78.6286 241.088 78.6997 241.087Z" fill="url(#paint0_linear_1776_2512)"/>
<path d="M46.9267 131.003C45.4075 143.248 37.8044 218.751 77.8983 242.843C78.1775 243.01 78.4948 243.103 78.82 243.112C79.1452 243.122 79.4673 243.047 79.7556 242.896C80.0439 242.745 80.2886 242.523 80.4665 242.25C80.6444 241.977 80.7494 241.663 80.7716 241.338C81.4227 232.339 81.8284 203.742 65.3384 169.991C53.4396 145.64 49.0788 134.662 47.7048 130.906C47.6735 130.821 47.6142 130.748 47.5365 130.701C47.4589 130.654 47.3675 130.634 47.2773 130.645C47.187 130.656 47.1032 130.698 47.0396 130.763C46.9759 130.828 46.9361 130.913 46.9267 131.003Z" fill="#91B3FA"/>
<path d="M80.7732 242.096C80.9026 242.095 81.0296 242.061 81.1419 241.996C81.2542 241.932 81.3479 241.839 81.414 241.728C81.4801 241.617 81.5162 241.49 81.5189 241.36C81.5216 241.231 81.4907 241.103 81.4293 240.989C61.2113 203.763 52.7384 159.694 52.7134 157.51C52.7395 157.324 52.6951 157.136 52.589 156.981C52.4829 156.826 52.3228 156.717 52.1403 156.675C51.9578 156.633 51.7662 156.661 51.6034 156.754C51.4405 156.847 51.3183 156.997 51.2608 157.176C50.7717 158.741 59.9908 204.633 80.1221 241.701C80.1854 241.819 80.2793 241.918 80.3938 241.987C80.5083 242.057 80.6393 242.094 80.7732 242.096Z" fill="#BDD0FB"/>
<path d="M318.056 173.399C318.056 173.399 305.507 153.067 311.767 141.988C318.026 130.908 334.033 116.884 317.398 86.8822C307.66 69.3163 303.658 61.4873 302.011 58.0142C301.862 57.6986 301.642 57.4219 301.369 57.2056C301.095 56.9894 300.775 56.8395 300.434 56.7678C300.093 56.696 299.739 56.7043 299.402 56.7921C299.065 56.8798 298.752 57.0446 298.489 57.2735C290.5 64.2346 265.405 88.3185 270.948 111.847C277.521 139.744 318.056 173.399 318.056 173.399Z" fill="#BDD0FB"/>
<path d="M296.337 69.5804C296.337 69.5804 296.209 69.9617 295.986 70.6924C295.764 71.4231 295.452 72.4816 295.108 73.8494C294.764 75.2172 294.357 76.8827 293.953 78.8073C293.749 79.7688 293.532 80.7922 293.337 81.8774C293.237 82.4192 293.137 82.976 293.033 83.5495C292.93 84.1231 292.848 84.705 292.751 85.3036C292.654 85.9023 292.561 86.5109 292.462 87.133L292.207 89.0392C292.123 89.6858 292.039 90.344 291.955 91.014C291.87 91.684 291.799 92.364 291.743 93.054C291.674 93.7446 291.594 94.4436 291.53 95.1526C291.467 95.8615 291.422 96.5822 291.364 97.308C291.305 98.0337 291.253 98.7694 291.213 99.5118C291.173 100.254 291.15 101.007 291.118 101.763C291.086 102.518 291.046 103.283 291.028 104.052C291.01 104.821 291.01 105.597 291 106.376C290.99 107.155 290.98 107.941 290.983 108.729C290.986 109.516 291.023 110.311 291.045 111.106C291.066 111.902 291.085 112.7 291.106 113.503C291.128 114.305 291.202 115.105 291.25 115.909C291.298 116.713 291.347 117.519 291.395 118.327L291.414 118.629L291.429 118.797L291.444 118.946L291.504 119.544L291.626 120.74C291.992 123.97 292.558 127.174 293.32 130.335C294.067 133.381 294.979 136.384 296.052 139.331C297.083 142.2 298.252 144.904 299.442 147.426C300.633 149.947 301.878 152.275 303.087 154.38C304.296 156.485 305.491 158.368 306.593 160.007C307.695 161.645 308.695 163.043 309.545 164.187C310.395 165.331 311.102 166.184 311.587 166.772C311.835 167.065 312.026 167.287 312.153 167.441C312.279 167.595 312.356 167.674 312.356 167.674C312.496 167.828 312.689 167.923 312.897 167.938C313.104 167.953 313.309 167.887 313.47 167.754C313.63 167.621 313.732 167.431 313.756 167.224C313.78 167.017 313.723 166.809 313.597 166.643L313.582 166.625L313.415 166.404L312.914 165.735C312.47 165.145 311.839 164.256 311.047 163.117C310.256 161.978 309.326 160.567 308.313 158.92C307.299 157.273 306.206 155.382 305.069 153.293C303.932 151.205 302.788 148.894 301.661 146.416C300.534 143.937 299.464 141.274 298.471 138.481C297.454 135.612 296.588 132.691 295.878 129.731C295.136 126.688 294.583 123.602 294.222 120.491L294.098 119.293L294.036 118.696L294.008 118.42L293.988 118.124C293.93 117.332 293.875 116.541 293.821 115.752C293.768 114.962 293.712 114.175 293.654 113.389C293.625 112.602 293.596 111.817 293.567 111.035C293.538 110.252 293.509 109.472 293.479 108.694C293.472 107.913 293.465 107.142 293.459 106.379C293.452 105.617 293.444 104.854 293.435 104.092C293.435 103.334 293.462 102.587 293.474 101.836C293.486 101.085 293.504 100.351 293.519 99.6189C293.534 98.8865 293.587 98.1607 293.619 97.4451C293.651 96.7294 293.683 96.0171 293.714 95.3164C293.746 94.6158 293.809 93.9235 293.856 93.2413C293.903 92.5591 293.953 91.8835 294 91.2213C294.046 90.5592 294.125 89.907 294.187 89.2649C294.248 88.6228 294.304 87.9924 294.354 87.3737C294.404 86.755 294.496 86.1497 294.564 85.5561C294.632 84.9625 294.703 84.3856 294.769 83.8121L295 82.1516C295.133 81.0697 295.29 80.0481 295.441 79.0866C295.733 77.1653 296.04 75.4965 296.309 74.127C296.577 72.7575 296.81 71.6857 296.977 70.9499C297.143 70.2142 297.239 69.8396 297.239 69.8396C297.269 69.7246 297.253 69.6025 297.194 69.499C297.136 69.3955 297.04 69.3187 296.926 69.2849C296.813 69.251 296.69 69.2627 296.585 69.3176C296.48 69.3724 296.4 69.4661 296.362 69.5788L296.337 69.5804Z" fill="url(#paint1_linear_1776_2512)"/>
<path d="M312.353 208.247C310.805 209.441 324.185 183.136 322.592 146.429C321.842 129.131 317.613 108.137 325.5 98.1041C332.065 89.7551 359.919 88.506 369.075 88.3237C369.332 88.3178 369.585 88.3853 369.804 88.5182C370.024 88.6511 370.201 88.8439 370.316 89.0741C370.43 89.3043 370.476 89.5623 370.449 89.818C370.422 90.0736 370.323 90.3163 370.164 90.5176C366.658 94.9437 359.298 105.192 358.657 114.142C357.814 125.939 348.66 135.197 339.564 139.057C330.469 142.916 325.57 145.851 324.038 161.985C322.505 178.12 316.742 204.856 312.353 208.247Z" fill="#91B3FA"/>
<path d="M357.611 95.5574C357.611 95.5574 357.339 95.6142 356.844 95.743C356.35 95.8717 355.626 96.069 354.719 96.3717C353.812 96.6744 352.724 97.064 351.495 97.5757C350.116 98.1432 348.767 98.7828 347.455 99.4919C345.898 100.332 344.392 101.266 342.947 102.288C341.324 103.43 339.795 104.702 338.376 106.09C336.856 107.587 335.485 109.228 334.281 110.99C333.044 112.822 332.012 114.784 331.204 116.842L330.91 117.623C330.808 117.881 330.714 118.143 330.638 118.411C330.471 118.941 330.304 119.471 330.158 120.001C329.884 121.044 329.609 122.081 329.334 123.113C329.059 124.144 328.797 125.171 328.547 126.194C328.301 127.212 328.06 128.215 327.823 129.204C327.355 131.184 326.92 133.102 326.537 134.928C326.155 136.754 325.801 138.483 325.502 140.083C325.355 140.884 325.215 141.652 325.08 142.381C324.945 143.11 324.841 143.807 324.733 144.459C324.522 145.765 324.345 146.906 324.21 147.847C324.075 148.788 323.981 149.528 323.919 150.034C323.858 150.541 323.831 150.813 323.831 150.813C323.818 150.896 323.839 150.98 323.888 151.047C323.938 151.115 324.012 151.159 324.094 151.172C324.176 151.185 324.26 151.164 324.327 151.115C324.395 151.065 324.439 150.991 324.452 150.909V150.909C324.452 150.909 324.502 150.645 324.594 150.148C324.686 149.651 324.836 148.922 325.02 147.994C325.384 146.14 325.965 143.499 326.676 140.336C327.043 138.757 327.442 137.047 327.863 135.237C328.284 133.428 328.773 131.532 329.257 129.564C329.741 127.596 330.287 125.577 330.818 123.517L331.653 120.409C331.796 119.907 331.962 119.406 332.109 118.904C332.181 118.651 332.265 118.401 332.362 118.156L332.636 117.414C334.139 113.473 336.573 109.919 339.356 107.083C340.695 105.712 342.135 104.443 343.663 103.288C345.04 102.248 346.478 101.293 347.969 100.427C349.358 99.6257 350.66 98.9351 351.842 98.3766C353.024 97.8181 354.076 97.3733 354.951 97.0389C355.826 96.7045 356.522 96.4503 357 96.2931C357.477 96.1359 357.731 96.0624 357.731 96.0624C357.792 96.0435 357.844 96.0019 357.876 95.946C357.908 95.89 357.917 95.824 357.902 95.7614C357.887 95.6988 357.849 95.6444 357.795 95.6093C357.741 95.5741 357.676 95.5609 357.612 95.5724L357.611 95.5574Z" fill="#BDD0FB"/>
<path d="M313.214 207.577C312.104 208.091 319.917 196.128 321.043 185.284C322.168 174.441 325.602 156.012 335.559 145.409C345.516 134.806 355.811 134.338 368.194 145.123C378.513 154.106 385.004 158.707 388.896 159.706C389.12 159.766 389.327 159.878 389.501 160.033C389.674 160.188 389.809 160.381 389.895 160.598C389.981 160.814 390.015 161.047 389.994 161.279C389.974 161.511 389.899 161.735 389.777 161.933C387.006 166.458 379.296 176.778 367.345 175.387C352.101 173.613 334.093 162.669 328.003 170.677C321.912 178.684 322.392 183.37 322.009 187.298C321.627 191.226 320.557 204.186 313.214 207.577Z" fill="#BDD0FB"/>
<path d="M363.141 158.219L362.705 157.763C362.42 157.468 361.994 157.045 361.428 156.534C359.863 155.11 358.177 153.826 356.388 152.698C355.181 151.936 353.919 151.265 352.613 150.691C351.134 150.045 349.583 149.579 347.993 149.303C347.578 149.223 347.149 149.193 346.72 149.136L346.067 149.103C345.848 149.09 345.628 149.09 345.409 149.103L344.741 149.119L344.073 149.179C343.849 149.2 343.626 149.232 343.406 149.275C343.177 149.318 342.977 149.335 342.721 149.404C341.001 149.795 339.323 150.355 337.712 151.076C336.103 151.847 334.593 152.811 333.215 153.945L332.246 154.833C332.089 154.983 331.921 155.124 331.774 155.281L331.337 155.759C331.049 156.079 330.751 156.385 330.48 156.711L329.714 157.714L329.338 158.216L329.004 158.729L328.336 159.744C327.926 160.425 327.563 161.114 327.194 161.774C326.874 162.457 326.563 163.121 326.261 163.764C325.986 164.416 325.744 165.055 325.498 165.663C325.371 165.966 325.263 166.267 325.164 166.566C325.066 166.866 324.969 167.153 324.874 167.436C324.69 168.003 324.496 168.535 324.363 169.048C324.229 169.561 324.089 170.038 323.967 170.479C323.845 170.921 323.733 171.327 323.653 171.698L323.129 174.026C323.114 174.096 323.127 174.169 323.165 174.231C323.202 174.292 323.262 174.336 323.331 174.355C323.4 174.373 323.474 174.365 323.537 174.331C323.6 174.297 323.648 174.24 323.67 174.171V174.16C323.67 174.16 323.922 173.337 324.361 171.897C324.565 171.173 324.895 170.322 325.223 169.331C325.38 168.829 325.598 168.327 325.807 167.775C326.016 167.224 326.224 166.65 326.5 166.073C326.775 165.496 327.026 164.878 327.32 164.256C327.613 163.634 327.964 163.018 328.3 162.371C328.68 161.751 329.043 161.097 329.455 160.458L330.126 159.503L330.46 159.023C330.584 158.871 330.705 158.719 330.831 158.567L331.579 157.647C331.839 157.346 332.125 157.065 332.398 156.769L332.812 156.326C332.954 156.181 333.113 156.054 333.261 155.917L334.176 155.107C335.475 154.088 336.882 153.216 338.372 152.505C339.898 151.836 341.486 151.32 343.113 150.964C343.875 150.794 344.651 150.703 345.431 150.691C345.626 150.68 345.822 150.68 346.017 150.691L346.598 150.715C346.985 150.758 347.369 150.78 347.75 150.85C349.228 151.077 350.674 151.477 352.059 152.042C353.326 152.538 354.556 153.123 355.74 153.795C356.855 154.405 357.84 155.035 358.705 155.611C359.57 156.186 360.301 156.724 360.899 157.171C361.497 157.617 361.956 157.99 362.266 158.243L362.735 158.634L362.744 158.642C362.772 158.668 362.804 158.689 362.84 158.702C362.876 158.716 362.914 158.722 362.952 158.721C363.029 158.718 363.102 158.685 363.154 158.629C363.207 158.572 363.235 158.497 363.233 158.42C363.23 158.343 363.197 158.27 363.141 158.217V158.219Z" fill="url(#paint2_linear_1776_2512)"/>
<path d="M155.356 111.043C155.401 114.131 159.363 117.422 163.933 117.422C168.502 117.422 171.963 115.009 172.214 111.931C172.808 104.587 168.506 104.657 163.931 104.657C159.357 104.657 155.249 103.41 155.356 111.043Z" fill="url(#paint3_linear_1776_2512)"/>
<path d="M151.996 106.535C151.861 108.207 156.926 109.978 163.309 110.493C169.691 111.008 174.974 110.071 175.107 108.401C175.241 106.73 170.177 104.958 163.796 104.443C157.415 103.928 152.131 104.864 151.996 106.535Z" fill="url(#paint4_linear_1776_2512)"/>
<path d="M151.996 103.597C151.861 105.269 156.926 107.04 163.309 107.557C169.691 108.073 174.974 107.135 175.107 105.465C175.241 103.794 170.177 102.02 163.796 101.505C157.415 100.99 152.131 101.926 151.996 103.597Z" fill="url(#paint5_linear_1776_2512)"/>
<path d="M163.308 104.617C156.926 104.101 151.862 102.329 151.996 100.658C152.131 98.9877 157.413 98.0511 163.795 98.5665C170.178 99.0819 175.242 100.854 175.108 102.525C174.973 104.196 169.69 105.132 163.308 104.617Z" fill="url(#paint6_linear_1776_2512)"/>
<path d="M151.996 97.7227C151.861 99.3949 156.926 101.166 163.309 101.681C169.691 102.196 174.974 101.259 175.107 99.5888C175.241 97.9184 170.177 96.1459 163.796 95.6309C157.415 95.1158 152.131 96.0522 151.996 97.7227Z" fill="url(#paint7_linear_1776_2512)"/>
<path d="M166.747 110.791C168.444 110.808 170.139 110.669 171.811 110.376C171.831 110.372 171.85 110.364 171.867 110.353C171.884 110.342 171.898 110.328 171.909 110.311C171.932 110.277 171.941 110.235 171.933 110.195C171.925 110.155 171.902 110.12 171.868 110.097C171.834 110.074 171.793 110.065 171.753 110.073C169.51 110.503 166.515 110.598 163.32 110.341C160.928 110.168 158.559 109.759 156.248 109.118C156.228 109.111 156.207 109.107 156.185 109.108C156.164 109.109 156.143 109.114 156.124 109.124C156.105 109.133 156.088 109.146 156.074 109.163C156.06 109.179 156.05 109.198 156.044 109.219C156.038 109.239 156.037 109.261 156.04 109.282C156.042 109.303 156.05 109.324 156.061 109.342C156.072 109.36 156.087 109.376 156.104 109.388C156.122 109.4 156.142 109.409 156.163 109.413C158.493 110.06 160.882 110.474 163.295 110.647C164.482 110.742 165.642 110.791 166.747 110.791Z" fill="#91B3FA"/>
<path d="M166.716 107.849C169.178 107.849 171.38 107.617 172.931 107.18C172.971 107.169 173.004 107.143 173.024 107.107C173.044 107.071 173.049 107.029 173.038 106.99C173.033 106.97 173.023 106.952 173.011 106.936C172.998 106.921 172.982 106.907 172.965 106.898C172.947 106.888 172.928 106.882 172.908 106.879C172.888 106.877 172.867 106.879 172.848 106.884C170.636 107.515 167.075 107.71 163.32 107.408C159.607 107.109 156.141 106.353 154.056 105.39C154.019 105.373 153.976 105.372 153.938 105.386C153.9 105.4 153.869 105.428 153.852 105.465C153.843 105.483 153.839 105.503 153.838 105.523C153.837 105.543 153.84 105.563 153.847 105.582C153.854 105.6 153.865 105.618 153.879 105.632C153.892 105.647 153.909 105.659 153.927 105.667C156.046 106.647 159.548 107.411 163.295 107.714C164.465 107.804 165.617 107.849 166.716 107.849Z" fill="#91B3FA"/>
<path d="M166.747 104.915C169.407 104.915 171.734 104.642 173.3 104.125C173.339 104.112 173.371 104.085 173.39 104.048C173.408 104.012 173.411 103.969 173.398 103.931C173.385 103.892 173.358 103.86 173.321 103.841C173.285 103.823 173.242 103.82 173.204 103.833C171.033 104.553 167.33 104.789 163.32 104.465C159.607 104.165 156.141 103.411 154.056 102.447C154.019 102.431 153.978 102.43 153.941 102.445C153.903 102.459 153.873 102.488 153.857 102.524C153.84 102.56 153.838 102.601 153.851 102.639C153.864 102.677 153.892 102.708 153.927 102.726C156.046 103.704 159.548 104.468 163.295 104.771C164.484 104.868 165.644 104.915 166.747 104.915Z" fill="#91B3FA"/>
<path d="M166.727 101.982C168.836 101.982 170.754 101.814 172.247 101.48C172.287 101.471 172.321 101.447 172.343 101.412C172.365 101.378 172.373 101.336 172.364 101.296C172.355 101.256 172.331 101.221 172.296 101.199C172.262 101.177 172.22 101.17 172.18 101.179C169.938 101.681 166.707 101.808 163.32 101.535C159.647 101.237 156.194 100.492 154.104 99.5369C154.086 99.5285 154.066 99.5238 154.046 99.5232C154.025 99.5225 154.005 99.5258 153.986 99.533C153.967 99.5401 153.95 99.5509 153.935 99.5648C153.921 99.5787 153.909 99.5953 153.9 99.6138C153.892 99.6321 153.887 99.6519 153.887 99.672C153.886 99.6922 153.889 99.7122 153.897 99.731C153.904 99.7499 153.915 99.7671 153.928 99.7817C153.942 99.7963 153.959 99.808 153.977 99.8161C156.097 100.784 159.582 101.54 163.295 101.841C164.469 101.928 165.624 101.982 166.727 101.982Z" fill="#91B3FA"/>
<path d="M155.416 57.9354C155.495 57.8241 155.61 57.7442 155.742 57.7099C155.873 57.6756 156.013 57.6892 156.136 57.7481L159.184 59.1745L160.243 56.1546C160.275 56.0698 160.325 55.9928 160.388 55.9286C160.452 55.8643 160.529 55.8143 160.613 55.7817C160.778 55.71 160.963 55.6997 161.135 55.7528C161.307 55.8058 161.454 55.9187 161.55 56.071V56.081L164.054 60.6577L166.38 54.1363V54.1263C166.444 53.9543 166.57 53.8124 166.732 53.7283C166.92 53.6244 167.138 53.5901 167.348 53.6314C167.559 53.6727 167.748 53.7869 167.883 53.954L171.389 58.7865C171.423 58.834 171.447 58.888 171.459 58.9452C171.471 59.0023 171.471 59.0614 171.46 59.1187C171.448 59.176 171.425 59.2303 171.391 59.2781C171.358 59.326 171.315 59.3664 171.265 59.3969C171.151 59.4724 171.014 59.5056 170.878 59.4906C170.742 59.4756 170.616 59.4135 170.52 59.3149L167.435 55.8686L164.655 62.0673C164.605 62.1737 164.519 62.259 164.412 62.3081C164.288 62.3677 164.146 62.3815 164.013 62.3469C163.88 62.3123 163.763 62.2316 163.684 62.1191L161.002 57.81L160.001 59.9838L159.991 60.0038C159.984 60.0201 159.975 60.0358 159.966 60.0507C159.887 60.1618 159.772 60.2415 159.641 60.2755C159.509 60.3095 159.37 60.2956 159.248 60.2363L155.63 58.5441C155.574 58.521 155.523 58.4862 155.481 58.4421C155.439 58.3979 155.407 58.3453 155.387 58.2878C155.366 58.2303 155.359 58.1692 155.364 58.1084C155.369 58.0477 155.387 57.9887 155.416 57.9354V57.9354Z" fill="url(#paint8_linear_1776_2512)"/>
<path d="M144.668 73.2559C144.788 73.2565 144.906 73.2177 145.002 73.1455C145.061 73.1016 145.111 73.0464 145.149 72.9831C145.187 72.9198 145.212 72.8496 145.223 72.7765C145.233 72.7035 145.23 72.6291 145.211 72.5575C145.193 72.486 145.161 72.4187 145.117 72.3596C144.192 71.1177 143.338 69.8235 142.561 68.4836C142.526 68.4158 142.478 68.3559 142.42 68.3073C142.361 68.2588 142.293 68.2227 142.22 68.2012C142.147 68.1797 142.071 68.1733 141.995 68.1823C141.92 68.1914 141.847 68.2157 141.781 68.2538C141.715 68.2919 141.658 68.3431 141.613 68.4041C141.567 68.4651 141.534 68.5347 141.517 68.6088C141.499 68.6828 141.496 68.7597 141.509 68.8347C141.522 68.9098 141.55 68.9815 141.591 69.0454C142.388 70.4221 143.262 71.7525 144.209 73.0301C144.262 73.1014 144.332 73.159 144.411 73.1983C144.491 73.2375 144.579 73.2572 144.668 73.2559V73.2559Z" fill="url(#paint9_linear_1776_2512)"/>
<path d="M140.164 65.5153C140.257 65.5152 140.348 65.492 140.43 65.4477C140.512 65.4034 140.582 65.3393 140.633 65.2614C140.684 65.1834 140.715 65.094 140.722 65.0011C140.73 64.9082 140.715 64.8148 140.678 64.7294C134.87 51.3321 139.883 40.0786 139.935 39.9666C139.997 39.8311 140.003 39.6765 139.951 39.5368C139.899 39.3971 139.794 39.2837 139.659 39.2216C139.523 39.1595 139.369 39.1538 139.23 39.2057C139.09 39.2576 138.977 39.3629 138.915 39.4984C138.861 39.6154 133.644 51.3254 139.65 65.1775C139.693 65.2777 139.765 65.363 139.856 65.423C139.948 65.4829 140.055 65.515 140.164 65.5153Z" fill="url(#paint10_linear_1776_2512)"/>
<path d="M180.877 85.2769C181.654 82.5264 182.968 79.9575 184.742 77.7188C188.542 72.9231 194.74 63.1711 195.503 49.8575C196.613 30.4957 179.475 20.8023 163.822 22.1183C148.168 23.4342 132.738 35.1008 134.428 53.1148C135.468 64.1978 141.662 72.6054 146.273 77.4328C149.192 80.5041 151.304 84.2523 152.422 88.3419C153.806 93.3466 157.097 99.5837 164.928 99.965C175.057 100.457 179.265 90.9989 180.877 85.2769Z" fill="#FFB800"/>
<path d="M305.79 200.686L305.347 200.651C305.32 200.65 305.292 200.655 305.266 200.664C305.241 200.674 305.217 200.688 305.197 200.707C305.176 200.726 305.16 200.749 305.149 200.774C305.137 200.799 305.131 200.826 305.13 200.854C305.125 200.91 305.141 200.966 305.176 201.009C305.211 201.053 305.262 201.082 305.317 201.088L305.773 201.125C305.8 201.126 305.828 201.122 305.854 201.112C305.879 201.103 305.903 201.088 305.923 201.069C305.943 201.05 305.959 201.028 305.97 201.002C305.982 200.977 305.988 200.95 305.988 200.923C305.994 200.867 305.978 200.811 305.943 200.768C305.909 200.724 305.858 200.695 305.803 200.688L305.79 200.686Z" fill="#91B3FA"/>
<path d="M233.763 232.491C233.763 232.491 234.315 235.464 234.597 238.41C234.623 238.683 234.594 238.959 234.51 239.22C234.427 239.482 234.291 239.723 234.112 239.931C233.933 240.138 233.713 240.307 233.467 240.427C233.221 240.547 232.953 240.616 232.679 240.629C228.761 240.83 220.378 241.23 217.368 241.123C217.263 241.117 217.162 241.087 217.071 241.034C216.981 240.982 216.904 240.909 216.847 240.822C216.789 240.734 216.753 240.634 216.741 240.53C216.73 240.426 216.742 240.321 216.778 240.223V240.223C216.916 239.869 217.183 239.581 217.526 239.419L231.317 232.911L233.763 232.491Z" fill="url(#paint11_linear_1776_2512)"/>
<path d="M234.175 230.737L233.788 234.304C233.788 234.304 231.372 235.459 229.702 234.2L230.671 230.22L234.175 230.737Z" fill="url(#paint12_linear_1776_2512)"/>
<path d="M233.217 163.766C233.409 164.694 234.638 210.181 229.976 230.615C229.939 230.776 229.96 230.945 230.036 231.092C230.111 231.239 230.237 231.353 230.39 231.416C231.658 231.894 232.998 232.153 234.352 232.183C234.615 232.188 234.873 232.106 235.084 231.949C235.296 231.792 235.449 231.569 235.521 231.315C236.856 226.573 243.289 202.809 243.94 180.161C244.668 154.855 243.94 179.3 243.94 179.3L243.222 163.669L233.217 163.766Z" fill="url(#paint13_linear_1776_2512)"/>
<path d="M249.71 233.892C249.71 233.892 250.56 235.397 251.408 239.377C251.445 239.546 251.445 239.722 251.41 239.892C251.374 240.062 251.303 240.222 251.202 240.363C251.101 240.504 250.971 240.622 250.821 240.709C250.671 240.796 250.505 240.851 250.333 240.87C249.039 241.01 247.049 241.193 245.453 241.204C245.279 241.206 245.107 241.17 244.948 241.1C244.789 241.03 244.646 240.927 244.53 240.798C244.413 240.669 244.325 240.517 244.271 240.352C244.217 240.186 244.199 240.011 244.217 239.838C244.384 238.377 244.908 235.979 246.593 234.098L249.71 233.892Z" fill="url(#paint14_linear_1776_2512)"/>
<path d="M250.399 229.304L249.464 234.7C249.464 234.7 248.498 235.436 246.563 234.929L246.979 229.127L250.399 229.304Z" fill="url(#paint15_linear_1776_2512)"/>
<path d="M252.452 164.978C256.652 188.943 252.156 224.312 250.592 231.242C250.545 231.449 250.439 231.638 250.286 231.785C250.132 231.932 249.939 232.03 249.73 232.068C248.7 232.262 247.64 232.23 246.623 231.974C246.424 231.918 246.248 231.801 246.119 231.639C245.99 231.477 245.915 231.278 245.905 231.071C245.633 225.483 245.7 191.165 241.87 177.641C241.676 176.956 241.252 176.359 240.668 175.952L233.437 170.907L232.808 162.647L252.452 164.978Z" fill="url(#paint16_linear_1776_2512)"/>
<path d="M226.705 119.738C238.604 119.427 251.767 122.629 251.767 122.629C255.511 143.325 252.813 167.266 252.813 167.266C243.631 169.774 233.193 165.973 233.193 165.973C231.579 157.323 224.203 133.005 224.203 133.005C218.381 132.336 213.574 130.704 209.609 128.52C212.584 124.997 213.96 120.539 214.551 117.906C218.78 119.175 223.044 119.835 226.705 119.738Z" fill="#9145F1"/>
<path d="M191.395 102.518C192.55 101.092 194.036 101.748 194.036 101.748C195.859 109.14 205.098 115.059 214.56 117.905C213.969 120.539 212.593 124.997 209.618 128.52C193.878 119.852 191.395 102.518 191.395 102.518Z" fill="url(#paint17_linear_1776_2512)"/>
<path d="M191.682 102.875C191.564 103.266 192.986 103.846 193.806 102.244C193.828 101.48 194.26 98.206 193.806 97.5873C191.348 94.2982 186.607 90.1914 186.607 90.1914C186.387 90.3836 186.251 90.654 186.228 90.9451C186.205 91.2362 186.296 91.525 186.482 91.7498L188.786 94.1092C188.317 94.9771 187.741 95.7112 187.478 96.7596C187.284 97.5577 187.404 98.4 187.812 99.1123C188.268 99.931 188.765 100.726 189.3 101.495C189.567 101.891 189.92 102.22 190.333 102.459C190.746 102.698 191.207 102.84 191.682 102.875V102.875Z" fill="url(#paint18_linear_1776_2512)"/>
<path d="M189.788 95.6442L191.885 97.3882L192.553 99.1406L190.717 101.217C190.717 101.217 190.061 97.736 189.59 96.9852C189.119 96.2344 189.359 95.8682 189.788 95.6442Z" fill="url(#paint19_linear_1776_2512)"/>
<path d="M247.321 134.214L251.775 122.629C251.775 122.629 262.961 130.087 264.883 139.66C262.784 139.827 258.968 140.419 255.244 142.347C254.38 137.826 247.321 134.214 247.321 134.214Z" fill="#9145F1"/>
<path d="M237.711 145.167C237.711 145.167 250.257 152.111 254.406 146.039C255.269 144.779 255.466 143.531 255.241 142.347C258.964 140.419 262.781 139.839 264.879 139.66C265.528 142.754 265.049 145.978 263.529 148.748C256.281 162.334 236.085 148.265 236.085 148.265L237.711 145.167Z" fill="url(#paint20_linear_1776_2512)"/>
<path d="M238.676 109.946L242.566 120.877C242.599 120.963 242.6 121.058 242.569 121.145C242.539 121.233 242.478 121.306 242.399 121.353C241.372 121.935 237.669 123.622 233.162 120.82C232.929 120.677 232.73 120.485 232.58 120.257C232.43 120.028 232.332 119.77 232.293 119.499L230.976 110.019L238.676 109.946Z" fill="url(#paint21_linear_1776_2512)"/>
<path d="M230.342 99.8699C230.342 99.8699 226.258 107.749 226.821 110.906C227.383 114.063 232.536 113.792 237.005 111.177L240.069 102.682L230.342 99.8699Z" fill="url(#paint22_linear_1776_2512)"/>
<path d="M236.771 107.025C236.728 107.006 236.69 106.979 236.658 106.944C236.627 106.909 236.604 106.867 236.59 106.823C236.576 106.778 236.572 106.731 236.578 106.684C236.585 106.638 236.601 106.593 236.626 106.553C236.96 106.04 237.569 104.995 237.76 104.082C237.76 104.082 238.502 103.595 235.846 102.985C233.19 102.375 229.23 101.428 228.377 99.1758C227.542 96.982 229.622 91.4221 233.051 95.8031C233.082 95.8423 233.12 95.8741 233.165 95.8959C233.209 95.9178 233.258 95.9291 233.307 95.9291C233.356 95.9291 233.405 95.9178 233.449 95.8959C233.494 95.8741 233.532 95.8423 233.562 95.8031C234.113 95.0724 235.566 93.5524 237.601 94.4454C239.511 95.2814 239.738 96.676 239.718 97.3783C239.716 97.4267 239.726 97.4748 239.746 97.519C239.765 97.5633 239.795 97.6025 239.832 97.6338C239.868 97.6651 239.912 97.6877 239.959 97.6999C240.005 97.7122 240.054 97.7137 240.102 97.7044C241.06 97.5121 243.366 97.3315 244.464 99.6909C245.371 101.634 244.798 102.744 244.284 103.289C244.246 103.33 244.218 103.379 244.205 103.433C244.191 103.487 244.191 103.544 244.206 103.597C244.22 103.651 244.248 103.7 244.287 103.74C244.326 103.78 244.374 103.809 244.428 103.824C245.06 104.012 245.882 104.54 245.815 106.023C245.722 108.073 243.431 107.914 242.78 107.828C242.727 107.82 242.674 107.825 242.624 107.844C242.574 107.862 242.53 107.892 242.494 107.931C241.942 108.555 239.451 111.207 236.731 111.55C236.677 111.556 236.622 111.549 236.571 111.528C236.52 111.508 236.475 111.475 236.441 111.432C236.406 111.39 236.383 111.339 236.373 111.285C236.364 111.231 236.368 111.175 236.385 111.123L237.531 107.68C237.557 107.603 237.553 107.52 237.519 107.446C237.486 107.372 237.427 107.313 237.352 107.281L236.771 107.025Z" fill="url(#paint23_linear_1776_2512)"/>
<path d="M236.303 107.516C236.303 107.516 239.243 105.453 239.476 107.165C239.708 108.877 236.833 109.673 235.399 109.046L236.303 107.516Z" fill="url(#paint24_linear_1776_2512)"/>
<path d="M240.275 156.142L233.44 132.231C233.402 132.098 233.326 131.98 233.221 131.891C233.116 131.801 232.988 131.745 232.851 131.729C231.612 131.585 228.024 131.179 223.881 130.828C218.89 130.405 213.095 130.062 209.631 130.355C209.518 130.364 209.408 130.4 209.313 130.461C209.217 130.523 209.137 130.606 209.081 130.705C209.025 130.804 208.993 130.915 208.99 131.029C208.986 131.143 209.01 131.256 209.06 131.358C211.03 135.348 219.131 151.581 223.188 156.898C223.254 156.985 223.339 157.055 223.437 157.103C223.535 157.152 223.643 157.176 223.752 157.176L239.613 157.027C239.719 157.025 239.824 156.999 239.919 156.951C240.014 156.903 240.097 156.833 240.161 156.748C240.225 156.662 240.268 156.563 240.288 156.458C240.308 156.353 240.304 156.245 240.275 156.142Z" fill="url(#paint25_linear_1776_2512)"/>
<path d="M238.624 150.367C238.624 150.367 239.576 146.446 239.192 145.055C238.808 143.663 238.063 141.877 235.582 142.272C233.101 142.667 230.176 143.715 230.176 143.715C230.176 143.715 230.325 145.528 232.21 144.942L231.041 145.849C231.041 145.849 231.208 147.3 232.799 146.518L231.712 147.72C231.712 147.72 232.397 148.91 233.569 148.146C234.741 147.382 235.302 150.838 238.624 150.367Z" fill="url(#paint26_linear_1776_2512)"/>
<path d="M224.336 137.968C224.336 138.365 224.219 138.753 223.999 139.083C223.779 139.413 223.466 139.67 223.1 139.822C222.734 139.974 222.331 140.013 221.942 139.936C221.553 139.858 221.197 139.667 220.916 139.387C220.636 139.106 220.445 138.749 220.368 138.359C220.291 137.97 220.33 137.567 220.482 137.2C220.634 136.833 220.89 136.52 221.22 136.299C221.549 136.079 221.937 135.961 222.333 135.961C222.864 135.961 223.374 136.173 223.75 136.549C224.125 136.925 224.336 137.436 224.336 137.968V137.968Z" fill="#7D97F4"/>
<path d="M232.742 139.27L233.101 139.163L231.709 134.436C231.605 134.075 231.406 133.749 231.131 133.493C230.857 133.236 230.518 133.06 230.151 132.982C225.747 132.062 213.765 131.868 213.645 131.866V132.241C213.765 132.241 225.71 132.435 230.079 133.348C230.38 133.413 230.658 133.558 230.883 133.768C231.107 133.978 231.271 134.246 231.357 134.542L232.742 139.27Z" fill="#7D97F4"/>
<path d="M313.56 206.198C314.288 207.278 317.184 231.727 317.637 240.756C317.644 240.901 317.622 241.045 317.571 241.181C317.521 241.317 317.443 241.441 317.343 241.545C317.244 241.65 317.124 241.734 316.991 241.79C316.858 241.847 316.715 241.877 316.57 241.876V241.876C316.315 241.876 316.069 241.785 315.875 241.619C315.681 241.454 315.553 241.224 315.513 240.972L310.218 206.975L313.56 206.198Z" fill="#7D97F4"/>
<path d="M290.277 206.198C289.549 207.278 286.652 231.727 286.2 240.756C286.193 240.901 286.215 241.045 286.266 241.181C286.316 241.317 286.394 241.441 286.493 241.545C286.593 241.65 286.713 241.734 286.846 241.79C286.979 241.847 287.122 241.877 287.267 241.876V241.876C287.521 241.876 287.768 241.785 287.962 241.619C288.155 241.454 288.284 241.224 288.323 240.972L293.619 206.975L290.277 206.198Z" fill="#7D97F4"/>
<path d="M317.941 204.29V204.556C317.957 206.474 316.308 208.047 314.243 208.082L289.76 208.5C287.724 208.536 286.027 207.061 285.921 205.173L285.907 204.929C285.804 202.959 287.473 201.3 289.597 201.262L314.089 200.822C316.193 200.785 317.922 202.344 317.941 204.29Z" fill="#7D97F4"/>
<path d="M266.367 239.869C270.72 239.869 272.645 239.494 273.506 239.155C273.422 239.519 273.217 239.843 272.925 240.076C272.633 240.308 272.272 240.435 271.898 240.435H256.502C256.387 240.435 256.273 240.409 256.17 240.358C256.067 240.306 255.977 240.232 255.907 240.14C255.837 240.049 255.789 239.942 255.767 239.829C255.745 239.715 255.749 239.599 255.779 239.487C257.535 239.629 261.265 239.869 266.367 239.869Z" fill="url(#paint27_linear_1776_2512)"/>
<path d="M255.779 239.487C255.803 239.392 255.846 239.303 255.906 239.225C257.075 237.72 259.435 235.379 262.639 235.415C267.334 235.481 268.972 235.992 272.62 235.444L273.479 238.302C273.564 238.578 273.573 238.873 273.506 239.154C272.645 239.489 270.72 239.868 266.367 239.868C261.265 239.868 257.535 239.629 255.779 239.487Z" fill="url(#paint28_linear_1776_2512)"/>
<path d="M271.563 232.365L272.618 235.964C272.618 235.964 270.28 237.031 268.218 236.174L267.814 233.056L271.563 232.365Z" fill="url(#paint29_linear_1776_2512)"/>
<path d="M239.653 237.603C243.045 240.334 244.778 241.25 245.663 241.526C245.37 241.756 245.008 241.88 244.635 241.877C244.263 241.874 243.903 241.745 243.613 241.511L231.611 231.852C231.521 231.781 231.449 231.689 231.4 231.585C231.351 231.481 231.327 231.367 231.33 231.252C231.333 231.137 231.362 231.024 231.415 230.923C231.468 230.821 231.544 230.733 231.637 230.665C232.916 231.876 235.673 234.399 239.653 237.603Z" fill="url(#paint30_linear_1776_2512)"/>
<path d="M231.635 230.665C231.713 230.606 231.802 230.563 231.897 230.539C233.744 230.111 237.048 229.763 239.517 231.809C243.135 234.805 244.095 236.228 247.279 238.091L246.172 240.848C246.064 241.112 245.887 241.343 245.661 241.517C244.778 241.241 243.045 240.325 239.651 237.594C235.672 234.399 232.916 231.875 231.635 230.665Z" fill="url(#paint31_linear_1776_2512)"/>
<path d="M294.155 191.363C294.155 191.363 268.11 193.495 262.768 196.014C257.425 198.534 267.128 233.855 267.128 233.855C267.128 233.855 268.584 234.557 271.821 233.549C271.821 233.549 268.501 207.484 270.972 201.83L299.187 197.208L294.155 191.363Z" fill="url(#paint32_linear_1776_2512)"/>
<path d="M249.868 233.13C249.626 233.351 247.279 238.091 247.279 238.091C247.279 238.091 244.666 237.526 244.133 235.869L246.484 231.59L249.868 233.13Z" fill="url(#paint33_linear_1776_2512)"/>
<path d="M309.848 191.145C310.41 192.67 310.687 194.286 310.663 195.911C310.616 199.672 307.598 202.723 303.846 202.91L273.043 204.317C272.727 204.332 272.425 204.448 272.179 204.648C271.934 204.848 271.759 205.122 271.681 205.429C270.957 208.233 267.419 216.844 250.124 234.022C249.901 234.243 249.611 234.382 249.3 234.417C248.989 234.451 248.675 234.38 248.409 234.215L245.947 232.658C245.823 232.579 245.734 232.455 245.699 232.312C245.665 232.169 245.687 232.017 245.762 231.89L263.692 201.217C264.634 199.659 266.148 198.535 267.91 198.085L294.155 191.363L309.848 191.145Z" fill="url(#paint34_linear_1776_2512)"/>
<path d="M279.502 143.23C279.502 143.23 282.802 149.073 286.165 151.904L279.211 155.79C279.211 155.79 277.643 149.603 274.064 147.792L279.502 143.23Z" fill="url(#paint35_linear_1776_2512)"/>
<path d="M310.416 191.363C310.416 191.363 302.1 193.393 294.163 191.363C294.163 191.363 283.055 176.411 278.76 172.341C278.76 172.341 271.915 183.173 256.65 184.714L255.8 182.81C255.8 182.81 267.945 177.203 271.683 168.587C275.421 159.97 276.923 156.296 280.326 154.049C282.443 152.649 283.712 151.693 284.368 151.169C284.542 151.03 284.755 150.947 284.978 150.933C285.201 150.919 285.423 150.974 285.613 151.091C289.223 153.286 306.209 164.938 310.416 191.363Z" fill="url(#paint36_linear_1776_2512)"/>
<path d="M279.211 172.434C279.34 172.434 279.468 172.404 279.584 172.346C279.7 172.288 279.801 172.204 279.879 172.1C281.604 169.79 283.025 167.267 284.106 164.593C284.185 164.386 284.179 164.155 284.089 163.952C283.998 163.748 283.831 163.589 283.623 163.51C283.416 163.43 283.185 163.436 282.983 163.527C282.78 163.618 282.621 163.785 282.542 163.993C282.527 164.03 281.071 167.786 278.55 171.08C278.453 171.204 278.394 171.353 278.378 171.509C278.362 171.666 278.391 171.823 278.461 171.964C278.53 172.105 278.638 172.224 278.772 172.306C278.906 172.388 279.061 172.431 279.218 172.429L279.211 172.434Z" fill="url(#paint37_linear_1776_2512)"/>
<path d="M257.569 181.808L255.851 181.35L250.637 180.141C250.326 180.068 250.003 180.058 249.688 180.111C249.372 180.164 249.071 180.279 248.8 180.45L244.318 183.275L256.697 183.255L257.569 181.808Z" fill="url(#paint38_linear_1776_2512)"/>
<path d="M274.262 134.468C274.262 134.468 271.055 139.807 270.497 142.757C269.94 145.706 269.048 147.553 272.402 148.609C275.756 149.666 278.872 148.33 280.827 145.576C280.827 145.576 283.882 141.337 283.577 139.389C283.271 137.441 274.262 134.468 274.262 134.468Z" fill="url(#paint39_linear_1776_2512)"/>
<path d="M279.934 143.284L279.501 143.227C279.501 143.227 281.772 139.79 280.286 138.938C278.8 138.085 272.745 135.993 271.693 133.605C270.679 131.303 272.194 128.701 274.03 128.159C274.087 128.143 274.147 128.15 274.199 128.177C274.251 128.204 274.291 128.251 274.311 128.306L274.417 128.595C274.434 128.639 274.463 128.677 274.501 128.705C274.539 128.732 274.584 128.747 274.631 128.749C274.678 128.75 274.724 128.738 274.763 128.713C274.803 128.688 274.834 128.652 274.853 128.609V128.609C274.872 128.568 274.902 128.533 274.94 128.509C274.978 128.485 275.022 128.472 275.067 128.472C275.112 128.472 275.156 128.485 275.194 128.509C275.232 128.533 275.262 128.568 275.281 128.609C275.604 129.323 276.574 130.545 279.486 131.492C283.618 132.829 286.193 134.918 285.875 137.859C285.871 137.901 285.877 137.943 285.895 137.981C285.912 138.019 285.938 138.052 285.972 138.076C286.006 138.101 286.046 138.116 286.088 138.119C286.13 138.123 286.171 138.116 286.209 138.098C286.543 137.948 287.059 137.931 287.653 138.576C288.687 139.708 287.877 142.185 285.054 143.939C285.022 143.958 284.995 143.983 284.975 144.014C284.955 144.045 284.943 144.081 284.939 144.117C284.936 144.154 284.941 144.191 284.954 144.225C284.967 144.26 284.988 144.291 285.016 144.315C285.438 144.676 286.032 145.486 284.122 146.205C282.167 146.94 281.101 146.691 280.707 146.539C280.655 146.519 280.613 146.481 280.587 146.432C280.56 146.384 280.552 146.327 280.563 146.273L281.064 143.698C281.07 143.667 281.07 143.634 281.063 143.603C281.056 143.571 281.043 143.541 281.024 143.515C281.005 143.489 280.981 143.467 280.954 143.45C280.926 143.434 280.895 143.423 280.863 143.419L279.934 143.284Z" fill="url(#paint40_linear_1776_2512)"/>
<path d="M279.757 143.817C279.757 143.817 281.171 140.322 282.658 141.551C284.146 142.78 281.284 145.492 279.964 145.457L279.757 143.817Z" fill="url(#paint41_linear_1776_2512)"/>
<path d="M262.35 185.707H262.29L235.843 185.681C235.53 185.681 235.229 185.556 235.007 185.334C234.786 185.112 234.661 184.811 234.661 184.497C234.661 184.183 234.786 183.882 235.007 183.66C235.229 183.438 235.53 183.313 235.843 183.313L262.29 183.34C262.598 183.341 262.893 183.463 263.112 183.679C263.332 183.894 263.459 184.187 263.466 184.495C263.473 184.803 263.361 185.102 263.152 185.328C262.943 185.554 262.654 185.69 262.347 185.706L262.35 185.707Z" fill="url(#paint42_linear_1776_2512)"/>
<path d="M225.6 159.768C225.61 159.784 225.619 159.803 225.629 159.821L236.756 183.852C236.889 184.136 236.903 184.462 236.796 184.758C236.689 185.053 236.469 185.294 236.185 185.427C235.901 185.56 235.575 185.574 235.28 185.467C234.986 185.36 234.745 185.14 234.612 184.855L223.483 160.826C223.358 160.547 223.346 160.23 223.449 159.941C223.552 159.653 223.763 159.416 224.037 159.28C224.311 159.144 224.627 159.12 224.918 159.212C225.21 159.305 225.454 159.507 225.6 159.776V159.768Z" fill="url(#paint43_linear_1776_2512)"/>
<path d="M156.348 209.857H159.139V240.091H156.348V209.857Z" fill="#7D97F4"/>
<path d="M145.519 240.673H169.968C169.968 240.19 169.776 239.727 169.435 239.386C169.094 239.045 168.632 238.853 168.15 238.853H147.336C146.854 238.853 146.392 239.045 146.052 239.386C145.711 239.727 145.519 240.19 145.519 240.673Z" fill="#7D97F4"/>
<path d="M144.894 203.081H169.628C171.286 203.081 172.63 204.427 172.63 206.088V208.807C172.63 210.467 171.286 211.813 169.628 211.813H144.894C143.236 211.813 141.892 210.467 141.892 208.807V206.088C141.892 204.427 143.236 203.081 144.894 203.081Z" fill="#7D97F4"/>
<path d="M178.351 189.698C178.351 189.698 182.498 190.341 187.161 193.463C187.522 193.702 187.809 194.037 187.99 194.43C188.172 194.823 188.24 195.259 188.188 195.689C187.628 200.12 185.333 214.459 177.761 228.463C177.367 229.204 177.248 230.062 177.428 230.882L178.743 237.013L181.182 239.303H174.9L170.716 227.965L172.504 227.399C173.181 227.185 173.773 226.763 174.198 226.193C174.622 225.623 174.856 224.933 174.868 224.222L175.079 212.059C174.9 206.64 178.396 202.901 178.396 202.901L168.362 202.413L178.351 189.698Z" fill="url(#paint44_linear_1776_2512)"/>
<path d="M183.632 240.41C184.205 241.159 177.475 242.149 174.074 240.509C174.074 240.509 169.359 232.295 169.359 228.065C169.359 228.065 169.733 227.204 172.501 227.396C172.501 227.396 174.084 237.121 175.755 238.211C177.426 239.302 180.43 238.322 180.43 238.322C180.43 238.322 182.789 239.303 183.632 240.41Z" fill="url(#paint45_linear_1776_2512)"/>
<path d="M169.628 203.081C169.681 202.989 180.431 201.787 180.431 201.787C180.431 201.787 180.079 205.061 181.179 209.567C182.279 214.074 198.061 233.598 198.061 233.598L196.407 238.853C201.524 240.638 206.556 240.924 211.51 239.763L201.254 233.598C201.254 233.598 191.655 200.837 185.775 194.993L175 191.259L169.628 203.081Z" fill="url(#paint46_linear_1776_2512)"/>
<path d="M145.519 184.019C145.519 184.019 139.325 193.246 138.818 197.454C138.31 201.663 140.514 203.374 147.014 203.655C153.513 203.936 170.86 203.932 170.86 203.932L185.667 191.259C185.667 191.259 174.876 187.403 172.072 186.311C169.267 185.219 145.519 184.019 145.519 184.019Z" fill="url(#paint47_linear_1776_2512)"/>
<path d="M197.031 237.091C197.031 237.091 195.25 238.82 196.454 240.743C196.454 240.743 210.568 243.251 214.4 242.113C214.4 242.113 213.605 240.293 209.289 238.223L209.608 238.467C209.695 238.534 209.758 238.627 209.789 238.732C209.82 238.837 209.817 238.95 209.779 239.053C209.742 239.156 209.673 239.245 209.582 239.306C209.491 239.367 209.383 239.398 209.274 239.394C206.424 239.223 200.539 238.701 197.031 237.091Z" fill="url(#paint48_linear_1776_2512)"/>
<path d="M172.348 125.507C159.687 123.351 153.727 133.692 154.163 135.866C154.176 135.933 154.171 136.001 154.15 136.066C154.128 136.131 154.091 136.188 154.04 136.234C153.99 136.28 153.929 136.312 153.862 136.327C153.796 136.342 153.727 136.34 153.662 136.321C152.21 135.929 148.997 135.436 147.007 137.934C145.251 140.14 146.563 142.22 147.635 143.364C147.69 143.423 147.726 143.498 147.737 143.579C147.749 143.659 147.735 143.741 147.699 143.814C147.663 143.886 147.605 143.946 147.534 143.985C147.463 144.024 147.382 144.041 147.301 144.032C144.63 143.698 138.822 143.614 137.872 149.062C136.985 154.142 140.516 155.575 142.61 155.978C142.688 155.994 142.76 156.032 142.817 156.089C142.873 156.146 142.911 156.218 142.925 156.297C142.939 156.376 142.93 156.457 142.897 156.53C142.865 156.603 142.811 156.665 142.743 156.707C141.698 157.376 140.488 158.742 140.977 161.45C141.743 165.692 150.048 165.344 151.019 165.295C151.078 165.292 151.136 165.274 151.186 165.244L164.489 157.645C164.54 157.616 164.584 157.576 164.618 157.528C164.652 157.479 164.674 157.424 164.684 157.366L167.371 141.832C167.381 141.77 167.377 141.707 167.359 141.647C167.34 141.587 167.308 141.532 167.264 141.487L175.952 129.237C179.092 128.766 172.498 125.532 172.348 125.507Z" fill="url(#paint49_linear_1776_2512)"/>
<path d="M162.262 182.798C162.262 182.798 169.474 175.92 173.024 171.364C173.968 170.15 174.608 168.727 174.893 167.215C175.177 165.702 175.097 164.144 174.658 162.669C173.037 157.201 170.15 151.536 169.893 150.654C169.491 149.302 161.404 149.358 161.404 149.358C161.404 149.358 145.491 159.702 139.239 177.225L146.269 179.402C146.269 179.402 150.423 172.421 154.528 167.983C154.528 167.983 147.425 177.382 147.182 181.229L162.262 182.798Z" fill="#FFB323"/>
<path d="M170.88 143.096C170.796 143.377 168.684 150.385 168.52 150.53C168.357 150.676 163.891 150.917 161.789 149.479L167.001 139.27L170.88 143.096Z" fill="url(#paint50_linear_1776_2512)"/>
<path d="M179.341 134.087C179.341 134.087 180.363 138.1 177.54 143.503C174.716 148.905 171.529 148.897 169.776 147.168C168.023 145.439 165.876 142.506 166.387 137.286C166.898 132.065 177.869 128.983 179.341 134.087Z" fill="url(#paint51_linear_1776_2512)"/>
<path d="M170.292 137.573C170.292 137.573 174.966 130.403 179.364 136.047L179.444 138.098C179.444 138.098 184.586 137.486 183.686 132.764C182.786 128.042 178.344 125.089 172.619 127.136C166.894 129.182 163.615 131.279 163.246 135.388C162.877 139.496 166.14 138.602 166.14 138.602C166.14 138.602 167.205 135.709 168.717 135.408C170.23 135.107 169.838 137.363 169.838 137.363L170.292 137.573Z" fill="url(#paint52_linear_1776_2512)"/>
<path d="M168.592 138.647C168.592 138.647 171.02 134.976 168.532 134.428C166.044 133.879 166.428 138.006 166.696 139.531L168.592 138.647Z" fill="url(#paint53_linear_1776_2512)"/>
<path d="M176.964 183.308L171.665 178.193L164.334 181.295C164.334 181.295 157.036 182.427 152.861 181.295L148.687 180.163L139.251 177.22L137.768 181.415C137.586 181.934 137.577 182.497 137.743 183.021C137.91 183.545 138.242 184 138.69 184.318C139.506 184.898 140.463 185.537 141.074 185.805C142.316 186.35 171.71 185.428 171.71 185.428L176.964 183.308Z" fill="url(#paint54_linear_1776_2512)"/>
<path d="M156.909 185.721H156.981L187.719 185.688C188.075 185.675 188.413 185.524 188.661 185.267C188.909 185.01 189.048 184.666 189.048 184.309C189.048 183.951 188.909 183.608 188.661 183.351C188.413 183.093 188.075 182.943 187.719 182.93L156.981 182.965C156.622 182.965 156.277 183.106 156.02 183.357C155.763 183.608 155.614 183.949 155.605 184.309C155.596 184.668 155.728 185.017 155.972 185.281C156.216 185.544 156.554 185.702 156.912 185.719L156.909 185.721Z" fill="url(#paint55_linear_1776_2512)"/>
<path d="M215.352 157.768H189.753C188.828 157.768 187.922 158.031 187.141 158.527C186.36 159.023 185.735 159.732 185.341 160.57L173.506 185.704H205.319C205.913 185.704 206.493 185.524 206.985 185.19C207.476 184.855 207.856 184.38 208.075 183.826L217.257 160.568C217.38 160.258 217.425 159.921 217.389 159.589C217.352 159.257 217.234 158.938 217.047 158.662C216.859 158.386 216.606 158.16 216.311 158.004C216.015 157.848 215.686 157.767 215.352 157.768V157.768Z" fill="url(#paint56_linear_1776_2512)"/>
<path d="M197.322 170.655C196.767 172.381 197.176 174.058 198.237 174.399C199.297 174.74 200.606 173.618 201.162 171.891C201.718 170.163 201.307 168.488 200.245 168.147C199.183 167.806 197.871 168.929 197.322 170.655Z" fill="#7D97F4"/>
<path d="M121.859 236.862C121.639 238.161 121.489 239.471 121.408 240.786C121.382 241.223 121.526 241.653 121.81 241.985C122.094 242.318 122.495 242.528 122.929 242.571C126.075 242.875 133.237 243.44 137.81 242.78C137.954 242.76 138.089 242.7 138.2 242.607C138.311 242.513 138.394 242.39 138.438 242.252C138.482 242.113 138.486 241.965 138.45 241.825C138.413 241.684 138.338 241.556 138.232 241.457C136.346 239.696 131.793 236.273 124.297 235.526L121.859 236.862Z" fill="url(#paint57_linear_1776_2512)"/>
<path d="M120.301 232.817L121.891 236.723C121.996 236.984 122.183 237.204 122.424 237.35C122.665 237.496 122.946 237.559 123.226 237.531C123.666 237.487 124.101 237.403 124.525 237.278C124.956 237.146 125.318 236.848 125.531 236.449C125.743 236.051 125.79 235.584 125.66 235.151L124.46 231.13L120.301 232.817Z" fill="url(#paint58_linear_1776_2512)"/>
<path d="M93.1049 239.972C93.1049 239.972 96.2904 242.647 97.5308 246.065C97.6072 246.285 97.6298 246.521 97.5966 246.751C97.5635 246.982 97.4756 247.201 97.3403 247.391C97.205 247.58 97.0264 247.734 96.8193 247.84C96.6122 247.946 96.3827 248.001 96.1501 248H89.5955C89.37 248.001 89.147 247.952 88.9423 247.857C88.7376 247.762 88.5561 247.623 88.4106 247.451C88.265 247.278 88.1589 247.076 88.0997 246.858C88.0405 246.64 88.0297 246.412 88.0679 246.189C88.4853 243.825 89.689 239.982 93.1049 239.972Z" fill="url(#paint59_linear_1776_2512)"/>
<path d="M89.1577 236.497C89.1577 236.497 89.8021 239.35 90.2963 241.236C90.3181 241.317 90.3563 241.392 90.4086 241.457C90.4608 241.522 90.5259 241.575 90.5998 241.614C90.6737 241.652 90.7548 241.675 90.8379 241.68C90.921 241.686 91.0043 241.674 91.0826 241.646C92.0743 241.291 92.8824 241.134 93.4684 241.213C93.5331 241.22 93.5986 241.213 93.6605 241.192C93.7224 241.172 93.7794 241.139 93.8277 241.096C93.8761 241.052 93.9147 240.999 93.9411 240.939C93.9675 240.879 93.9811 240.815 93.981 240.75L94.0427 236.011L89.1577 236.497Z" fill="url(#paint60_linear_1776_2512)"/>
<path d="M106.1 172.314L125.475 231.516C125.475 231.516 121.759 233.954 119.988 233.857L96.9747 186.279C96.9747 186.279 92.9478 215.595 94.8995 236.641L88.3065 237.143C88.3065 237.143 77.5898 183.356 85.707 164.934L106.1 172.314Z" fill="url(#paint61_linear_1776_2512)"/>
<path d="M97.0994 185.756H97.0744C97.0495 185.753 97.0255 185.746 97.0036 185.733C96.9817 185.721 96.9624 185.705 96.9469 185.685C96.9314 185.666 96.9199 185.643 96.9131 185.619C96.9063 185.595 96.9044 185.57 96.9074 185.545L97.6587 179.569C97.6618 179.544 97.6696 179.521 97.6818 179.499C97.694 179.478 97.7103 179.459 97.7298 179.444C97.7492 179.429 97.7715 179.418 97.7952 179.411C97.819 179.405 97.8438 179.403 97.8682 179.406C97.8927 179.409 97.9163 179.417 97.9377 179.429C97.9591 179.441 97.9779 179.458 97.993 179.477C98.0081 179.497 98.0193 179.519 98.0258 179.543C98.0323 179.566 98.0341 179.591 98.031 179.616L97.2797 185.592C97.2738 185.636 97.2525 185.677 97.2195 185.707C97.1865 185.737 97.1439 185.754 97.0994 185.756V185.756Z" fill="url(#paint62_linear_1776_2512)"/>
<path d="M109.732 120.22C109.732 120.22 94.0382 121.616 96.2553 132.818C96.2553 132.818 87.5737 149.173 83.5218 168.434C83.4909 168.583 83.4903 168.737 83.5199 168.886C83.5496 169.036 83.609 169.177 83.6945 169.303C83.7801 169.429 83.89 169.536 84.0178 169.618C84.1456 169.701 84.2886 169.756 84.4383 169.782L110.582 174.265C110.929 174.325 111.287 174.251 111.583 174.059C111.879 173.867 112.093 173.571 112.181 173.229L118.427 149.051L120.858 160.296L128.591 158.278L122.08 125.246C122.08 125.246 121.176 120.427 109.732 120.22Z" fill="#9145F1"/>
<path d="M118.56 147.974C118.546 147.976 118.532 147.976 118.518 147.974C118.468 147.963 118.424 147.932 118.396 147.889C118.368 147.845 118.359 147.792 118.369 147.742L120.548 137.72C120.562 137.673 120.594 137.633 120.636 137.607C120.679 137.582 120.729 137.574 120.777 137.585C120.826 137.595 120.868 137.624 120.896 137.664C120.924 137.705 120.936 137.755 120.929 137.804L118.758 147.825C118.748 147.869 118.722 147.908 118.686 147.935C118.649 147.962 118.605 147.976 118.56 147.974V147.974Z" fill="#9145F1"/>
<path d="M116.982 177.795C116.158 177.342 115.194 177.217 114.282 177.444L112.463 177.897C112.372 177.918 112.277 177.92 112.186 177.902C112.094 177.885 112.007 177.848 111.93 177.794C111.854 177.741 111.789 177.672 111.741 177.592C111.692 177.512 111.661 177.423 111.649 177.33L109.766 160.55C107.414 161.671 104.018 161.537 102.898 161.455L107.239 181.236H122.398L116.982 177.795Z" fill="url(#paint63_linear_1776_2512)"/>
<path d="M157.253 141.399L156.794 139.874C156.664 139.441 156.439 139.042 156.134 138.708C155.829 138.374 155.453 138.113 155.034 137.945L146.747 134.6C146.747 134.6 146.621 133.537 148.498 132.813C150.375 132.089 149.935 129.985 149.935 129.985C149.935 129.985 147.371 131.156 143.62 133.013C141.473 134.075 140.269 135.951 139.631 137.361L120.857 160.296L123.063 161.815C123.747 162.285 124.522 162.606 125.338 162.755C126.154 162.904 126.993 162.879 127.799 162.681C128.605 162.483 129.359 162.116 130.014 161.605C130.668 161.094 131.207 160.45 131.596 159.716L141.77 140.179C146.88 141.715 152.049 142.008 157.253 141.399Z" fill="url(#paint64_linear_1776_2512)"/>
<path d="M114.817 109.523L109.988 123.051C109.988 123.051 114.264 126.395 117.384 125.266L119.817 117.507C119.817 117.507 117.959 108.033 114.817 109.523Z" fill="url(#paint65_linear_1776_2512)"/>
<path d="M122.476 100.062C122.607 100.246 126.542 114.531 126.542 114.531L118.353 116.61L112.613 103.624C112.613 103.624 120.319 96.9955 122.476 100.062Z" fill="url(#paint66_linear_1776_2512)"/>
<path d="M115.693 105.599L118.181 112.672C118.212 112.761 118.256 112.846 118.311 112.924C118.645 113.406 119.932 114.978 121.456 113.565C122.841 112.282 124.128 111.132 125.306 110.924C125.563 110.879 125.826 110.931 126.046 111.07C126.266 111.209 126.426 111.426 126.495 111.677C126.852 112.974 127.604 115.914 127.868 118.568C127.892 118.828 127.818 119.087 127.661 119.296C127.504 119.504 127.274 119.646 127.018 119.693C125.418 119.997 122.026 120.541 119.194 120.338C119.006 120.326 118.825 120.263 118.67 120.156C118.516 120.049 118.392 119.901 118.314 119.73C117.535 118.023 115.142 112.839 114.261 111.498C113.426 110.239 111.381 110.272 110.523 110.347C110.384 110.36 110.244 110.344 110.111 110.3C109.979 110.257 109.856 110.187 109.751 110.095C109.002 109.434 107.581 107.754 109.584 105.747C109.683 105.648 109.761 105.53 109.814 105.4C109.866 105.27 109.892 105.13 109.89 104.99C109.888 104.85 109.858 104.711 109.801 104.583C109.745 104.454 109.663 104.339 109.561 104.242C108.698 103.428 107.776 101.987 109.215 100.199C110.68 98.3832 112.608 98.6742 113.79 99.1073C114.021 99.19 114.274 99.1888 114.504 99.1039C114.734 99.0189 114.927 98.8555 115.049 98.6424C115.135 98.4978 115.262 98.3825 115.414 98.3115C115.566 98.2405 115.736 98.2172 115.902 98.2444C116.045 98.2543 116.189 98.234 116.324 98.1849C116.459 98.1358 116.582 98.0589 116.686 97.9592C116.79 97.8595 116.871 97.7392 116.926 97.6061C116.98 97.4729 117.006 97.3298 117.002 97.186C116.982 96.0155 117.4 94.5523 119.416 93.9253C122.996 92.8133 125.223 96.2763 125.443 98.8598C125.664 101.443 121.714 102.428 119.391 102.253C117.627 102.119 116.316 103.87 115.788 104.717C115.709 104.848 115.659 104.995 115.643 105.147C115.626 105.3 115.643 105.454 115.693 105.599V105.599Z" fill="url(#paint67_linear_1776_2512)"/>
<path d="M115.191 114.063C115.191 114.063 114.616 109.578 112.755 109.357C110.893 109.137 109.082 110.668 110.918 113.187C113.229 116.318 115.191 114.063 115.191 114.063Z" fill="url(#paint68_linear_1776_2512)"/>
<path d="M104.422 161.705C103.781 161.708 103.14 161.678 102.502 161.615L102.364 161.6L96.649 134.908C96.6386 134.857 96.6485 134.804 96.6767 134.761C96.7048 134.718 96.7489 134.688 96.7993 134.677C96.8242 134.671 96.8499 134.671 96.8751 134.675C96.9002 134.68 96.9242 134.689 96.9456 134.703C96.9671 134.717 96.9856 134.735 97 134.756C97.0144 134.777 97.0245 134.801 97.0296 134.826L102.686 161.246C103.537 161.321 108.08 161.623 110.478 159.921L105.526 136.732L106.559 134.781C106.586 134.74 106.627 134.71 106.674 134.698C106.721 134.685 106.771 134.691 106.814 134.714C106.858 134.737 106.891 134.775 106.907 134.821C106.923 134.867 106.922 134.918 106.903 134.963L105.937 136.789L110.91 160.085L110.812 160.16C109.077 161.46 106.286 161.705 104.422 161.705Z" fill="#9145F1"/>
<path d="M275.79 243.086C275.925 243.085 276.059 243.055 276.182 242.997C276.432 242.867 276.623 242.648 276.72 242.384C276.816 242.119 276.81 241.828 276.703 241.567L255.815 188.487C255.772 188.36 255.703 188.243 255.612 188.144C255.521 188.045 255.411 187.966 255.288 187.913C255.164 187.859 255.032 187.832 254.897 187.832C254.763 187.833 254.631 187.862 254.508 187.917C254.259 188.047 254.067 188.265 253.97 188.53C253.873 188.794 253.879 189.086 253.986 189.346L274.867 242.427C274.936 242.617 275.061 242.782 275.226 242.9C275.391 243.017 275.587 243.082 275.79 243.086V243.086Z" fill="#7D97F4"/>
<path d="M252.249 243.086C252.45 243.081 252.646 243.015 252.809 242.898C252.972 242.78 253.097 242.616 253.166 242.427L274.055 189.346C274.162 189.086 274.167 188.794 274.071 188.53C273.974 188.265 273.782 188.047 273.533 187.917C273.41 187.862 273.277 187.833 273.143 187.832C273.009 187.832 272.876 187.859 272.753 187.913C272.63 187.966 272.52 188.045 272.429 188.144C272.338 188.243 272.269 188.36 272.225 188.487L251.338 241.567C251.23 241.828 251.224 242.119 251.321 242.384C251.417 242.648 251.609 242.867 251.859 242.997C251.981 243.055 252.114 243.085 252.249 243.086V243.086Z" fill="#7D97F4"/>
<path d="M134.026 243.086C134.162 243.085 134.296 243.055 134.419 242.997C134.668 242.867 134.86 242.648 134.956 242.384C135.053 242.119 135.047 241.828 134.94 241.567L114.052 188.487C114.009 188.36 113.939 188.243 113.848 188.144C113.758 188.045 113.647 187.966 113.524 187.913C113.401 187.859 113.268 187.832 113.134 187.832C113 187.833 112.867 187.862 112.745 187.917C112.495 188.047 112.303 188.265 112.207 188.53C112.11 188.794 112.116 189.086 112.222 189.346L133.11 242.427C133.179 242.616 133.303 242.78 133.467 242.898C133.63 243.015 133.825 243.081 134.026 243.086V243.086Z" fill="#7D97F4"/>
<path d="M110.496 243.085C110.697 243.08 110.892 243.015 111.055 242.897C111.218 242.78 111.342 242.616 111.411 242.427L132.298 189.346C132.405 189.086 132.411 188.795 132.315 188.53C132.218 188.266 132.027 188.047 131.778 187.916C131.655 187.862 131.522 187.833 131.388 187.832C131.254 187.831 131.121 187.859 130.998 187.912C130.874 187.966 130.764 188.045 130.673 188.144C130.582 188.243 130.512 188.359 130.469 188.487L109.581 241.567C109.474 241.828 109.468 242.119 109.565 242.383C109.661 242.648 109.853 242.867 110.102 242.997C110.225 243.055 110.36 243.085 110.496 243.085V243.085Z" fill="#7D97F4"/>
<path d="M137.052 184.738H106.8V181.611H137.052C136.409 181.611 136.409 184.738 137.052 184.738Z" fill="#BDD0FB"/>
<path d="M106.972 184.738C106.927 184.738 106.885 184.72 106.854 184.689C106.822 184.657 106.805 184.615 106.805 184.571V181.778C106.805 181.734 106.822 181.691 106.854 181.66C106.885 181.628 106.927 181.611 106.972 181.611H137.811C137.856 181.611 137.898 181.593 137.929 181.562C137.961 181.531 137.978 181.488 137.978 181.444V181.074C137.978 181.03 137.961 180.987 137.929 180.956C137.898 180.924 137.856 180.907 137.811 180.907H105.072C104.9 180.907 104.73 180.941 104.572 181.007C104.413 181.072 104.269 181.169 104.148 181.29C104.027 181.412 103.931 181.556 103.865 181.715C103.8 181.874 103.766 182.044 103.766 182.216V184.223C103.766 184.55 103.896 184.863 104.126 185.095C104.357 185.326 104.67 185.456 104.997 185.457H137.811C137.856 185.457 137.898 185.439 137.929 185.408C137.961 185.376 137.978 185.334 137.978 185.29V184.917C137.978 184.872 137.961 184.83 137.929 184.798C137.898 184.767 137.856 184.749 137.811 184.749L106.972 184.738Z" fill="url(#paint69_linear_1776_2512)"/>
<path d="M102.419 186.845C102.317 186.497 102.456 186.136 102.796 185.861C103.197 185.568 103.683 185.416 104.179 185.428H285.448C286.151 185.428 286.807 185.666 287.186 186.06C287.366 186.224 287.48 186.448 287.505 186.691C287.53 186.933 287.464 187.176 287.321 187.373L285.356 190.197C284.907 190.844 283.932 191.259 282.852 191.259H105.422C104.421 191.259 103.567 190.789 103.379 190.139L102.419 186.845Z" fill="#7D97F4"/>
<defs>
<linearGradient id="paint0_linear_1776_2512" x1="79.446" y1="219.548" x2="21.0858" y2="219.548" gradientUnits="userSpaceOnUse">
<stop stop-color="#DAE3FE"/>
<stop offset="1" stop-color="#E9EFFD"/>
</linearGradient>
<linearGradient id="paint1_linear_1776_2512" x1="313.765" y1="118.601" x2="290.985" y2="118.601" gradientUnits="userSpaceOnUse">
<stop stop-color="#DAE3FE"/>
<stop offset="1" stop-color="#E9EFFD"/>
</linearGradient>
<linearGradient id="paint2_linear_1776_2512" x1="363.221" y1="161.721" x2="323.132" y2="161.721" gradientUnits="userSpaceOnUse">
<stop stop-color="#DAE3FE"/>
<stop offset="1" stop-color="#E9EFFD"/>
</linearGradient>
<linearGradient id="paint3_linear_1776_2512" x1="83.129" y1="4.09581" x2="249.744" y2="222.561" gradientUnits="userSpaceOnUse">
<stop stop-color="#4042E2"/>
<stop offset="1" stop-color="#4F52FF"/>
</linearGradient>
<linearGradient id="paint4_linear_1776_2512" x1="84.288" y1="3.21119" x2="250.903" y2="221.677" gradientUnits="userSpaceOnUse">
<stop stop-color="#4042E2"/>
<stop offset="1" stop-color="#4F52FF"/>
</linearGradient>
<linearGradient id="paint5_linear_1776_2512" x1="85.7021" y1="2.13452" x2="252.317" y2="220.598" gradientUnits="userSpaceOnUse">
<stop stop-color="#4042E2"/>
<stop offset="1" stop-color="#4F52FF"/>
</linearGradient>
<linearGradient id="paint6_linear_1776_2512" x1="87.1162" y1="1.05547" x2="253.729" y2="219.521" gradientUnits="userSpaceOnUse">
<stop stop-color="#4042E2"/>
<stop offset="1" stop-color="#4F52FF"/>
</linearGradient>
<linearGradient id="paint7_linear_1776_2512" x1="88.5287" y1="-0.0225203" x2="255.143" y2="218.443" gradientUnits="userSpaceOnUse">
<stop stop-color="#4042E2"/>
<stop offset="1" stop-color="#4F52FF"/>
</linearGradient>
<linearGradient id="paint8_linear_1776_2512" x1="171.482" y1="57.9973" x2="155.354" y2="57.9973" gradientUnits="userSpaceOnUse">
<stop stop-color="#DAE3FE"/>
<stop offset="1" stop-color="#E9EFFD"/>
</linearGradient>
<linearGradient id="paint9_linear_1776_2512" x1="145.227" y1="70.7293" x2="141.524" y2="70.7293" gradientUnits="userSpaceOnUse">
<stop stop-color="#DAE3FE"/>
<stop offset="1" stop-color="#E9EFFD"/>
</linearGradient>
<linearGradient id="paint10_linear_1776_2512" x1="140.725" y1="52.3438" x2="136.763" y2="52.3438" gradientUnits="userSpaceOnUse">
<stop stop-color="#DAE3FE"/>
<stop offset="1" stop-color="#E9EFFD"/>
</linearGradient>
<linearGradient id="paint11_linear_1776_2512" x1="217.72" y1="228.442" x2="269.04" y2="283.133" gradientUnits="userSpaceOnUse">
<stop stop-color="#09005D"/>
<stop offset="1" stop-color="#1A0F91"/>
</linearGradient>
<linearGradient id="paint12_linear_1776_2512" x1="234.219" y1="232.388" x2="229.715" y2="232.431" gradientUnits="userSpaceOnUse">
<stop stop-color="#FF928E"/>
<stop offset="1" stop-color="#FEB3B1"/>
</linearGradient>
<linearGradient id="paint13_linear_1776_2512" x1="213.135" y1="165.993" x2="256.931" y2="224.104" gradientUnits="userSpaceOnUse">
<stop stop-color="#09005D"/>
<stop offset="1" stop-color="#1A0F91"/>
</linearGradient>
<linearGradient id="paint14_linear_1776_2512" x1="228.999" y1="217.856" x2="280.322" y2="272.55" gradientUnits="userSpaceOnUse">
<stop stop-color="#09005D"/>
<stop offset="1" stop-color="#1A0F91"/>
</linearGradient>
<linearGradient id="paint15_linear_1776_2512" x1="250.454" y1="232.004" x2="246.564" y2="232.041" gradientUnits="userSpaceOnUse">
<stop stop-color="#FF928E"/>
<stop offset="1" stop-color="#FEB3B1"/>
</linearGradient>
<linearGradient id="paint16_linear_1776_2512" x1="220.775" y1="160.235" x2="264.569" y2="218.348" gradientUnits="userSpaceOnUse">
<stop stop-color="#09005D"/>
<stop offset="1" stop-color="#1A0F91"/>
</linearGradient>
<linearGradient id="paint17_linear_1776_2512" x1="214.569" y1="114.851" x2="191.554" y2="115.068" gradientUnits="userSpaceOnUse">
<stop stop-color="#FF928E"/>
<stop offset="1" stop-color="#FEB3B1"/>
</linearGradient>
<linearGradient id="paint18_linear_1776_2512" x1="196.663" y1="110.994" x2="212.501" y2="146.016" gradientUnits="userSpaceOnUse">
<stop stop-color="#FF928E"/>
<stop offset="1" stop-color="#FEB3B1"/>
</linearGradient>
<linearGradient id="paint19_linear_1776_2512" x1="191.517" y1="99.4835" x2="184.965" y2="89.63" gradientUnits="userSpaceOnUse">
<stop stop-color="#FF928E"/>
<stop offset="1" stop-color="#FEB3B1"/>
</linearGradient>
<linearGradient id="paint20_linear_1776_2512" x1="265.24" y1="147.024" x2="236.113" y2="147.299" gradientUnits="userSpaceOnUse">
<stop stop-color="#FF928E"/>
<stop offset="1" stop-color="#FEB3B1"/>
</linearGradient>
<linearGradient id="paint21_linear_1776_2512" x1="234.44" y1="109.043" x2="240.133" y2="130.275" gradientUnits="userSpaceOnUse">
<stop stop-color="#FF928E"/>
<stop offset="1" stop-color="#FEB3B1"/>
</linearGradient>
<linearGradient id="paint22_linear_1776_2512" x1="-596.247" y1="201.053" x2="-577.71" y2="198.927" gradientUnits="userSpaceOnUse">
<stop stop-color="#FF928E"/>
<stop offset="1" stop-color="#FEB3B1"/>
</linearGradient>
<linearGradient id="paint23_linear_1776_2512" x1="246.645" y1="92.4115" x2="230.374" y2="105.43" gradientUnits="userSpaceOnUse">
<stop stop-color="#09005D"/>
<stop offset="1" stop-color="#1A0F91"/>
</linearGradient>
<linearGradient id="paint24_linear_1776_2512" x1="-596.005" y1="203.185" x2="-577.467" y2="201.06" gradientUnits="userSpaceOnUse">
<stop stop-color="#FF928E"/>
<stop offset="1" stop-color="#FEB3B1"/>
</linearGradient>
<linearGradient id="paint25_linear_1776_2512" x1="228.27" y1="128.569" x2="212.15" y2="195.63" gradientUnits="userSpaceOnUse">
<stop stop-color="#09005D"/>
<stop offset="1" stop-color="#1A0F91"/>
</linearGradient>
<linearGradient id="paint26_linear_1776_2512" x1="239.282" y1="146.314" x2="230.176" y2="146.314" gradientUnits="userSpaceOnUse">
<stop stop-color="#FF928E"/>
<stop offset="1" stop-color="#FEB3B1"/>
</linearGradient>
<linearGradient id="paint27_linear_1776_2512" x1="273.506" y1="239.795" x2="255.754" y2="239.795" gradientUnits="userSpaceOnUse">
<stop stop-color="#4042E2"/>
<stop offset="1" stop-color="#4F52FF"/>
</linearGradient>
<linearGradient id="paint28_linear_1776_2512" x1="259.828" y1="205.604" x2="264.694" y2="239.167" gradientUnits="userSpaceOnUse">
<stop stop-color="#09005D"/>
<stop offset="1" stop-color="#1A0F91"/>
</linearGradient>
<linearGradient id="paint29_linear_1776_2512" x1="272.619" y1="234.435" x2="267.816" y2="234.435" gradientUnits="userSpaceOnUse">
<stop stop-color="#FF928E"/>
<stop offset="1" stop-color="#FEB3B1"/>
</linearGradient>
<linearGradient id="paint30_linear_1776_2512" x1="245.661" y1="236.27" x2="231.328" y2="236.27" gradientUnits="userSpaceOnUse">
<stop stop-color="#4042E2"/>
<stop offset="1" stop-color="#4F52FF"/>
</linearGradient>
<linearGradient id="paint31_linear_1776_2512" x1="235.802" y1="209.087" x2="240.667" y2="242.65" gradientUnits="userSpaceOnUse">
<stop stop-color="#09005D"/>
<stop offset="1" stop-color="#1A0F91"/>
</linearGradient>
<linearGradient id="paint32_linear_1776_2512" x1="268.948" y1="186.948" x2="287.024" y2="223.211" gradientUnits="userSpaceOnUse">
<stop stop-color="#09005D"/>
<stop offset="1" stop-color="#1A0F91"/>
</linearGradient>
<linearGradient id="paint33_linear_1776_2512" x1="249.868" y1="234.84" x2="244.133" y2="234.84" gradientUnits="userSpaceOnUse">
<stop stop-color="#FF928E"/>
<stop offset="1" stop-color="#FEB3B1"/>
</linearGradient>
<linearGradient id="paint34_linear_1776_2512" x1="252.907" y1="172.752" x2="261.775" y2="186.618" gradientUnits="userSpaceOnUse">
<stop stop-color="#09005D"/>
<stop offset="1" stop-color="#1A0F91"/>
</linearGradient>
<linearGradient id="paint35_linear_1776_2512" x1="274.523" y1="143.427" x2="286.901" y2="158.96" gradientUnits="userSpaceOnUse">
<stop stop-color="#FF928E"/>
<stop offset="1" stop-color="#FEB3B1"/>
</linearGradient>
<linearGradient id="paint36_linear_1776_2512" x1="293.415" y1="170.135" x2="262.205" y2="221.289" gradientUnits="userSpaceOnUse">
<stop stop-color="#FE7062"/>
<stop offset="1" stop-color="#FF928E"/>
</linearGradient>
<linearGradient id="paint37_linear_1776_2512" x1="255.974" y1="9.62416" x2="266.692" y2="76.5047" gradientUnits="userSpaceOnUse">
<stop stop-color="#E1473D"/>
<stop offset="1" stop-color="#E9605A"/>
</linearGradient>
<linearGradient id="paint38_linear_1776_2512" x1="257.569" y1="181.676" x2="244.323" y2="181.676" gradientUnits="userSpaceOnUse">
<stop stop-color="#FF928E"/>
<stop offset="1" stop-color="#FEB3B1"/>
</linearGradient>
<linearGradient id="paint39_linear_1776_2512" x1="348.224" y1="28.4175" x2="333.314" y2="51.902" gradientUnits="userSpaceOnUse">
<stop stop-color="#FF928E"/>
<stop offset="1" stop-color="#FEB3B1"/>
</linearGradient>
<linearGradient id="paint40_linear_1776_2512" x1="284.094" y1="132.22" x2="269.167" y2="146.948" gradientUnits="userSpaceOnUse">
<stop stop-color="#09005D"/>
<stop offset="1" stop-color="#1A0F91"/>
</linearGradient>
<linearGradient id="paint41_linear_1776_2512" x1="352.438" y1="31.0931" x2="337.527" y2="54.5776" gradientUnits="userSpaceOnUse">
<stop stop-color="#FF928E"/>
<stop offset="1" stop-color="#FEB3B1"/>
</linearGradient>
<linearGradient id="paint42_linear_1776_2512" x1="3095.74" y1="-2863.89" x2="3048.82" y2="-2813.8" gradientUnits="userSpaceOnUse">
<stop stop-color="#09005D"/>
<stop offset="1" stop-color="#1A0F91"/>
</linearGradient>
<linearGradient id="paint43_linear_1776_2512" x1="-3726.62" y1="-1125.29" x2="-3661.45" y2="-1104.01" gradientUnits="userSpaceOnUse">
<stop stop-color="#09005D"/>
<stop offset="1" stop-color="#1A0F91"/>
</linearGradient>
<linearGradient id="paint44_linear_1776_2512" x1="165.482" y1="209.155" x2="213.59" y2="230.836" gradientUnits="userSpaceOnUse">
<stop stop-color="#FF928E"/>
<stop offset="1" stop-color="#FEB3B1"/>
</linearGradient>
<linearGradient id="paint45_linear_1776_2512" x1="176.062" y1="227.453" x2="178.99" y2="272.284" gradientUnits="userSpaceOnUse">
<stop stop-color="#09005D"/>
<stop offset="1" stop-color="#1A0F91"/>
</linearGradient>
<linearGradient id="paint46_linear_1776_2512" x1="223.478" y1="165.901" x2="211.43" y2="185.616" gradientUnits="userSpaceOnUse">
<stop stop-color="#FF928E"/>
<stop offset="1" stop-color="#FEB3B1"/>
</linearGradient>
<linearGradient id="paint47_linear_1776_2512" x1="185.667" y1="193.976" x2="138.748" y2="193.976" gradientUnits="userSpaceOnUse">
<stop stop-color="#09005D"/>
<stop offset="1" stop-color="#1A0F91"/>
</linearGradient>
<linearGradient id="paint48_linear_1776_2512" x1="204.232" y1="225.613" x2="207.16" y2="270.443" gradientUnits="userSpaceOnUse">
<stop stop-color="#09005D"/>
<stop offset="1" stop-color="#1A0F91"/>
</linearGradient>
<linearGradient id="paint49_linear_1776_2512" x1="152.617" y1="115.487" x2="159.548" y2="151.836" gradientUnits="userSpaceOnUse">
<stop stop-color="#09005D"/>
<stop offset="1" stop-color="#1A0F91"/>
</linearGradient>
<linearGradient id="paint50_linear_1776_2512" x1="170.417" y1="138.683" x2="162.55" y2="155.563" gradientUnits="userSpaceOnUse">
<stop stop-color="#FF928E"/>
<stop offset="1" stop-color="#FEB3B1"/>
</linearGradient>
<linearGradient id="paint51_linear_1776_2512" x1="49.101" y1="209.705" x2="66.4263" y2="199.939" gradientUnits="userSpaceOnUse">
<stop stop-color="#FF928E"/>
<stop offset="1" stop-color="#FEB3B1"/>
</linearGradient>
<linearGradient id="paint52_linear_1776_2512" x1="183.904" y1="122.752" x2="159.114" y2="150.191" gradientUnits="userSpaceOnUse">
<stop stop-color="#09005D"/>
<stop offset="1" stop-color="#1A0F91"/>
</linearGradient>
<linearGradient id="paint53_linear_1776_2512" x1="46.5803" y1="205.236" x2="63.9056" y2="195.469" gradientUnits="userSpaceOnUse">
<stop stop-color="#FF928E"/>
<stop offset="1" stop-color="#FEB3B1"/>
</linearGradient>
<linearGradient id="paint54_linear_1776_2512" x1="167.618" y1="132.093" x2="164.603" y2="146.807" gradientUnits="userSpaceOnUse">
<stop stop-color="#FF928E"/>
<stop offset="1" stop-color="#FEB3B1"/>
</linearGradient>
<linearGradient id="paint55_linear_1776_2512" x1="151.705" y1="177.543" x2="176.113" y2="185.535" gradientUnits="userSpaceOnUse">
<stop stop-color="#09005D"/>
<stop offset="1" stop-color="#1A0F91"/>
</linearGradient>
<linearGradient id="paint56_linear_1776_2512" x1="185.214" y1="161.517" x2="202.816" y2="180.092" gradientUnits="userSpaceOnUse">
<stop stop-color="#09005D"/>
<stop offset="1" stop-color="#1A0F91"/>
</linearGradient>
<linearGradient id="paint57_linear_1776_2512" x1="130.21" y1="269.352" x2="130.47" y2="296.9" gradientUnits="userSpaceOnUse">
<stop stop-color="#09005D"/>
<stop offset="1" stop-color="#1A0F91"/>
</linearGradient>
<linearGradient id="paint58_linear_1776_2512" x1="123.58" y1="238.588" x2="122.148" y2="227.412" gradientUnits="userSpaceOnUse">
<stop stop-color="#FF928E"/>
<stop offset="1" stop-color="#FEB3B1"/>
</linearGradient>
<linearGradient id="paint59_linear_1776_2512" x1="93.0481" y1="269.703" x2="93.3094" y2="297.251" gradientUnits="userSpaceOnUse">
<stop stop-color="#09005D"/>
<stop offset="1" stop-color="#1A0F91"/>
</linearGradient>
<linearGradient id="paint60_linear_1776_2512" x1="92.3865" y1="242.417" x2="90.9915" y2="231.528" gradientUnits="userSpaceOnUse">
<stop stop-color="#FF928E"/>
<stop offset="1" stop-color="#FEB3B1"/>
</linearGradient>
<linearGradient id="paint61_linear_1776_2512" x1="82.6685" y1="201.036" x2="125.475" y2="201.036" gradientUnits="userSpaceOnUse">
<stop stop-color="#09005D"/>
<stop offset="1" stop-color="#1A0F91"/>
</linearGradient>
<linearGradient id="paint62_linear_1776_2512" x1="98.3566" y1="183.271" x2="122.259" y2="201.796" gradientUnits="userSpaceOnUse">
<stop stop-color="#020039"/>
<stop offset="1" stop-color="#090056"/>
</linearGradient>
<linearGradient id="paint63_linear_1776_2512" x1="102.898" y1="170.893" x2="122.39" y2="170.893" gradientUnits="userSpaceOnUse">
<stop stop-color="#FF928E"/>
<stop offset="1" stop-color="#FEB3B1"/>
</linearGradient>
<linearGradient id="paint64_linear_1776_2512" x1="120.861" y1="146.421" x2="157.261" y2="146.421" gradientUnits="userSpaceOnUse">
<stop stop-color="#FF928E"/>
<stop offset="1" stop-color="#FEB3B1"/>
</linearGradient>
<linearGradient id="paint65_linear_1776_2512" x1="107.756" y1="125.973" x2="120.445" y2="112.976" gradientUnits="userSpaceOnUse">
<stop stop-color="#FF928E"/>
<stop offset="1" stop-color="#FEB3B1"/>
</linearGradient>
<linearGradient id="paint66_linear_1776_2512" x1="61.4466" y1="96.1193" x2="170.314" y2="118.125" gradientUnits="userSpaceOnUse">
<stop stop-color="#FF928E"/>
<stop offset="1" stop-color="#FEB3B1"/>
</linearGradient>
<linearGradient id="paint67_linear_1776_2512" x1="109.195" y1="119.553" x2="125.839" y2="107.799" gradientUnits="userSpaceOnUse">
<stop stop-color="#09005D"/>
<stop offset="1" stop-color="#1A0F91"/>
</linearGradient>
<linearGradient id="paint68_linear_1776_2512" x1="106.613" y1="136.622" x2="109.684" y2="117.242" gradientUnits="userSpaceOnUse">
<stop stop-color="#FF928E"/>
<stop offset="1" stop-color="#FEB3B1"/>
</linearGradient>
<linearGradient id="paint69_linear_1776_2512" x1="121.168" y1="200.426" x2="121.039" y2="192.634" gradientUnits="userSpaceOnUse">
<stop stop-color="#4042E2"/>
<stop offset="1" stop-color="#4F52FF"/>
</linearGradient>
</defs>
</svg>
