<svg width="81" height="81" viewBox="0 0 81 81" fill="none" xmlns="http://www.w3.org/2000/svg">
<path d="M40.5 0.5C18.4089 0.5 0.5 18.4089 0.5 40.5C0.5 62.5911 18.4089 80.5 40.5 80.5C62.5911 80.5 80.5 62.592 80.5 40.5C80.5 18.408 62.5911 0.5 40.5 0.5ZM60.1982 31.4089L36.9643 54.642C36.6326 54.9736 36.2389 55.2367 35.8056 55.4162C35.3723 55.5957 34.9079 55.6881 34.4388 55.6881C33.9698 55.6881 33.5054 55.5957 33.0721 55.4162C32.6388 55.2367 32.245 54.9736 31.9134 54.642L20.8018 43.5304C20.4701 43.1987 20.207 42.805 20.0275 42.3717C19.8481 41.9384 19.7557 41.4739 19.7557 41.0049C19.7557 40.5359 19.8481 40.0715 20.0275 39.6381C20.207 39.2048 20.4701 38.8111 20.8018 38.4795C21.1334 38.1478 21.5271 37.8847 21.9605 37.7052C22.3938 37.5257 22.8582 37.4334 23.3272 37.4334C23.7963 37.4334 24.2607 37.5257 24.694 37.7052C25.1273 37.8847 25.521 38.1478 25.8527 38.4795L34.4393 47.0661L55.1473 26.358C55.479 26.0264 55.8727 25.7633 56.306 25.5838C56.7393 25.4043 57.2038 25.3119 57.6728 25.3119C58.1418 25.3119 58.6062 25.4043 59.0395 25.5838C59.4729 25.7633 59.8666 26.0264 60.1982 26.358C60.5299 26.6897 60.793 27.0834 60.9725 27.5167C61.1519 27.95 61.2443 28.4145 61.2443 28.8835C61.2443 29.3525 61.1519 29.8169 60.9725 30.2503C60.793 30.6836 60.5299 31.0773 60.1982 31.4089Z" fill="#31D97E"/>
</svg>
