<svg width="91" height="40" viewBox="0 0 91 40" fill="none" xmlns="http://www.w3.org/2000/svg">
<g opacity="0.3">
<path d="M12.0428 40L10.8378 0H18.1939L19.2786 32.3429L14.5344 40H12.0428ZM22.3101 25.3143L21.9451 14.4L30.5333 0H37.8895L22.9034 25.3143H22.3101Z" fill="url(#paint0_linear_1793_2249)"/>
<path d="M30.0724 39.9429L40.8946 0H62.4886L60.6152 6.91429H46.1995L43.5674 16.6286H52.4067L50.5178 23.6H41.6786L37.2506 39.9429H30.0724Z" fill="url(#paint1_linear_1793_2249)"/>
<path d="M63.4322 40L72.4275 6.8H63.2323L65.0747 0H90.762L88.9196 6.8H79.6651L70.6697 40H63.4322Z" fill="url(#paint2_linear_1793_2249)"/>
<path fill-rule="evenodd" clip-rule="evenodd" d="M35.5218 0H30.5333L21.9451 14.4L22.3101 25.3143H22.9034L37.009 1.48728L35.5218 0ZM39.7492 4.22747L30.0723 39.9429H37.2506L41.6786 23.6H50.5178L52.3521 16.8303L52.1503 16.6286H43.5674L45.3972 9.8754L39.7492 4.22747ZM66.0095 30.4877L63.4322 40H70.6697L71.7041 36.1823L66.0095 30.4877ZM12.0428 40L10.9131 2.5L6.83777 0H18.1939L19.2786 32.3429L14.5344 40H12.0428Z" fill="url(#paint3_linear_1793_2249)"/>
</g>
<defs>
<linearGradient id="paint0_linear_1793_2249" x1="79.5541" y1="5.92032" x2="72.8841" y2="52.5403" gradientUnits="userSpaceOnUse">
<stop stop-color="#C9B78A"/>
<stop offset="0.954817" stop-color="#FBE6B0"/>
</linearGradient>
<linearGradient id="paint1_linear_1793_2249" x1="79.5541" y1="5.92032" x2="72.8841" y2="52.5403" gradientUnits="userSpaceOnUse">
<stop stop-color="#C9B78A"/>
<stop offset="0.954817" stop-color="#FBE6B0"/>
</linearGradient>
<linearGradient id="paint2_linear_1793_2249" x1="79.5541" y1="5.92032" x2="72.8841" y2="52.5403" gradientUnits="userSpaceOnUse">
<stop stop-color="#C9B78A"/>
<stop offset="0.954817" stop-color="#FBE6B0"/>
</linearGradient>
<linearGradient id="paint3_linear_1793_2249" x1="22.8912" y1="39.9622" x2="7.05611" y2="0.781609" gradientUnits="userSpaceOnUse">
<stop offset="0.0305424" stop-color="#C9B78A"/>
<stop offset="0.865589" stop-color="#EDDDB4"/>
<stop offset="0.96875" stop-color="#F8EED4"/>
</linearGradient>
</defs>
</svg>
